<svg width="143" height="85" viewBox="0 0 143 85" fill="none" xmlns="http://www.w3.org/2000/svg">
<g filter="url(#filter0_d_85_2409)">
<path d="M109.956 48.166V48.3475C109.566 47.8898 109.168 47.4361 108.774 46.9823C108.608 46.7929 108.443 46.6036 108.277 46.4142C107.576 45.6172 106.87 44.8228 106.161 44.031C105.447 43.2419 104.734 42.4528 104.013 41.6676C103.839 41.4782 103.666 41.2888 103.489 41.0995C103.347 40.9403 103.193 40.7925 103.028 40.6575C102.861 40.5188 102.67 40.4131 102.464 40.3458C102.227 40.2801 101.977 40.2774 101.739 40.338C101.467 40.4011 101.207 40.4997 100.943 40.5826C100.671 40.6733 100.403 40.7601 100.131 40.8469C99.5869 41.0245 99.047 41.2021 98.5031 41.3796C98.4965 41.3823 98.4895 41.3836 98.4825 41.3836C98.4754 41.3835 98.4684 41.3821 98.4619 41.3793C98.4553 41.3766 98.4494 41.3725 98.4445 41.3675C98.4395 41.3625 98.4356 41.3565 98.4329 41.3499L98.4322 41.348C98.4291 41.3405 98.4277 41.3325 98.428 41.3244C98.4284 41.3163 98.4305 41.3084 98.4343 41.3013C98.4381 41.2941 98.4434 41.2879 98.4498 41.283C98.4563 41.2781 98.4637 41.2747 98.4716 41.2731C98.6057 41.2297 98.7435 41.1863 98.8815 41.1428C99.4293 40.9614 99.9731 40.7838 100.521 40.6063C100.793 40.5155 101.065 40.4287 101.337 40.3419C101.589 40.246 101.855 40.1927 102.125 40.1841C102.565 40.2158 102.978 40.4098 103.284 40.7286C103.453 40.8864 103.607 41.0521 103.761 41.2218C103.942 41.419 104.123 41.6163 104.305 41.8136C105.034 42.6106 105.757 43.4103 106.476 44.2125C107.197 45.0174 107.912 45.8237 108.62 46.6312C108.671 46.6904 108.722 46.7496 108.774 46.8088C109.172 47.2585 109.562 47.7123 109.956 48.166Z" fill="white"/>
<path d="M102.966 41.3845C102.817 41.1925 102.619 41.0448 102.392 40.9575L102.168 40.9654C103.927 43.7057 106.232 46.0534 108.938 47.8619C106.947 45.7028 104.957 43.5436 102.966 41.3845Z" fill="white"/>
<path d="M139.676 69.8615L130.747 22.0017C130.595 21.2128 130.179 20.4992 129.568 19.978C128.957 19.4567 128.187 19.1588 127.385 19.133C127.312 19.1314 127.24 19.1314 127.168 19.133L121.086 19.3515L120.431 19.3756L117.396 19.4848L116.741 19.5073L114.789 19.5779L75.4172 20.993C75.3578 20.9962 75.2968 20.9962 75.2375 20.9946L66.415 20.8099L63.1501 20.7424L63.0458 20.7408L60.636 20.6894L39.6379 20.2525L34.0708 20.1353L31.3256 20.0791L30.6679 20.0646L27.5377 20.0004L26.8815 19.9859L23.6792 19.92L23.023 19.9056L19.5046 19.8317L18.9527 19.8205L15.8145 19.7546L15.3188 19.745H15.2466C14.4135 19.7484 13.6084 20.0465 12.9736 20.5868C12.3389 21.127 11.9154 21.8745 11.7779 22.6972L3.70308 72.3607C3.62108 72.8638 3.64931 73.3788 3.78581 73.8698C3.92231 74.3609 4.16381 74.8164 4.4936 75.2048C4.82338 75.5932 5.23356 75.9051 5.69572 76.119C6.15788 76.333 6.66097 76.4437 7.17014 76.4437H53.5431C54.2256 76.4456 54.8898 76.665 55.4395 77.0701L56.3187 77.7222C56.9246 78.1687 57.6568 78.4106 58.4092 78.4129C67.3655 76.0464 76.7818 76.0464 85.7382 78.4129C86.1999 78.4141 86.6573 78.3235 87.0839 78.1465C87.5105 77.9695 87.8978 77.7096 88.2233 77.3817C88.78 76.8245 89.5229 76.4933 90.309 76.4517L136.406 74.0199C136.906 73.9938 137.394 73.861 137.839 73.6305C138.283 73.3999 138.673 73.077 138.983 72.6832C139.293 72.2894 139.515 71.834 139.634 71.3473C139.754 70.8607 139.768 70.3541 139.676 69.8615Z" fill="#F9F9F9"/>
<path d="M127.043 62.3987C126.984 64.0206 126.284 65.5525 125.097 66.6578C123.91 67.7631 122.333 68.3513 120.713 68.2931C118.036 68.1984 114.842 68.151 111.375 68.2235C100.053 68.4658 85.8287 70.0258 77.2726 75.636C76.1972 76.3427 74.9265 76.6917 73.6414 76.6333C73.5468 76.6277 73.455 76.6221 73.3604 76.6138C72.0281 76.4919 70.7728 75.9349 69.7877 75.0288C65.0742 70.711 54.2643 65.4824 29.5197 65.1147C29.4167 65.1147 29.3166 65.1091 29.2164 65.1036C28.4149 65.0531 27.6313 64.8449 26.9102 64.4911C26.1892 64.1372 25.5448 63.6446 25.0141 63.0413C24.4833 62.438 24.0765 61.7359 23.8169 60.9751C23.5573 60.2143 23.45 59.4098 23.5012 58.6075L25.9331 19.968L26.2976 14.1767L26.9376 4.04533C27.0021 3.02503 27.4522 2.06759 28.1964 1.36754C28.9406 0.667496 29.9231 0.277348 30.9443 0.276367H30.9694L45.7109 0.362721C51.9214 0.64407 57.0653 1.43612 61.1426 2.73886C62.5353 3.17123 63.8902 3.71719 65.1938 4.37126C66.9743 5.23545 68.574 6.43139 69.9074 7.89508C70.7379 8.83012 71.8707 9.44254 73.1072 9.62496C73.299 9.65363 73.4922 9.6713 73.686 9.67788C74.8263 9.72511 75.9515 9.40272 76.8942 8.75862C86.5243 2.29875 106.149 1.80848 116.987 2.08704C118.503 2.12243 119.951 2.72139 121.049 3.76726C122.148 4.81312 122.819 6.23098 122.93 7.74465L123.37 13.5081L123.807 19.2549L126.328 52.468L127.029 61.7079C127.046 61.9377 127.051 62.1684 127.043 62.3987Z" fill="#F2F2F2"/>
<path d="M33.1874 13.8734C42.0711 11.0359 51.982 11.7871 60.398 15.7846C62.7993 16.9192 65.0672 18.3176 67.1598 19.954C67.7518 20.4191 68.5942 19.5871 67.9959 19.117C60.2659 13.1146 50.5534 10.2632 40.8097 11.1357C38.114 11.3772 35.4528 11.9124 32.8731 12.732C32.151 12.9626 32.4596 14.1059 33.1874 13.8734Z" fill="#6946B3"/>
<path d="M82.0711 20.4124C90.3305 16.0662 100.221 15.1184 109.201 17.5855C111.762 18.2872 114.236 19.272 116.578 20.5219C117.249 20.8804 117.847 19.8589 117.175 19.4998C108.616 14.9277 98.342 13.8752 88.9956 16.4239C86.3883 17.1361 83.8663 18.1308 81.4743 19.3903C80.8005 19.7448 81.3975 20.7668 82.0711 20.4124Z" fill="#6946B3"/>
<path d="M82.0711 28.304C90.3305 23.9578 100.221 23.01 109.201 25.4771C111.762 26.1788 114.236 27.1636 116.578 28.4135C117.249 28.772 117.847 27.7506 117.175 27.3914C108.616 22.8193 98.342 21.7668 88.9956 24.3155C86.3883 25.0277 83.8663 26.0224 81.4743 27.2819C80.8005 27.6364 81.3975 28.6584 82.0711 28.304Z" fill="#6946B3"/>
<path d="M117.464 35.7719C117.47 35.6703 117.446 35.5692 117.394 35.4817C117.342 35.3942 117.265 35.3244 117.173 35.2813C110.316 31.687 102.542 30.2292 94.8512 31.0955C94.803 31.0993 94.7586 31.1071 94.7065 31.1109H94.7046C94.6572 31.1152 94.6102 31.1223 94.5637 31.1322C89.9892 31.6592 85.5515 33.0285 81.4744 35.1712C81.3856 35.2242 81.3119 35.2994 81.2609 35.3895C81.2098 35.4796 81.183 35.5814 81.1831 35.685V50.4059C81.1846 50.4965 81.2066 50.5855 81.2475 50.6663C81.2884 50.7471 81.3472 50.8176 81.4193 50.8723C81.4914 50.927 81.5751 50.9646 81.6638 50.9821C81.7526 50.9997 81.8442 50.9969 81.9317 50.9738C82.1131 50.9216 82.2945 50.8714 82.4797 50.8231C86.6014 49.7062 90.8327 49.0435 95.0982 48.847C95.1889 48.8432 95.2795 48.8393 95.3741 48.8355C98.8483 48.6861 102.329 48.8113 105.783 49.2102C105.856 49.2143 105.928 49.222 105.999 49.2333C106.177 49.2527 106.358 49.2739 106.536 49.2971C106.607 49.3048 106.675 49.3125 106.74 49.3241C107.431 49.411 108.116 49.5096 108.803 49.6158C109.795 49.7742 110.786 49.9506 111.778 50.1451C111.84 50.1567 111.904 50.1721 111.967 50.1837C113.559 50.5005 115.143 50.8675 116.719 51.2731C116.807 51.2958 116.899 51.2982 116.988 51.2802C117.077 51.2623 117.16 51.2243 117.232 51.1692C117.304 51.1142 117.363 51.0435 117.404 50.9624C117.445 50.8814 117.467 50.7921 117.468 50.7014V35.7951C117.469 35.7872 117.467 35.7792 117.464 35.7719Z" fill="#6946B3"/>
<path d="M87.2751 35.835L87.1152 35.9508C87.1693 35.9102 87.2255 35.8722 87.2833 35.8363L87.2751 35.835Z" fill="white"/>
<path d="M33.1874 21.764C42.0711 18.9265 51.982 19.6777 60.398 23.6752C62.7993 24.8099 65.0672 26.2083 67.1598 27.8446C67.7518 28.3098 68.5942 27.4778 67.9959 27.0076C60.2659 21.0053 50.5534 18.1538 40.8097 19.0263C38.114 19.2678 35.4528 19.8031 32.8731 20.6226C32.151 20.8533 32.4596 21.9965 33.1874 21.764Z" fill="#6946B3"/>
<path d="M33.1874 29.6556C42.0711 26.8181 51.982 27.5693 60.398 31.5668C62.7993 32.7015 65.0672 34.0999 67.1598 35.7362C67.7518 36.2014 68.5942 35.3694 67.9959 34.8992C60.2659 28.8969 50.5534 26.0454 40.8097 26.9179C38.114 27.1594 35.4528 27.6947 32.8731 28.5142C32.151 28.7449 32.4596 29.8881 33.1874 29.6556Z" fill="#6946B3"/>
<path d="M33.1874 37.5467C42.0711 34.7092 51.982 35.4604 60.398 39.4579C62.7993 40.5926 65.0672 41.991 67.1598 43.6273C67.7518 44.0925 68.5942 43.2605 67.9959 42.7903C60.2659 36.788 50.5534 33.9366 40.8097 34.809C38.114 35.0505 35.4528 35.5858 32.8731 36.4053C32.151 36.636 32.4596 37.7792 33.1874 37.5467Z" fill="#6946B3"/>
<path d="M33.1874 45.4378C42.0711 42.6003 51.982 43.3515 60.398 47.349C62.7993 48.4837 65.0672 49.8821 67.1598 51.5185C67.7518 51.9836 68.5942 51.1516 67.9959 50.6815C60.2659 44.6791 50.5534 41.8277 40.8097 42.7001C38.114 42.9416 35.4528 43.4769 32.8731 44.2964C32.151 44.5271 32.4596 45.6703 33.1874 45.4378Z" fill="#6946B3"/>
<path d="M33.1874 53.3289C42.0711 50.4914 51.982 51.2426 60.398 55.2401C62.7993 56.3748 65.0672 57.7732 67.1598 59.4096C67.7518 59.8747 68.5942 59.0427 67.9959 58.5726C60.2659 52.5702 50.5534 49.7188 40.8097 50.5913C38.114 50.8327 35.4528 51.368 32.8731 52.1875C32.151 52.4182 32.4596 53.5614 33.1874 53.3289Z" fill="#6946B3"/>
<path d="M65.1939 4.37164V23.2944C65.1939 23.6705 64.5372 23.9853 63.6524 24.0716C63.6448 24.0712 63.6373 24.0721 63.6301 24.0744C63.4826 24.0855 63.3268 24.0939 63.1682 24.0939C62.6804 24.1029 62.195 24.0236 61.7352 23.8599C61.6935 23.8432 61.6518 23.8237 61.61 23.807C61.5711 23.7847 61.5293 23.7652 61.4904 23.7429C61.2706 23.612 61.1426 23.4588 61.1426 23.2944V2.73926C62.5353 3.17162 63.8903 3.71758 65.1939 4.37164Z" fill="#D9FCB1"/>
<path d="M73.6853 8.76025H73.1064V76.2379H73.6853V8.76025Z" fill="#E6E6E6"/>
</g>
<defs>
<filter id="filter0_d_85_2409" x="0.806804" y="0.276367" width="141.779" height="83.8376" filterUnits="userSpaceOnUse" color-interpolation-filters="sRGB">
<feFlood flood-opacity="0" result="BackgroundImageFix"/>
<feColorMatrix in="SourceAlpha" type="matrix" values="0 0 0 0 0 0 0 0 0 0 0 0 0 0 0 0 0 0 127 0" result="hardAlpha"/>
<feOffset dy="2.85042"/>
<feGaussianBlur stdDeviation="1.42521"/>
<feComposite in2="hardAlpha" operator="out"/>
<feColorMatrix type="matrix" values="0 0 0 0 0 0 0 0 0 0 0 0 0 0 0 0 0 0 0.25 0"/>
<feBlend mode="normal" in2="BackgroundImageFix" result="effect1_dropShadow_85_2409"/>
<feBlend mode="normal" in="SourceGraphic" in2="effect1_dropShadow_85_2409" result="shape"/>
</filter>
</defs>
</svg>
