<svg width="36" height="64" viewBox="0 0 36 64" fill="none" xmlns="http://www.w3.org/2000/svg">
<path d="M7.46551 56.6807C8.06559 56.3244 8.66039 55.9633 9.27026 55.6177C9.56382 55.4514 9.85918 55.2771 10.1994 55.1689C10.8941 54.9457 11.6795 55.1701 12.2056 55.6993C12.7081 56.2048 12.8288 56.7942 12.3679 57.2352C11.695 57.8794 10.9627 58.4841 10.1873 59.0436C8.48856 60.2715 6.75289 61.4666 5.01799 62.6603C4.67243 62.8984 4.29742 63.1187 3.88002 63.2777C3.39164 63.4619 2.80879 63.3638 2.25634 62.984C1.70591 62.6052 1.49609 62.1513 1.49205 61.6543C1.48807 61.1429 1.47401 60.626 1.39894 60.1015C1.07541 57.8252 0.682812 55.5369 0.40996 53.2681C0.273074 52.1225 0.298559 50.9996 0.337103 49.8911C0.35527 49.3917 0.51262 48.9096 0.737068 48.4912C0.993815 48.0085 1.56959 47.9227 2.18349 48.1413C2.82988 48.3721 3.28164 48.8846 3.34797 49.5117C3.37788 49.788 3.34677 50.0567 3.30913 50.3182C3.01665 52.3365 3.12364 54.4498 3.36495 56.5942C3.37635 56.7077 3.44321 56.8295 3.54247 57.1125C3.88251 56.4331 4.16323 55.8871 4.43464 55.3341C6.22078 51.7019 7.98804 48.0613 9.79634 44.4412C10.3943 43.2433 11.0174 42.0519 11.7588 40.9356C13.8785 37.7409 15.5206 34.2924 17.1984 30.8597C18.0994 29.017 19.1779 27.2652 20.1481 25.4582C21.5901 22.7724 22.9959 20.0669 24.4399 17.3821C24.9796 16.3782 25.5461 15.3871 26.1688 14.4318C28.1234 11.4404 29.7205 8.26214 31.255 5.04084C31.9972 3.48115 33.1663 2.13864 34.1484 0.703707C34.3395 0.423649 34.6412 0.247258 35.1399 0.505176C35.6507 0.769659 35.6541 1.11888 35.541 1.43766C35.4463 1.7082 35.3602 1.987 35.2059 2.22335C33.8029 4.35203 32.8721 6.72053 31.8865 9.06482C31.2441 10.5895 30.536 12.0913 29.6874 13.506C27.779 16.6862 26.1044 19.9879 24.5298 23.3456C23.4412 25.6685 22.1091 27.8684 20.9344 30.1482C19.9168 32.1241 18.9826 34.1433 17.9791 36.1269C17.3222 37.4237 16.69 38.7375 15.9065 39.9601C13.6552 43.4744 11.8285 47.2101 10.1159 51.0095C9.35523 52.6992 8.42366 54.3052 7.57089 55.9486C7.46817 56.1475 7.36948 56.3485 7.26953 56.5471C7.33495 56.5899 7.40161 56.6351 7.46551 56.6807Z" fill="#D06D6A"/>
</svg>
