<svg width="30" height="66" viewBox="0 0 30 66" fill="none" xmlns="http://www.w3.org/2000/svg">
<path d="M26.3831 57.8064C26.492 57.117 26.5939 56.4287 26.7174 55.7387C26.7769 55.4066 26.8313 55.068 26.9653 54.737C27.237 54.0599 27.9112 53.5987 28.6545 53.5318C29.3644 53.4678 29.895 53.7512 29.9401 54.3875C30.0062 55.3167 30.0041 56.2664 29.9395 57.2205C29.7998 59.3119 29.6113 61.4107 29.4222 63.5081C29.3848 63.9261 29.3149 64.3553 29.1707 64.7781C29.0007 65.2716 28.553 65.6575 27.9079 65.8402C27.265 66.0219 26.7816 65.8935 26.3966 65.5793C26.0005 65.2559 25.5937 64.9366 25.1421 64.6595C23.1837 63.455 21.1719 62.296 19.2516 61.0573C18.2826 60.4312 17.4347 59.6946 16.6061 58.9571C16.2334 58.6242 15.9629 58.1953 15.7842 57.7554C15.5767 57.2496 15.8782 56.7517 16.4385 56.4188C17.0288 56.0687 17.7117 56.0483 18.2367 56.3977C18.4684 56.5511 18.6553 56.7466 18.8325 56.9425C20.1991 58.4564 21.8938 59.7234 23.6982 60.9069C23.7928 60.9706 23.9293 60.9969 24.2105 61.1013C23.9047 60.4058 23.6637 59.8411 23.4115 59.2791C21.7566 55.5853 20.0833 51.9006 18.4518 48.1973C17.9118 46.9723 17.3927 45.732 17.007 44.4486C15.9018 40.7774 14.2964 37.3117 12.7259 33.8286C11.8831 31.9586 11.2235 30.01 10.4524 28.1095C9.30611 25.2848 8.12154 22.4754 6.97739 19.6498C6.54933 18.5934 6.14833 17.5245 5.81079 16.4354C4.75658 13.021 3.33042 9.76246 1.8311 6.52465C1.10467 4.95756 0.818007 3.20055 0.340765 1.52849C0.24725 1.2026 0.304124 0.857801 0.821053 0.638685C1.35075 0.414464 1.62167 0.634849 1.79482 0.925397C1.94256 1.17101 2.10213 1.41533 2.18548 1.68503C2.92792 4.12393 4.15633 6.35267 5.33122 8.60802C6.09446 10.076 6.79805 11.5799 7.34494 13.1362C8.57388 16.6356 10.0456 20.0326 11.6243 23.3884C12.7169 25.7094 13.5594 28.1393 14.5638 30.4991C15.4347 32.5438 16.3922 34.5522 17.278 36.591C17.8566 37.9245 18.464 39.25 18.9047 40.6336C20.1717 44.6102 21.8804 48.4014 23.7108 52.1454C24.5255 53.8097 25.1667 55.5522 25.8869 57.2578C25.9744 57.4638 26.0661 57.6682 26.1551 57.8719C26.2298 57.8489 26.3072 57.8265 26.3831 57.8064Z" fill="#D06D6A"/>
</svg>
