<svg width="32" height="29" viewBox="0 0 32 29" fill="none" xmlns="http://www.w3.org/2000/svg">
<path id="Arrow 1" d="M1.56199 19.0107C0.536039 19.42 0.0123751 20.5926 0.392353 21.6297C0.772331 22.6669 1.91206 23.1759 2.93801 22.7666L1.56199 19.0107ZM31.3457 10.8039C31.8025 9.78113 31.3669 8.59209 30.3727 8.1481L14.1722 0.912977C13.1781 0.468993 12.0019 0.938197 11.5451 1.96097C11.0884 2.98375 11.524 4.17279 12.5181 4.61677L26.9185 11.048L20.3021 25.8632C19.8453 26.886 20.2809 28.075 21.2751 28.519C22.2692 28.963 23.4454 28.4938 23.9022 27.471L31.3457 10.8039ZM2.93801 22.7666L30.2337 11.8779L28.8576 8.12207L1.56199 19.0107L2.93801 22.7666Z" fill="#D06D6A"/>
</svg>
