<svg width="80" height="110" viewBox="0 0 80 110" fill="none" xmlns="http://www.w3.org/2000/svg">
<g filter="url(#filter0_d_85_2253)">
<path d="M41.3358 30.3534C49.3905 30.3534 55.9202 23.5586 55.9202 15.1767C55.9202 6.79484 49.3905 0 41.3358 0C33.2811 0 26.7515 6.79484 26.7515 15.1767C26.7515 23.5586 33.2811 30.3534 41.3358 30.3534Z" fill="#6946B3"/>
<path d="M41.5184 32.4484C48.8455 32.4484 54.7853 26.2674 54.7853 18.6427C54.7853 11.018 48.8455 4.83691 41.5184 4.83691C34.1913 4.83691 28.2515 11.018 28.2515 18.6427C28.2515 26.2674 34.1913 32.4484 41.5184 32.4484Z" fill="#F9F9F9"/>
<path d="M42.2135 92.1669C36.7007 92.0801 31.2162 91.3281 25.8699 89.9262L25.7119 89.8811L18.3087 54.4436C17.6427 51.3296 18.0955 48.0696 19.5816 45.2793C21.0677 42.4889 23.4842 40.3615 26.3748 39.2987C35.3036 35.965 45.0353 35.7628 54.0848 38.7229C57.1213 39.7412 59.6774 41.9134 61.2428 44.8061C62.8082 47.6989 63.268 51.0995 62.5304 54.3294L54.2614 89.8515L54.145 89.9091C50.7086 91.6031 46.4114 92.1669 42.2135 92.1669Z" fill="#CFFD99"/>
<path d="M32.269 94.92C32.5378 94.1425 32.9672 93.4357 33.5269 92.8496C34.0867 92.2634 34.7631 91.8121 35.5085 91.5274C36.254 91.2427 37.0504 91.1316 37.8416 91.2018C38.6328 91.2721 39.3996 91.522 40.088 91.934L54.665 78.7671L55.9839 89.1145L41.9391 100.032C41.1973 101.189 40.0734 102.023 38.7801 102.376C37.4868 102.729 36.1142 102.576 34.9222 101.945C33.7302 101.315 32.8018 100.252 32.3127 98.9574C31.8237 97.6625 31.8082 96.226 32.269 94.92Z" fill="#FFB8B8"/>
<path d="M46.1716 97.7916C45.9344 97.7914 45.6986 97.7553 45.4714 97.6846C45.1025 97.5728 44.7648 97.3708 44.4864 97.0954C44.208 96.82 43.997 96.4791 43.8712 96.1014L42.1117 90.9141C41.947 90.4347 41.9261 89.9146 42.0517 89.4225C42.1773 88.9304 42.4435 88.4896 42.8151 88.1585L62.6762 75.7506L54.847 39.4046L55.0462 39.3546C55.1272 39.3338 63.1487 37.4339 66.4358 46.5554C68.7377 52.9438 77.2561 66.8344 76.6551 76.221C76.541 78.0986 75.822 79.8814 74.6143 81.2814C73.4067 82.6815 71.7808 83.6171 69.9992 83.9373L47.643 97.2663C47.2219 97.606 46.7044 97.7908 46.1716 97.7916Z" fill="#CFFD99"/>
<path d="M48.399 93.6861C48.1302 92.9086 47.7008 92.2018 47.141 91.6157C46.5813 91.0295 45.9049 90.5783 45.1594 90.2936C44.414 90.0089 43.6176 89.8977 42.8264 89.968C42.0351 90.0382 41.2684 90.2881 40.58 90.7001L26.0029 77.5332L24.6841 87.8806L38.7289 98.7978C39.4706 99.9552 40.5946 100.789 41.8879 101.142C43.1811 101.495 44.5538 101.342 45.7458 100.712C46.9377 100.081 47.8662 99.0183 48.3552 97.7235C48.8442 96.4287 48.8598 94.9921 48.399 93.6861Z" fill="#FFB8B8"/>
<path d="M35.9594 97.7918C35.4266 97.791 34.9091 97.6062 34.4881 97.2665L10.5113 85.0617C8.72978 84.7415 7.10392 83.8059 5.89626 82.4058C4.6886 81.0058 3.96965 79.223 3.85548 77.3454C3.25452 67.9588 13.3934 52.9441 15.6952 46.5557C18.9821 37.4342 27.0038 39.3334 27.0849 39.3548L27.284 39.4048L17.8344 76.875L39.3159 88.1587C39.6875 88.4899 39.9538 88.9307 40.0794 89.4227C40.205 89.9148 40.1841 90.4349 40.0193 90.9143L38.2599 96.1017C38.134 96.4794 37.9231 96.8202 37.6447 97.0956C37.3663 97.371 37.0285 97.5731 36.6597 97.6848C36.4325 97.7556 36.1966 97.7916 35.9594 97.7918Z" fill="#CFFD99"/>
<path d="M64.5625 103.426H16.4882C15.4857 103.425 14.5246 103.01 13.8158 102.272C13.1069 101.535 12.7082 100.534 12.707 99.4913V71.9484C12.7082 70.9052 13.1069 69.9051 13.8158 69.1675C14.5246 68.4298 15.4857 68.0149 16.4882 68.0137H64.5625C65.5649 68.0149 66.526 68.4298 67.2349 69.1675C67.9437 69.9051 68.3424 70.9052 68.3436 71.9484V99.4913C68.3424 100.534 67.9437 101.535 67.2348 102.272C66.526 103.01 65.5649 103.425 64.5625 103.426Z" fill="#6946B3"/>
<path d="M40.5254 89.0929C42.3153 89.0929 43.7664 87.5829 43.7664 85.7203C43.7664 83.8576 42.3153 82.3477 40.5254 82.3477C38.7355 82.3477 37.2844 83.8576 37.2844 85.7203C37.2844 87.5829 38.7355 89.0929 40.5254 89.0929Z" fill="white"/>
<path d="M28.1186 18.0802C27.3323 16.0048 28.6224 13.5314 30.5362 12.5261C32.45 11.5207 34.7594 11.7119 36.8065 12.3745C38.5268 12.9314 40.1392 13.7943 41.8175 14.4759C43.4721 15.2389 45.2796 15.5739 47.0856 15.4522C48.8759 15.2418 50.6577 14.1972 51.3902 12.4843C52.1495 10.7089 51.6331 8.54225 50.4637 7.02704C49.2196 5.56218 47.6093 4.4852 45.812 3.91591C41.8648 2.46882 37.3054 2.42652 33.6409 4.53001C29.9765 6.63349 27.4861 11.1123 28.2436 15.3954" fill="#6946B3"/>
</g>
<defs>
<filter id="filter0_d_85_2253" x="0.979411" y="0" width="78.5563" height="109.127" filterUnits="userSpaceOnUse" color-interpolation-filters="sRGB">
<feFlood flood-opacity="0" result="BackgroundImageFix"/>
<feColorMatrix in="SourceAlpha" type="matrix" values="0 0 0 0 0 0 0 0 0 0 0 0 0 0 0 0 0 0 127 0" result="hardAlpha"/>
<feOffset dy="2.85042"/>
<feGaussianBlur stdDeviation="1.42521"/>
<feComposite in2="hardAlpha" operator="out"/>
<feColorMatrix type="matrix" values="0 0 0 0 0 0 0 0 0 0 0 0 0 0 0 0 0 0 0.25 0"/>
<feBlend mode="normal" in2="BackgroundImageFix" result="effect1_dropShadow_85_2253"/>
<feBlend mode="normal" in="SourceGraphic" in2="effect1_dropShadow_85_2253" result="shape"/>
</filter>
</defs>
</svg>
