<svg width="128" height="147" viewBox="0 0 128 147" fill="none" xmlns="http://www.w3.org/2000/svg">
<path d="M94.2446 74.2774L113.079 55.5002L94.2446 36.7226L99.9869 30.9995L124.564 55.5002L99.9869 80.0005L94.2446 74.2774Z" fill="#6946B3"/>
<path d="M30.3193 74.2781L11.4654 55.5008L30.3001 36.7236L24.5578 31.0005L0 55.5008L24.577 80.0012L30.3193 74.2781Z" fill="#6946B3"/>
<ellipse cx="62.0907" cy="31.5555" rx="13.3075" ry="13.3138" fill="#CFFD99"/>
<path d="M83.6423 24.218H86.1087" stroke="#CFFD99" stroke-width="4.93267" stroke-linecap="round" stroke-linejoin="round"/>
<path d="M77.4763 11.0986L76.2432 12.3318" stroke="#CFFD99" stroke-width="4.93267" stroke-linecap="round" stroke-linejoin="round"/>
<path d="M36.7822 24.218H39.2486" stroke="#CFFD99" stroke-width="4.93267" stroke-linecap="round" stroke-linejoin="round"/>
<path d="M61.4451 4.93311V7.39944" stroke="#CFFD99" stroke-width="4.93267" stroke-linecap="round" stroke-linejoin="round"/>
<path d="M44.0066 12.1575L45.7503 13.9012" stroke="#CFFD99" stroke-width="4.93267" stroke-linecap="round" stroke-linejoin="round"/>
<g clip-path="url(#clip0_85_1478)">
<path d="M69.678 45.8848C70.1712 43.4185 71.4044 41.6921 73.3775 39.719C75.8438 37.4993 77.077 34.2931 77.077 31.0868C77.077 27.1622 75.5179 23.3982 72.7427 20.6231C69.9676 17.8479 66.2036 16.2888 62.279 16.2888C58.3543 16.2888 54.5904 17.8479 51.8152 20.6231C49.04 23.3982 47.481 27.1622 47.481 31.0868C47.481 33.5532 47.9742 36.5128 51.1805 39.719C52.9069 41.4454 54.3867 43.4185 54.88 45.8848" stroke="#6946B3" stroke-width="4.93267" stroke-linecap="round" stroke-linejoin="round"/>
<path d="M54.8816 55.7495H69.6796" stroke="#6946B3" stroke-width="4.93267" stroke-linecap="round" stroke-linejoin="round"/>
<path d="M57.3469 65.6162H67.2123" stroke="#6946B3" stroke-width="4.93267" stroke-linecap="round" stroke-linejoin="round"/>
</g>
<path d="M14.0664 140.217C13.331 140.217 12.6318 140.09 11.9688 139.837C11.3178 139.584 10.7392 139.204 10.2328 138.698C9.72652 138.18 9.3287 137.547 9.03937 136.799C8.75005 136.04 8.60538 135.166 8.60538 134.177C8.60538 132.875 8.85252 131.766 9.34678 130.85C9.8531 129.922 10.5282 129.217 11.3721 128.734C12.228 128.24 13.1804 127.993 14.2292 127.993C14.9766 127.993 15.6517 128.15 16.2544 128.463C16.8572 128.764 17.3575 129.108 17.7553 129.494L16.2906 131.139C16.0133 130.874 15.7059 130.669 15.3684 130.525C15.0429 130.368 14.6632 130.289 14.2292 130.289C13.6746 130.289 13.1804 130.446 12.7464 130.76C12.3124 131.061 11.9688 131.495 11.7156 132.062C11.4625 132.628 11.3359 133.303 11.3359 134.087C11.3359 134.895 11.4625 135.588 11.7156 136.166C11.9688 136.733 12.3184 137.167 12.7644 137.468C13.2225 137.77 13.747 137.92 14.3377 137.92C14.7717 137.92 15.1634 137.824 15.513 137.631C15.8627 137.438 16.1821 137.185 16.4714 136.872L17.9362 138.481C17.4539 139.048 16.8873 139.482 16.2364 139.783C15.5854 140.072 14.8621 140.217 14.0664 140.217ZM20.5692 140V131.031H22.7391L22.9561 132.984H23.0104C23.4564 132.248 23.9929 131.706 24.6198 131.356C25.2587 130.995 25.9338 130.814 26.645 130.814C27.0429 130.814 27.3623 130.844 27.6034 130.904C27.8566 130.965 28.1158 131.055 28.381 131.176L27.8385 133.4C27.5612 133.315 27.3081 133.255 27.079 133.219C26.862 133.171 26.5848 133.147 26.2472 133.147C25.6927 133.147 25.1442 133.309 24.6017 133.635C24.0712 133.96 23.6131 134.527 23.2274 135.335V140H20.5692ZM35.2816 140.217C34.3534 140.217 33.5095 140.036 32.75 139.675C32.0026 139.301 31.4058 138.764 30.9598 138.065C30.5258 137.354 30.3088 136.504 30.3088 135.515C30.3088 134.539 30.5318 133.701 30.9779 133.002C31.4239 132.291 32.0026 131.748 32.7138 131.374C33.4251 131.001 34.1786 130.814 34.9742 130.814C35.9025 130.814 36.68 131.007 37.3069 131.393C37.9338 131.766 38.4039 132.279 38.7174 132.93C39.0429 133.569 39.2056 134.298 39.2056 135.118C39.2056 135.359 39.1875 135.594 39.1513 135.823C39.1272 136.04 39.1031 136.203 39.079 136.311H32.2798V134.521H37.2888L36.8729 135.027C36.8729 134.304 36.7162 133.761 36.4027 133.4C36.1014 133.026 35.6553 132.839 35.0646 132.839C34.6306 132.839 34.2509 132.936 33.9254 133.128C33.5999 133.321 33.3467 133.617 33.1659 134.015C32.9851 134.412 32.8947 134.913 32.8947 135.515C32.8947 136.13 33.0032 136.637 33.2202 137.034C33.4372 137.42 33.7506 137.709 34.1605 137.902C34.5703 138.095 35.0646 138.192 35.6433 138.192C36.0531 138.192 36.4389 138.137 36.8006 138.029C37.1743 137.92 37.5601 137.764 37.9579 137.559L38.8439 139.168C38.3256 139.494 37.7529 139.753 37.1261 139.946C36.4992 140.127 35.8844 140.217 35.2816 140.217ZM44.2075 140.217C43.6047 140.217 43.0803 140.096 42.6343 139.855C42.2003 139.614 41.8627 139.289 41.6216 138.879C41.3805 138.469 41.26 138.011 41.26 137.505C41.26 136.504 41.7121 135.738 42.6162 135.208C43.5324 134.678 45.0514 134.352 47.1731 134.232C47.1369 133.954 47.0465 133.719 46.9018 133.526C46.7572 133.333 46.5462 133.189 46.2689 133.092C46.0037 132.984 45.6662 132.93 45.2563 132.93C44.967 132.93 44.6776 132.966 44.3883 133.038C44.099 133.098 43.7976 133.195 43.4842 133.327C43.1828 133.448 42.8633 133.593 42.5258 133.761L41.5855 132.025C41.9954 131.784 42.4233 131.573 42.8694 131.393C43.3275 131.212 43.7976 131.073 44.2798 130.977C44.7741 130.868 45.2744 130.814 45.7807 130.814C46.6246 130.814 47.3479 130.965 47.9507 131.266C48.5534 131.555 49.0175 132.001 49.343 132.604C49.6685 133.195 49.8313 133.948 49.8313 134.864V140H47.6613L47.4624 138.987H47.3901C46.944 139.325 46.4498 139.614 45.9073 139.855C45.3648 140.096 44.7982 140.217 44.2075 140.217ZM45.0574 138.156C45.4552 138.156 45.8289 138.077 46.1785 137.92C46.5281 137.752 46.8597 137.547 47.1731 137.306V135.823C46.2931 135.871 45.6059 135.961 45.1116 136.094C44.6294 136.227 44.2919 136.395 44.099 136.6C43.9061 136.805 43.8097 137.04 43.8097 137.306C43.8097 137.486 43.8579 137.643 43.9543 137.776C44.0628 137.908 44.2075 138.005 44.3883 138.065C44.5812 138.125 44.8042 138.156 45.0574 138.156ZM58.0158 140.217C57.0634 140.217 56.3039 140.054 55.7373 139.729C55.1828 139.391 54.7789 138.927 54.5258 138.336C54.2726 137.746 54.146 137.059 54.146 136.275V133.11H51.9037V131.139L54.2726 131.031L54.6162 128.282H56.8042V131.031H60.6016V133.11H56.8042V136.257C56.8042 136.703 56.8705 137.065 57.0031 137.342C57.1357 137.619 57.3407 137.824 57.6179 137.957C57.8952 138.077 58.2508 138.137 58.6848 138.137C59.0344 138.137 59.3539 138.107 59.6432 138.047C59.9326 137.987 60.2098 137.908 60.475 137.812L60.9452 139.729C60.5474 139.849 60.1074 139.958 59.6251 140.054C59.155 140.163 58.6185 140.217 58.0158 140.217ZM66.8693 140V133.11H63.2527V131.031H69.5275V140H66.8693ZM68.0809 129.62C67.5746 129.62 67.1526 129.476 66.8151 129.186C66.4775 128.885 66.3087 128.493 66.3087 128.011C66.3087 127.517 66.4775 127.119 66.8151 126.818C67.1526 126.504 67.5746 126.347 68.0809 126.347C68.5992 126.347 69.0212 126.504 69.3467 126.818C69.6842 127.119 69.853 127.517 69.853 128.011C69.853 128.493 69.6842 128.885 69.3467 129.186C69.0212 129.476 68.5992 129.62 68.0809 129.62ZM76.627 140L73.2455 131.031H75.9218L77.3322 135.262C77.4769 135.708 77.6155 136.16 77.7482 136.618C77.8808 137.077 78.0134 137.547 78.146 138.029H78.2183C78.3509 137.547 78.4775 137.077 78.5981 136.618C78.7307 136.16 78.8693 135.708 79.014 135.262L80.4244 131.031H82.9741L79.683 140H76.627ZM88.5547 140V133.11H84.9381V131.031H91.2128V140H88.5547ZM89.7662 129.62C89.2599 129.62 88.838 129.476 88.5004 129.186C88.1629 128.885 87.9941 128.493 87.9941 128.011C87.9941 127.517 88.1629 127.119 88.5004 126.818C88.838 126.504 89.2599 126.347 89.7662 126.347C90.2846 126.347 90.7065 126.504 91.032 126.818C91.3696 127.119 91.5383 127.517 91.5383 128.011C91.5383 128.493 91.3696 128.885 91.032 129.186C90.7065 129.476 90.2846 129.62 89.7662 129.62ZM98.9995 140.217C97.8663 140.217 96.9501 139.801 96.2509 138.969C95.5638 138.125 95.2202 136.974 95.2202 135.515C95.2202 134.539 95.401 133.701 95.7627 133.002C96.1364 132.303 96.6186 131.766 97.2093 131.393C97.8 131.007 98.4148 130.814 99.0538 130.814C99.548 130.814 99.976 130.898 100.338 131.067C100.699 131.236 101.025 131.471 101.314 131.772H101.386L101.26 130.38V127.324H103.918V140H101.748L101.549 139.078H101.495C101.169 139.403 100.784 139.675 100.338 139.892C99.9037 140.108 99.4576 140.217 98.9995 140.217ZM99.6867 138.047C99.988 138.047 100.265 137.987 100.518 137.866C100.784 137.734 101.031 137.517 101.26 137.215V133.581C101.019 133.364 100.772 133.213 100.518 133.128C100.277 133.032 100.024 132.984 99.759 132.984C99.4335 132.984 99.1321 133.074 98.8549 133.255C98.5776 133.436 98.3546 133.713 98.1858 134.087C98.0291 134.449 97.9507 134.913 97.9507 135.479C97.9507 136.359 98.1014 137.01 98.4028 137.432C98.7042 137.842 99.1321 138.047 99.6867 138.047ZM109.264 140.217C108.661 140.217 108.136 140.096 107.69 139.855C107.256 139.614 106.919 139.289 106.678 138.879C106.437 138.469 106.316 138.011 106.316 137.505C106.316 136.504 106.768 135.738 107.672 135.208C108.588 134.678 110.107 134.352 112.229 134.232C112.193 133.954 112.103 133.719 111.958 133.526C111.813 133.333 111.602 133.189 111.325 133.092C111.06 132.984 110.722 132.93 110.312 132.93C110.023 132.93 109.734 132.966 109.444 133.038C109.155 133.098 108.854 133.195 108.54 133.327C108.239 133.448 107.919 133.593 107.582 133.761L106.642 132.025C107.051 131.784 107.479 131.573 107.925 131.393C108.384 131.212 108.854 131.073 109.336 130.977C109.83 130.868 110.33 130.814 110.837 130.814C111.681 130.814 112.404 130.965 113.007 131.266C113.609 131.555 114.074 132.001 114.399 132.604C114.725 133.195 114.887 133.948 114.887 134.864V140H112.717L112.518 138.987H112.446C112 139.325 111.506 139.614 110.963 139.855C110.421 140.096 109.854 140.217 109.264 140.217ZM110.113 138.156C110.511 138.156 110.885 138.077 111.235 137.92C111.584 137.752 111.916 137.547 112.229 137.306V135.823C111.349 135.871 110.662 135.961 110.168 136.094C109.685 136.227 109.348 136.395 109.155 136.6C108.962 136.805 108.866 137.04 108.866 137.306C108.866 137.486 108.914 137.643 109.01 137.776C109.119 137.908 109.264 138.005 109.444 138.065C109.637 138.125 109.86 138.156 110.113 138.156ZM120.685 140.217C119.552 140.217 118.635 139.801 117.936 138.969C117.249 138.125 116.906 136.974 116.906 135.515C116.906 134.539 117.086 133.701 117.448 133.002C117.822 132.303 118.304 131.766 118.895 131.393C119.485 131.007 120.1 130.814 120.739 130.814C121.233 130.814 121.661 130.898 122.023 131.067C122.385 131.236 122.71 131.471 122.999 131.772H123.072L122.945 130.38V127.324H125.603V140H123.433L123.235 139.078H123.18C122.855 139.403 122.469 139.675 122.023 139.892C121.589 140.108 121.143 140.217 120.685 140.217ZM121.372 138.047C121.673 138.047 121.951 137.987 122.204 137.866C122.469 137.734 122.716 137.517 122.945 137.215V133.581C122.704 133.364 122.457 133.213 122.204 133.128C121.963 133.032 121.71 132.984 121.444 132.984C121.119 132.984 120.817 133.074 120.54 133.255C120.263 133.436 120.04 133.713 119.871 134.087C119.714 134.449 119.636 134.913 119.636 135.479C119.636 136.359 119.787 137.01 120.088 137.432C120.39 137.842 120.817 138.047 121.372 138.047Z" fill="#6946B3"/>
<defs>
<clipPath id="clip0_85_1478">
<rect width="59.192" height="59.192" fill="white" transform="translate(32.6843 16.7334)"/>
</clipPath>
</defs>
</svg>
