<svg width="124" height="123" viewBox="0 0 124 123" fill="none" xmlns="http://www.w3.org/2000/svg">
<g filter="url(#filter0_d_85_2382)">
<path d="M34.3756 113.51L37.9805 113.509L39.6954 100.741L34.375 100.741L34.3756 113.51Z" fill="#FFB6B6"/>
<path d="M33.8428 112.977L40.6666 112.977H40.6669C41.8202 112.977 42.9262 113.411 43.7417 114.184C44.5573 114.957 45.0154 116.005 45.0155 117.098V117.232L33.843 117.233L33.8428 112.977Z" fill="#CFFD99"/>
<path d="M7.77372 113.51L11.0182 113.509L12.5615 100.741L7.77319 100.741L7.77372 113.51Z" fill="#FFB6B6"/>
<path d="M6.70923 112.977L13.2081 112.977H13.2084C14.3068 112.977 15.3601 113.411 16.1368 114.184C16.9135 114.957 17.3499 116.005 17.3499 117.098V117.232L6.70942 117.233L6.70923 112.977Z" fill="#CFFD99"/>
<path d="M13.409 59.2412L11.0873 61.366L8.47063 87.0353L6.70923 107.475L12.0322 108.189L24.9434 73.265L34.3905 108.023L40.7595 108.189L36.5323 62.8174L13.409 59.2412Z" fill="#CFFD99"/>
<path d="M24.5323 20.9352C28.2052 20.9352 31.1827 17.9577 31.1827 14.2847C31.1827 10.6118 28.2052 7.63428 24.5323 7.63428C20.8593 7.63428 17.8818 10.6118 17.8818 14.2847C17.8818 17.9577 20.8593 20.9352 24.5323 20.9352Z" fill="#FFB9B9"/>
<path d="M20.9987 11.2768C20.9987 11.2768 20.1965 13.0068 23.4055 12.3148C23.4055 12.3148 24.6089 13.0068 24.6089 11.9688C24.6089 11.9688 26.2134 13.6988 26.6145 12.6608C27.0156 11.6228 27.8179 13.0068 27.8179 13.0068L28.6201 11.2768L29.4224 12.3148H32.2302C32.2302 12.3148 33.0325 5.39472 23.4055 6.08673C13.7785 6.77874 18.5145 17.7429 18.5145 17.7429C18.5145 17.7429 18.592 15.7748 19.3942 16.8128C20.1965 17.8508 20.9987 11.2768 20.9987 11.2768Z" fill="#6946B3"/>
<path d="M29.6502 23.1153L20.2723 22.5312L11.9154 24.7367L13.1821 46.1616L10.9653 61.285C10.9653 61.285 23.128 68.6819 36.9337 62.8603L35.6225 59.4283C35.6225 59.4283 35.5773 54.1756 34.4696 53.1474C33.362 52.1192 33.4502 43.641 33.4502 43.641L37.5671 27.8875L29.6502 23.1153Z" fill="#CFFD99"/>
<path d="M14.1749 25.3519L11.8991 24.6592C11.8991 24.6592 8.35481 24.7775 6.51194 28.809C4.66907 32.8405 3.51685 38.601 3.51685 38.601L15.2216 39.0241L14.1749 25.3519Z" fill="#CFFD99"/>
<path d="M40.6841 62.9593L40.3185 39.5562L35.439 40.3023L36.5167 62.4751C36.0731 62.8463 35.7466 63.3424 35.5779 63.9016C35.4093 64.4607 35.406 65.0581 35.5684 65.6192C35.7308 66.1803 36.0518 66.6801 36.4912 67.0564C36.9307 67.4327 37.4691 67.6687 38.0394 67.7349C38.6096 67.8011 39.1863 67.6947 39.6976 67.4289C40.2088 67.1631 40.6319 66.7496 40.9141 66.2402C41.1962 65.7308 41.3248 65.1479 41.2839 64.5644C41.243 63.9809 41.0344 63.4226 40.6841 62.9593Z" fill="#FFB9B9"/>
<path d="M34.7202 29.839L37.5095 27.8516C37.5095 27.8516 42.8692 31.9524 42.8874 40.9744L35.4102 42.7486L31.1826 36.7998L34.7202 29.839Z" fill="#CFFD99"/>
<path d="M107.961 34.7681H18.7806C18.1036 34.7681 17.4333 34.901 16.8078 35.1593C16.1824 35.4176 15.6141 35.7961 15.1354 36.2734C14.6567 36.7506 14.277 37.3172 14.0179 37.9408C13.7588 38.5643 13.6255 39.2326 13.6255 39.9075V61.2906C13.6255 61.9655 13.7588 62.6338 14.0179 63.2574C14.277 63.8809 14.6567 64.4475 15.1354 64.9248C15.6141 65.402 16.1824 65.7806 16.8078 66.0389C17.4333 66.2971 18.1036 66.4301 18.7806 66.4301H20.0896V70.2933C20.0896 70.5277 20.1593 70.7569 20.2899 70.9518C20.4206 71.1467 20.6063 71.2986 20.8235 71.3883C21.0407 71.478 21.2798 71.5015 21.5104 71.4558C21.741 71.41 21.9528 71.2971 22.1191 71.1314L26.8347 66.4301H107.961C108.638 66.4301 109.308 66.2971 109.934 66.0389C110.559 65.7806 111.128 65.402 111.606 64.9248C112.085 64.4475 112.465 63.8809 112.724 63.2574C112.983 62.6338 113.116 61.9655 113.116 61.2906V39.9075C113.116 39.2326 112.983 38.5643 112.724 37.9408C112.465 37.3172 112.085 36.7506 111.606 36.2734C111.128 35.7961 110.559 35.4176 109.934 35.1593C109.308 34.901 108.638 34.7681 107.961 34.7681Z" fill="#E6E6E6"/>
<path d="M86.5178 63.4975H18.7714C18.1124 63.4968 17.4805 63.2381 17.0145 62.7784C16.5485 62.3186 16.2864 61.6953 16.2856 61.045V39.88C16.2864 39.2299 16.5485 38.6066 17.0145 38.1468C17.4805 37.6871 18.1123 37.4285 18.7713 37.4277H107.97C108.629 37.4285 109.261 37.6871 109.727 38.1468C110.193 38.6066 110.455 39.23 110.456 39.8802C110.449 46.1417 107.924 52.1448 103.437 56.5724C98.949 60.9999 92.8644 63.4904 86.5178 63.4975Z" fill="white"/>
<path d="M82.1707 42.2163H44.571C43.6412 42.2163 42.8875 42.9309 42.8875 43.8124V43.8124C42.8875 44.6939 43.6412 45.4085 44.571 45.4085H82.1707C83.1005 45.4085 83.8542 44.6939 83.8542 43.8124C83.8542 42.9309 83.1005 42.2163 82.1707 42.2163Z" fill="#6946B3"/>
<path d="M90.1366 48.6011H36.0733C35.1354 48.6011 34.375 49.3157 34.375 50.1972V50.1972C34.375 51.0787 35.1354 51.7933 36.0733 51.7933H90.1366C91.0745 51.7933 91.8349 51.0787 91.8349 50.1972C91.8349 49.3157 91.0745 48.6011 90.1366 48.6011Z" fill="#E6E6E6"/>
<path d="M90.1366 55.5171H36.0733C35.1354 55.5171 34.375 56.2317 34.375 57.1132V57.1132C34.375 57.9947 35.1354 58.7093 36.0733 58.7093H90.1366C91.0745 58.7093 91.8349 57.9947 91.8349 57.1132C91.8349 56.2317 91.0745 55.5171 90.1366 55.5171Z" fill="#E6E6E6"/>
<path d="M52.4892 0.185547H117.348C117.84 0.185546 118.328 0.281876 118.782 0.469037C119.237 0.656199 119.651 0.930529 119.999 1.27636C120.347 1.62219 120.623 2.03275 120.811 2.4846C121 2.93645 121.097 3.42073 121.097 3.90981V19.4048C121.097 19.8939 121 20.3781 120.811 20.83C120.623 21.2818 120.347 21.6924 119.999 22.0382C119.651 22.3841 119.237 22.6584 118.782 22.8456C118.328 23.0327 117.84 23.129 117.348 23.129H116.396V25.9285C116.396 26.0983 116.345 26.2644 116.25 26.4056C116.155 26.5469 116.02 26.657 115.862 26.722C115.704 26.787 115.53 26.804 115.362 26.7708C115.195 26.7377 115.041 26.6559 114.92 26.5358L111.49 23.129H52.4892C51.9968 23.129 51.5093 23.0327 51.0544 22.8456C50.5995 22.6584 50.1862 22.3841 49.8381 22.0382C49.49 21.6924 49.2138 21.2818 49.0254 20.83C48.837 20.3781 48.74 19.8939 48.74 19.4048V3.90981C48.74 3.42073 48.837 2.93645 49.0254 2.4846C49.2138 2.03275 49.49 1.62219 49.8381 1.27636C50.1862 0.930529 50.5995 0.656199 51.0544 0.469037C51.5093 0.281876 51.9968 0.185547 52.4892 0.185547Z" fill="#E6E6E6"/>
<path d="M117.134 20.935H68.1984C63.6037 20.9299 59.1987 19.1034 55.9497 15.8565C52.7007 12.6095 50.8732 8.20714 50.8679 3.6152C50.8685 3.12912 51.0619 2.66311 51.4058 2.31939C51.7497 1.97566 52.216 1.78231 52.7023 1.78174H117.134C117.62 1.78228 118.087 1.9756 118.431 2.3193C118.775 2.663 118.968 3.129 118.969 3.61506V19.1017C118.968 19.5878 118.775 20.0538 118.431 20.3975C118.087 20.7412 117.62 20.9345 117.134 20.935Z" fill="white"/>
<path d="M71.2238 7.63428L98.0807 7.63428C98.7448 7.63428 99.2832 7.03877 99.2832 6.30419C99.2832 5.5696 98.7448 4.9741 98.0807 4.9741L71.2238 4.9741C70.5596 4.9741 70.0212 5.5696 70.0212 6.30419C70.0212 7.03877 70.5596 7.63428 71.2238 7.63428Z" fill="#6946B3"/>
<path d="M65.3796 12.4224L103.925 12.4224C104.593 12.4224 105.135 11.8269 105.135 11.0923C105.135 10.3577 104.593 9.76218 103.925 9.76218L65.3796 9.76218C64.7108 9.76218 64.1687 10.3577 64.1687 11.0923C64.1687 11.8269 64.7108 12.4224 65.3796 12.4224Z" fill="#E6E6E6"/>
<path d="M65.3796 17.7427L103.925 17.7427C104.593 17.7427 105.135 17.1472 105.135 16.4126C105.135 15.678 104.593 15.0825 103.925 15.0825L65.3796 15.0825C64.7108 15.0825 64.1687 15.678 64.1687 16.4126C64.1687 17.1472 64.7108 17.7427 65.3796 17.7427Z" fill="#E6E6E6"/>
<path d="M22.67 34.103C22.67 33.2917 22.3575 32.5136 21.8012 31.9399C21.2449 31.3662 20.4904 31.0439 19.7037 31.0439C18.917 31.0439 18.1625 31.3662 17.6062 31.9399C17.0499 32.5136 16.7374 33.2917 16.7374 34.103C16.7374 34.1329 16.7408 34.1618 16.7416 34.1915L11.5391 39.5567L11.9348 38.6188L6.00215 38.3275L5.1367 44.7871C5.06088 45.3835 5.16644 45.9894 5.43882 46.5212C5.7112 47.053 6.13695 47.4845 6.65729 47.7561C7.17764 48.0277 7.76691 48.126 8.34375 48.0374C8.92059 47.9489 9.45655 47.6778 9.87763 47.2617L20.1327 37.1265C20.8372 37.0208 21.4812 36.6571 21.9471 36.1019C22.413 35.5468 22.6696 34.8372 22.67 34.103Z" fill="#FFB9B9"/>
</g>
<defs>
<filter id="filter0_d_85_2382" x="0.666423" y="0.185547" width="123.281" height="122.748" filterUnits="userSpaceOnUse" color-interpolation-filters="sRGB">
<feFlood flood-opacity="0" result="BackgroundImageFix"/>
<feColorMatrix in="SourceAlpha" type="matrix" values="0 0 0 0 0 0 0 0 0 0 0 0 0 0 0 0 0 0 127 0" result="hardAlpha"/>
<feOffset dy="2.85042"/>
<feGaussianBlur stdDeviation="1.42521"/>
<feComposite in2="hardAlpha" operator="out"/>
<feColorMatrix type="matrix" values="0 0 0 0 0 0 0 0 0 0 0 0 0 0 0 0 0 0 0.25 0"/>
<feBlend mode="normal" in2="BackgroundImageFix" result="effect1_dropShadow_85_2382"/>
<feBlend mode="normal" in="SourceGraphic" in2="effect1_dropShadow_85_2382" result="shape"/>
</filter>
</defs>
</svg>
