<svg width="129" height="75" viewBox="0 0 129 75" fill="none" xmlns="http://www.w3.org/2000/svg">
<g filter="url(#filter0_d_85_2231)">
<path d="M117.162 1.82798H73.4166V0.960938H53.5807V1.82798H9.65486C9.26627 1.82798 8.88148 1.90158 8.52247 2.04458C8.16347 2.18758 7.83726 2.39718 7.56249 2.66141C7.28771 2.92565 7.06975 3.23933 6.92104 3.58457C6.77234 3.9298 6.6958 4.29983 6.6958 4.67351V62.2764C6.6958 63.0311 7.00756 63.7549 7.56249 64.2885C8.11742 64.8222 8.87006 65.122 9.65486 65.122H117.162C117.947 65.122 118.7 64.8222 119.255 64.2885C119.809 63.7549 120.121 63.0311 120.121 62.2764V4.67351C120.121 4.29983 120.045 3.9298 119.896 3.58457C119.747 3.23933 119.529 2.92565 119.255 2.66141C118.98 2.39718 118.654 2.18758 118.295 2.04458C117.936 1.90158 117.551 1.82798 117.162 1.82798Z" fill="#6946B3"/>
<path d="M116.154 6.85645H10.6628V64.0811H116.154V6.85645Z" fill="#F9F9F9"/>
<path d="M63.3183 5.2963C63.9159 5.2963 64.4003 4.83046 64.4003 4.25581C64.4003 3.68117 63.9159 3.21533 63.3183 3.21533C62.7208 3.21533 62.2363 3.68117 62.2363 4.25581C62.2363 4.83046 62.7208 5.2963 63.3183 5.2963Z" fill="#6C63FF"/>
<path d="M85.9852 64.0811H10.6628V6.85645L85.9852 64.0811Z" fill="#CFFD99"/>
<path d="M97.7865 54.1582H87.9321V56.1383H97.7865V54.1582Z" fill="#6946B3"/>
<path d="M109.699 38.7422H76.019V39.5908H109.699V38.7422Z" fill="#6946B3"/>
<path d="M109.699 41.4287H76.019V42.2773H109.699V41.4287Z" fill="#6946B3"/>
<path d="M109.699 44.1167H76.019V44.9653H109.699V44.1167Z" fill="#6946B3"/>
<path d="M109.699 46.8037H76.019V47.6523H109.699V46.8037Z" fill="#6946B3"/>
<path d="M109.699 49.4912H76.019V50.3398H109.699V49.4912Z" fill="#6946B3"/>
<path fill-rule="evenodd" clip-rule="evenodd" d="M70.1302 50.8007C68.8554 49.5748 68.8554 47.5871 70.1302 46.3611L80.8799 36.0238L70.1302 25.6865C68.8554 24.4606 68.8554 22.4729 70.1302 21.2469C71.4051 20.021 73.4721 20.021 74.747 21.2469L87.805 33.804C89.0799 35.03 89.0799 37.0177 87.805 38.2436L74.747 50.8007C73.4721 52.0267 71.4051 52.0267 70.1302 50.8007Z" fill="#6946B3"/>
<path fill-rule="evenodd" clip-rule="evenodd" d="M55.2816 21.2481C56.5565 22.474 56.5565 24.4617 55.2816 25.6877L44.5319 36.025L55.2816 46.3623C56.5565 47.5882 56.5565 49.5759 55.2816 50.8019C54.0068 52.0278 51.9398 52.0278 50.6649 50.8019L37.6068 38.2448C36.332 37.0188 36.332 35.0311 37.6068 33.8052L50.6649 21.2481C51.9398 20.0221 54.0068 20.0221 55.2816 21.2481Z" fill="#6946B3"/>
<path d="M109.699 8.01758H105.581V11.9778H109.699V8.01758Z" fill="#CFFD99"/>
<path d="M111.611 13.8167H106.61V9.00781H111.611V13.8167ZM106.828 13.6076H111.394V9.2169H106.828V13.6076Z" fill="#6946B3"/>
<path d="M123.083 63.0408H112.788V62.3275C112.788 62.3089 112.784 62.2905 112.777 62.2733C112.769 62.2562 112.758 62.2406 112.745 62.2275C112.731 62.2143 112.715 62.2039 112.697 62.1968C112.679 62.1897 112.66 62.186 112.641 62.186H109.111C109.092 62.186 109.072 62.1897 109.055 62.1968C109.037 62.2039 109.021 62.2143 109.007 62.2275C108.993 62.2406 108.982 62.2562 108.975 62.2733C108.968 62.2905 108.964 62.3089 108.964 62.3275V63.0408H106.758V62.3275C106.758 62.3089 106.754 62.2905 106.747 62.2733C106.739 62.2562 106.728 62.2406 106.715 62.2275C106.701 62.2143 106.685 62.2039 106.667 62.1968C106.649 62.1897 106.63 62.186 106.611 62.186H103.081C103.062 62.186 103.042 62.1897 103.025 62.1968C103.007 62.2039 102.991 62.2143 102.977 62.2275C102.963 62.2406 102.952 62.2562 102.945 62.2733C102.938 62.2905 102.934 62.3089 102.934 62.3275V63.0408H100.728V62.3275C100.728 62.3089 100.724 62.2905 100.716 62.2733C100.709 62.2562 100.698 62.2406 100.685 62.2275C100.671 62.2143 100.655 62.2039 100.637 62.1968C100.619 62.1897 100.6 62.186 100.581 62.186H97.0508C97.0315 62.186 97.0124 62.1897 96.9945 62.1968C96.9767 62.2039 96.9604 62.2143 96.9468 62.2275C96.9331 62.2406 96.9223 62.2562 96.9149 62.2733C96.9075 62.2905 96.9037 62.3089 96.9037 62.3275V63.0408H94.6976V62.3275C94.6976 62.3089 94.6938 62.2905 94.6864 62.2733C94.679 62.2562 94.6682 62.2406 94.6545 62.2275C94.6408 62.2143 94.6246 62.2039 94.6068 62.1968C94.589 62.1897 94.5698 62.186 94.5505 62.186H91.0207C91.0014 62.186 90.9823 62.1897 90.9644 62.1968C90.9466 62.2039 90.9304 62.2143 90.9167 62.2275C90.9031 62.2406 90.8922 62.2562 90.8848 62.2733C90.8774 62.2905 90.8736 62.3089 90.8736 62.3275V63.0408H88.6675V62.3275C88.6675 62.3089 88.6637 62.2905 88.6563 62.2733C88.6489 62.2562 88.6381 62.2406 88.6244 62.2275C88.6108 62.2143 88.5946 62.2039 88.5767 62.1968C88.5589 62.1897 88.5398 62.186 88.5204 62.186H84.9906C84.9713 62.186 84.9522 62.1897 84.9344 62.1968C84.9165 62.2039 84.9003 62.2143 84.8867 62.2275C84.873 62.2406 84.8622 62.2562 84.8548 62.2733C84.8474 62.2905 84.8436 62.3089 84.8436 62.3275V63.0408H82.6375V62.3275C82.6375 62.3089 82.6336 62.2905 82.6263 62.2733C82.6189 62.2562 82.608 62.2406 82.5944 62.2275C82.5807 62.2143 82.5645 62.2039 82.5467 62.1968C82.5288 62.1897 82.5097 62.186 82.4904 62.186H78.9606C78.9413 62.186 78.9221 62.1897 78.9043 62.1968C78.8864 62.2039 78.8702 62.2143 78.8566 62.2275C78.8429 62.2406 78.8321 62.2562 78.8247 62.2733C78.8173 62.2905 78.8135 62.3089 78.8135 62.3275V63.0408H76.6074V62.3275C76.6074 62.3089 76.6036 62.2905 76.5962 62.2733C76.5888 62.2562 76.578 62.2406 76.5643 62.2275C76.5506 62.2143 76.5344 62.2039 76.5166 62.1968C76.4987 62.1897 76.4796 62.186 76.4603 62.186H48.8102C48.7909 62.186 48.7718 62.1897 48.7539 62.1968C48.7361 62.2039 48.7199 62.2143 48.7062 62.2275C48.6926 62.2406 48.6817 62.2562 48.6744 62.2733C48.667 62.2905 48.6632 62.3089 48.6632 62.3275V63.0408H46.457V62.3275C46.457 62.3089 46.4532 62.2905 46.4458 62.2733C46.4384 62.2562 46.4276 62.2406 46.414 62.2275C46.4003 62.2143 46.3841 62.2039 46.3662 62.1968C46.3484 62.1897 46.3293 62.186 46.31 62.186H42.7802C42.7608 62.186 42.7417 62.1897 42.7239 62.1968C42.706 62.2039 42.6898 62.2143 42.6762 62.2275C42.6625 62.2406 42.6517 62.2562 42.6443 62.2733C42.6369 62.2905 42.6331 62.3089 42.6331 62.3275V63.0408H40.427V62.3275C40.427 62.3089 40.4232 62.2905 40.4158 62.2733C40.4084 62.2562 40.3975 62.2406 40.3839 62.2275C40.3702 62.2143 40.354 62.2039 40.3362 62.1968C40.3183 62.1897 40.2992 62.186 40.2799 62.186H36.7501C36.7308 62.186 36.7117 62.1897 36.6938 62.1968C36.676 62.2039 36.6597 62.2143 36.6461 62.2275C36.6324 62.2406 36.6216 62.2562 36.6142 62.2733C36.6068 62.2905 36.603 62.3089 36.603 62.3275V63.0408H34.3969V62.3275C34.3969 62.3089 34.3931 62.2905 34.3857 62.2733C34.3783 62.2562 34.3675 62.2406 34.3538 62.2275C34.3402 62.2143 34.3239 62.2039 34.3061 62.1968C34.2883 62.1897 34.2691 62.186 34.2498 62.186H30.72C30.7007 62.186 30.6816 62.1897 30.6637 62.1968C30.6459 62.2039 30.6297 62.2143 30.616 62.2275C30.6024 62.2406 30.5915 62.2562 30.5841 62.2733C30.5767 62.2905 30.5729 62.3089 30.5729 62.3275V63.0408H28.3668V62.3275C28.3668 62.3089 28.363 62.2905 28.3556 62.2733C28.3482 62.2562 28.3374 62.2406 28.3238 62.2275C28.3101 62.2143 28.2939 62.2039 28.276 62.1968C28.2582 62.1897 28.2391 62.186 28.2198 62.186H24.69C24.6706 62.186 24.6515 62.1897 24.6337 62.1968C24.6158 62.2039 24.5996 62.2143 24.586 62.2275C24.5723 62.2406 24.5615 62.2562 24.5541 62.2733C24.5467 62.2905 24.5429 62.3089 24.5429 62.3275V63.0408H22.3368V62.3275C22.3368 62.3089 22.333 62.2905 22.3256 62.2733C22.3182 62.2562 22.3073 62.2406 22.2937 62.2275C22.28 62.2143 22.2638 62.2039 22.246 62.1968C22.2281 62.1897 22.209 62.186 22.1897 62.186H18.6599C18.6406 62.186 18.6214 62.1897 18.6036 62.1968C18.5858 62.2039 18.5695 62.2143 18.5559 62.2275C18.5422 62.2406 18.5314 62.2562 18.524 62.2733C18.5166 62.2905 18.5128 62.3089 18.5128 62.3275V63.0408H16.3067V62.3275C16.3067 62.3089 16.3029 62.2905 16.2955 62.2733C16.2881 62.2562 16.2773 62.2406 16.2636 62.2275C16.25 62.2143 16.2337 62.2039 16.2159 62.1968C16.1981 62.1897 16.1789 62.186 16.1596 62.186H12.6298C12.6105 62.186 12.5914 62.1897 12.5735 62.1968C12.5557 62.2039 12.5395 62.2143 12.5258 62.2275C12.5122 62.2406 12.5013 62.2562 12.4939 62.2733C12.4865 62.2905 12.4827 62.3089 12.4827 62.3275V63.0408H5.7173C4.78114 63.0408 3.88332 63.3984 3.22135 64.035C2.55939 64.6715 2.1875 65.5349 2.1875 66.4351V67.97C2.1875 68.8702 2.55939 69.7336 3.22136 70.3702C3.88332 71.0067 4.78114 71.3644 5.7173 71.3644H123.083C124.019 71.3644 124.917 71.0067 125.579 70.3702C126.241 69.7336 126.613 68.8702 126.613 67.97V66.4351C126.613 65.5349 126.241 64.6715 125.579 64.035C124.917 63.3984 124.019 63.0408 123.083 63.0408Z" fill="#6946B3"/>
</g>
<defs>
<filter id="filter0_d_85_2231" x="0.425628" y="0.960938" width="127.949" height="73.9271" filterUnits="userSpaceOnUse" color-interpolation-filters="sRGB">
<feFlood flood-opacity="0" result="BackgroundImageFix"/>
<feColorMatrix in="SourceAlpha" type="matrix" values="0 0 0 0 0 0 0 0 0 0 0 0 0 0 0 0 0 0 127 0" result="hardAlpha"/>
<feOffset dy="1.76187"/>
<feGaussianBlur stdDeviation="0.880936"/>
<feComposite in2="hardAlpha" operator="out"/>
<feColorMatrix type="matrix" values="0 0 0 0 0 0 0 0 0 0 0 0 0 0 0 0 0 0 0.25 0"/>
<feBlend mode="normal" in2="BackgroundImageFix" result="effect1_dropShadow_85_2231"/>
<feBlend mode="normal" in="SourceGraphic" in2="effect1_dropShadow_85_2231" result="shape"/>
</filter>
</defs>
</svg>
