<svg width="115" height="180" viewBox="0 0 115 180" fill="none" xmlns="http://www.w3.org/2000/svg">
<path d="M20.9971 84.2748C23.3497 96.8405 35.4439 105.122 48.0147 102.765C51.817 102.052 55.2281 100.447 58.0673 98.2049L71.933 115.903C73.6837 117.79 77.0945 117.8 78.8402 115.903C80.4705 114.133 81.5452 111.04 79.7995 109.38L62.3863 93.7355C66.0582 88.7493 67.7336 82.3134 66.5047 75.7471C64.152 63.1814 52.0578 54.8995 39.487 57.2571C26.9163 59.6148 18.6394 71.704 20.9971 84.2748ZM25.9331 83.3518C24.0921 73.5098 30.5731 64.0391 40.415 62.1982C50.257 60.3572 59.7277 66.8382 61.5686 76.6801C63.4096 86.5221 56.9286 95.9928 47.0867 97.8337C37.2448 99.6747 27.774 93.1937 25.9331 83.3518Z" fill="#6946B3"/>
<path d="M21.1468 12.2283L22.8111 15.96C21.4582 15.7447 20.2002 16.9 20.1719 18.3838C20.1436 19.8675 21.3503 21.4111 22.7032 21.622C22.4446 22.774 21.3289 23.2819 20.3603 23.7475C19.3918 24.213 18.348 24.9853 18.42 26.2127C18.4779 27.1983 19.2929 28.0684 20.1584 28.4183C21.0239 28.7681 21.932 28.7144 22.8085 28.6557C21.4803 30.0451 21.3508 32.6568 22.5173 34.5305C23.6838 36.4042 26.0134 37.3266 27.7578 36.6054C26.5253 38.1385 26.793 40.9462 28.3226 42.5285C29.8646 44.1235 32.0992 44.2779 34.0528 44.1098C39.0277 43.6892 43.768 41.8106 47.6805 38.7092C49.1739 37.5225 50.5689 36.1268 51.4209 34.3063C52.2728 32.4858 52.5239 30.1808 51.7303 28.1091C51.9443 30.7043 54.5419 32.7541 56.8787 32.8688C59.2155 32.9835 61.2558 31.6673 62.9896 30.1663C65.2953 28.1703 67.4301 25.3724 67.1137 21.9201C66.957 20.2111 66.2105 18.5674 65.4784 16.9753L64.059 13.8887C63.486 12.6426 62.9 11.3755 62.0375 10.3298C61.1751 9.28407 59.978 8.47456 58.7801 8.48225C59.054 7.23089 59.3291 5.9329 59.0996 4.60335C58.87 3.2738 57.9911 1.89717 56.7957 1.58582C55.2744 1.18956 53.9851 2.59348 52.4553 2.46114C50.9831 2.33378 49.7665 0.856296 48.3369 0.270863C47.7483 0.0163049 47.0983 -0.06106 46.4664 0.0482404C45.8345 0.157541 45.2481 0.448755 44.7792 0.886228C43.873 1.77092 43.4952 3.26565 43.8204 4.67996C44.1053 5.91889 44.8635 7.01161 45.3236 8.20647C45.7838 9.40133 45.8552 10.9377 44.9714 11.5903C43.905 12.3777 42.2818 11.3062 41.4486 10.0098C40.6154 8.7135 40.1371 7.14383 39.0835 6.0536C37.84 4.76687 35.8935 4.46532 34.6131 5.36106C33.3328 6.25681 32.8432 8.26275 33.4886 9.96789C34.0164 11.3621 35.2254 12.7725 34.8061 14.0854C34.3629 15.4729 32.4238 15.2972 31.2542 14.3166C30.0845 13.336 29.3079 11.8589 28.1525 10.8562C26.9791 9.83798 25.4467 9.39181 24.1016 9.67674C23.4192 9.83506 22.7877 10.1627 22.2653 10.6295C21.743 11.0962 21.3466 11.687 21.1128 12.3473" fill="url(#paint0_linear_85_1461)"/>
<path d="M53.999 134.673L53.9989 134.313C54.7143 134.313 55.4405 134.298 56.1575 134.269L56.1719 134.629C55.4501 134.658 54.7191 134.672 53.999 134.673ZM51.8267 134.631C51.1075 134.603 50.3777 134.56 49.6578 134.503L49.6861 134.144C50.4013 134.201 51.1263 134.244 51.8408 134.272L51.8267 134.631ZM58.3409 134.498L58.3122 134.14C59.0262 134.083 59.7488 134.01 60.4598 133.924L60.503 134.281C59.7872 134.368 59.0598 134.441 58.3409 134.498ZM47.4954 134.289C46.778 134.203 46.054 134.101 45.3434 133.987L45.4005 133.632C46.1063 133.745 46.8255 133.846 47.5381 133.931L47.4954 134.289ZM62.6544 133.978L62.597 133.622C63.3026 133.508 64.017 133.378 64.7204 133.235L64.792 133.587C64.0841 133.732 63.3648 133.863 62.6544 133.978ZM43.2054 133.599C42.4973 133.456 41.7839 133.296 41.0847 133.125L41.1702 132.776C41.8648 132.946 42.5735 133.104 43.2767 133.247L43.2054 133.599ZM66.9123 133.111L66.8263 132.761C67.5229 132.59 68.2244 132.402 68.9113 132.203L69.0115 132.549C68.3198 132.749 67.6136 132.938 66.9123 133.111ZM38.9848 132.566C38.2911 132.365 37.5928 132.148 36.9095 131.921L37.0232 131.58C37.7019 131.806 38.3955 132.021 39.0846 132.22L38.9848 132.566ZM71.0859 131.902L70.9719 131.561C71.6511 131.334 72.335 131.09 73.0049 130.835L73.1328 131.171C72.4583 131.428 71.7696 131.673 71.0859 131.902ZM34.8564 131.191C34.1815 130.935 33.5016 130.662 32.8356 130.378L32.9766 130.047C33.6381 130.329 34.3135 130.6 34.984 130.854L34.8564 131.191ZM75.1425 130.361L75.0013 130.03C75.659 129.749 76.3194 129.451 76.964 129.145L77.1186 129.47C76.4696 129.778 75.8047 130.078 75.1425 130.361ZM30.8498 129.484C30.1963 129.174 29.5411 128.846 28.9025 128.511L29.0699 128.192C29.7042 128.526 30.3549 128.851 31.004 129.159L30.8498 129.484ZM79.0579 128.499L78.8903 128.181C79.524 127.847 80.1587 127.497 80.7768 127.139L80.957 127.451C80.3348 127.811 79.6958 128.163 79.0579 128.499ZM26.9967 127.46C26.3697 127.097 25.7434 126.718 25.1353 126.333L25.3279 126.029C25.9319 126.411 26.554 126.788 27.1767 127.148L26.9967 127.46ZM82.8131 126.326L82.6206 126.022C83.2237 125.64 83.8285 125.24 84.4183 124.832L84.6228 125.128C84.0292 125.539 83.4202 125.942 82.8131 126.326ZM23.3213 125.132C22.7264 124.721 22.1329 124.293 21.5574 123.86L21.7737 123.573C22.3454 124.003 22.9349 124.428 23.5258 124.836L23.3213 125.132ZM86.3836 123.858L86.1672 123.571C86.7376 123.142 87.3088 122.694 87.8648 122.239L88.0925 122.518C87.5327 122.975 86.9577 123.426 86.3836 123.858ZM19.8463 122.518C19.2877 122.062 18.7307 121.588 18.1908 121.109L18.4293 120.84C18.9658 121.315 19.5191 121.786 20.074 122.24L19.8463 122.518ZM89.7467 121.11L89.5081 120.841C90.0441 120.366 90.5778 119.874 91.0943 119.378L91.3434 119.637C90.8236 120.136 90.2863 120.632 89.7467 121.11ZM16.5932 119.636C16.0743 119.137 15.5571 118.62 15.0564 118.1L15.3157 117.85C15.8132 118.368 16.3269 118.881 16.8425 119.376L16.5932 119.636ZM92.8805 118.101L92.6212 117.852C93.1171 117.336 93.6099 116.802 94.086 116.266L94.3551 116.504C93.8759 117.045 93.3798 117.582 92.8805 118.101ZM13.5824 116.504C13.1027 115.963 12.6288 115.407 12.1737 114.85L12.4523 114.622C12.9043 115.175 13.3751 115.728 13.8515 116.265L13.5824 116.504ZM95.765 114.85L95.4863 114.622C95.941 114.066 96.3897 113.495 96.8201 112.923L97.1075 113.139C96.6743 113.715 96.2224 114.29 95.765 114.85ZM10.8327 113.142C10.3992 112.566 9.97146 111.974 9.56159 111.382L9.85744 111.177C10.2646 111.766 10.6894 112.354 11.1201 112.926L10.8327 113.142ZM98.3807 111.376L98.0848 111.172C98.4935 110.581 98.8951 109.975 99.2782 109.37L99.5822 109.563C99.1964 110.171 98.7921 110.781 98.3807 111.376ZM8.36233 109.573C7.97679 108.965 7.59821 108.341 7.23701 107.718L7.54832 107.537C7.90705 108.156 8.28317 108.776 8.66608 109.38L8.36233 109.573ZM100.71 107.702L100.399 107.522C100.759 106.899 101.111 106.263 101.444 105.629L101.762 105.797C101.427 106.434 101.073 107.076 100.71 107.702ZM6.18767 105.819C5.85247 105.182 5.52553 104.53 5.21598 103.88L5.54081 103.725C5.84834 104.371 6.17309 105.019 6.506 105.651L6.18767 105.819ZM102.737 103.85L102.412 103.696C102.72 103.048 103.019 102.384 103.301 101.724L103.632 101.865C103.348 102.53 103.047 103.198 102.737 103.85ZM4.32359 101.905C4.04022 101.242 3.76721 100.566 3.51203 99.8951L3.84827 99.7672C4.10178 100.433 4.37295 101.105 4.65439 101.763L4.32359 101.905ZM104.446 99.8443L104.109 99.7168C104.364 99.0438 104.609 98.3577 104.836 97.678L105.177 97.7919C104.949 98.4763 104.703 99.1667 104.446 99.8443ZM2.78051 97.8488C2.55142 97.1648 2.3334 96.4669 2.13251 95.7745L2.47807 95.6744C2.67765 96.362 2.89417 97.0552 3.12168 97.7346L2.78051 97.8488ZM105.823 95.7165L105.477 95.6168C105.675 94.9302 105.863 94.2287 106.034 93.5314L106.383 93.6172C106.211 94.3192 106.022 95.0256 105.823 95.7165ZM1.56927 93.6757C1.39641 92.975 1.23575 92.262 1.09151 91.5559L1.44411 91.4839C1.58728 92.1852 1.7469 92.8937 1.91854 93.5896L1.56927 93.6757ZM106.859 91.4971L106.506 91.4254C106.648 90.7246 106.778 90.0101 106.893 89.3019L107.248 89.3592C107.133 90.0721 107.002 90.7913 106.859 91.4971ZM0.70001 89.4184C0.584666 88.7081 0.48208 87.9843 0.395115 87.267L0.752277 87.2238C0.838714 87.9364 0.940607 88.6552 1.05524 89.3608L0.70001 89.4184ZM107.55 87.2069L107.193 87.1641C107.279 86.4519 107.351 85.7293 107.407 85.0165L107.766 85.0449C107.709 85.7626 107.636 86.49 107.55 87.2069ZM0.177009 85.1053C0.118943 84.3866 0.074677 83.6569 0.0454264 82.9361L0.404867 82.9216C0.433941 83.6375 0.47795 84.3624 0.535565 85.0763L0.177009 85.1053ZM107.895 82.8761L107.536 82.8619C107.564 82.145 107.578 81.4189 107.578 80.7038L107.578 80.5846H107.938L107.938 80.703C107.938 81.4235 107.924 82.1544 107.895 82.8761ZM0.359792 80.7634H0L8.19972e-05 80.703C8.19972e-05 80.0011 0.0137135 79.2903 0.0406706 78.5912L0.400105 78.6051C0.373403 79.2997 0.35988 80.0057 0.35988 80.7038L0.359792 80.7634ZM107.531 78.4269C107.501 77.7125 107.456 76.9876 107.398 76.2724L107.757 76.2431C107.815 76.9631 107.86 77.6928 107.89 78.412L107.531 78.4269ZM0.526182 76.4503L0.167444 76.4222C0.224011 75.7017 0.295874 74.9742 0.3809 74.2597L0.738227 74.3022C0.653715 75.012 0.582388 75.7347 0.526182 76.4503ZM107.179 74.1251C107.092 73.4155 106.99 72.6966 106.874 71.9884L107.229 71.9304C107.345 72.6433 107.449 73.367 107.536 74.0815L107.179 74.1251ZM1.03618 72.1646L0.680946 72.1076C0.794964 71.3952 0.925056 70.6757 1.0678 69.9693L1.42038 70.0405C1.2787 70.7422 1.14949 71.4568 1.03618 72.1646ZM106.482 69.8657C106.338 69.1626 106.177 68.4544 106.005 67.7606L106.355 67.674C106.528 68.3725 106.689 69.0856 106.835 69.7933L106.482 69.8657ZM1.89008 67.9338L1.54056 67.8484C1.71167 67.1482 1.89965 66.4416 2.09922 65.7482L2.44496 65.8477C2.2467 66.5365 2.06006 67.2383 1.89008 67.9338ZM105.444 65.6765C105.243 64.9893 105.026 64.2963 104.798 63.6169L105.139 63.5024C105.369 64.1864 105.588 64.884 105.789 65.5758L105.444 65.6765ZM3.08391 63.786L2.74248 63.6725C2.97016 62.9874 3.21541 62.2966 3.47147 61.6191L3.80807 61.7463C3.55367 62.4193 3.31001 63.1055 3.08391 63.786ZM104.069 61.5852C103.813 60.9159 103.541 60.2447 103.261 59.5901L103.591 59.4484C103.874 60.1073 104.148 60.783 104.405 61.4567L104.069 61.5852ZM4.61435 59.7384L4.28319 59.5975C4.56594 58.9328 4.86637 58.2645 5.17601 57.6114L5.5011 57.7655C5.19348 58.4143 4.89517 59.0781 4.61435 59.7384ZM102.372 57.6287C102.064 56.9837 101.739 56.3362 101.405 55.704L101.723 55.536C102.059 56.1724 102.387 56.8243 102.697 57.4737L102.372 57.6287ZM6.467 55.8307L6.14831 55.6636C6.48368 55.0244 6.83697 54.383 7.19826 53.7571L7.50992 53.937C7.15099 54.5586 6.80009 55.1958 6.467 55.8307ZM100.36 53.8193C100 53.1999 99.6238 52.5803 99.2405 51.9774L99.544 51.7844C99.93 52.3913 100.309 53.0151 100.671 53.6385L100.36 53.8193ZM8.62821 52.0875L8.3241 51.8951C8.71008 51.2849 9.1137 50.6743 9.52365 50.0805L9.81967 50.2849C9.41244 50.8748 9.01163 51.4812 8.62821 52.0875ZM98.0471 50.1816C97.639 49.5935 97.2134 49.0056 96.7825 48.4347L97.0696 48.2179C97.5035 48.7927 97.9318 49.3844 98.3425 49.9765L98.0471 50.1816ZM11.0825 48.5319L10.7949 48.3158C11.2284 47.7387 11.6795 47.1628 12.1355 46.604L12.4143 46.8315C11.9613 47.3866 11.5132 47.9587 11.0825 48.5319ZM95.4486 46.7394C94.9948 46.1857 94.5232 45.6336 94.0475 45.0985L94.3163 44.8594C94.7954 45.3981 95.2699 45.9539 95.7268 46.5113L95.4486 46.7394ZM13.813 45.1861L13.5437 44.9477C14.0213 44.408 14.5168 43.8703 15.0165 43.3494L15.2761 43.5985C14.7798 44.1158 14.2876 44.6501 13.813 45.1861ZM92.5816 43.5145C92.0838 42.9979 91.5696 42.4851 91.0531 41.9902L91.302 41.7304C91.8218 42.2286 92.3396 42.7448 92.8406 43.2649L92.5816 43.5145ZM16.8012 42.0708L16.5518 41.8115C17.0709 41.312 17.6077 40.8159 18.147 40.3368L18.3859 40.6057C17.8501 41.0817 17.3169 41.5746 16.8012 42.0708ZM89.4647 40.5279C88.9271 40.0526 88.3732 39.5823 87.8186 39.1302L88.0459 38.8513C88.6042 39.3065 89.1618 39.7799 89.7029 40.2584L89.4647 40.5279ZM20.0277 39.2056L19.7997 38.9273C20.3579 38.4701 20.9324 38.0187 21.507 37.5854L21.7236 37.8727C21.1527 38.303 20.5821 38.7515 20.0277 39.2056ZM86.1171 37.7993C85.5432 37.3686 84.9531 36.944 84.3637 36.5375L84.5678 36.2413C85.1613 36.6506 85.7552 37.0779 86.3332 37.5116L86.1171 37.7993ZM23.4715 36.6088L23.2665 36.3131C23.8596 35.9021 24.468 35.4983 25.075 35.1128L25.2679 35.4166C24.665 35.7994 24.0605 36.2005 23.4715 36.6088ZM82.5603 35.3468C81.9537 34.9637 81.3313 34.5878 80.71 34.2297L80.8899 33.918C81.515 34.2785 82.1417 34.6569 82.7525 35.0427L82.5603 35.3468ZM27.1103 34.2979L26.9297 33.9866C27.5518 33.6259 28.1904 33.2724 28.8276 32.9362L28.9956 33.2544C28.3625 33.5884 27.7282 33.9395 27.1103 34.2979ZM78.816 33.1877C78.1806 32.8548 77.5295 32.5302 76.8807 32.2231L77.0346 31.8979C77.6878 32.2071 78.3434 32.5338 78.9829 32.869L78.816 33.1877ZM30.9207 32.2882L30.7658 31.9634C31.4146 31.6541 32.0791 31.3535 32.741 31.07L32.8826 31.4007C32.2252 31.6823 31.5651 31.9809 30.9207 32.2882ZM74.9073 31.3374C74.246 31.0565 73.5704 30.7857 72.8989 30.5322L73.0261 30.1956C73.702 30.4508 74.3824 30.7235 75.0478 31.0062L74.9073 31.3374ZM34.8781 30.5935L34.75 30.2572C35.4232 30.0005 36.1115 29.7541 36.7958 29.5245L36.9101 29.8657C36.2305 30.0936 35.5469 30.3385 34.8781 30.5935ZM70.8587 29.8091C70.1789 29.5836 69.4851 29.369 68.7966 29.1713L68.896 28.8256C69.5891 29.0246 70.2874 29.2406 70.9719 29.4676L70.8587 29.8091ZM38.9703 29.2208L38.8698 28.8754C39.5617 28.6741 40.2678 28.4841 40.9683 28.3108L41.0547 28.6601C40.3588 28.8322 39.6575 29.0209 38.9703 29.2208ZM66.7103 28.6177C66.0157 28.4483 65.3067 28.2906 64.6033 28.1491L64.6743 27.7964C65.3824 27.9388 66.0961 28.0976 66.7955 28.2681L66.7103 28.6177ZM43.16 28.1846L43.0878 27.8322C43.7931 27.6878 44.5122 27.5557 45.225 27.4394L45.283 27.7945C44.5748 27.91 43.8606 28.0412 43.16 28.1846ZM62.4791 27.7661C61.7716 27.6533 61.0522 27.5534 60.3411 27.4692L60.3834 27.1119C61.0993 27.1967 61.8235 27.2972 62.5357 27.4109L62.4791 27.7661ZM47.4198 27.4904L47.3762 27.1332C48.0919 27.0461 48.8193 26.9722 49.538 26.9139L49.5671 27.2725C48.8532 27.3305 48.1307 27.4038 47.4198 27.4904ZM58.193 27.2584C57.4798 27.2028 56.7547 27.1608 56.0381 27.1337L56.0518 26.7741C56.7732 26.8015 57.5029 26.8437 58.221 26.8997L58.193 27.2584ZM51.7218 27.1406L51.707 26.7812C52.4264 26.7515 53.1573 26.7358 53.8795 26.7346L53.88 27.0944C53.1627 27.0956 52.4365 27.1112 51.7218 27.1406Z" fill="#6946B3"/>
<path d="M44.4551 93.5356C51.219 93.5356 56.7023 88.0523 56.7023 81.2883C56.7023 74.5243 51.219 69.041 44.4551 69.041C37.6911 69.041 32.2078 74.5243 32.2078 81.2883C32.2078 88.0523 37.6911 93.5356 44.4551 93.5356Z" fill="#3F3D56"/>
<path d="M40.1094 90.2356C43.7016 90.2356 46.6138 86.2296 46.6138 81.2881C46.6138 76.3465 43.7016 72.3406 40.1094 72.3406C36.5171 72.3406 33.605 76.3465 33.605 81.2881C33.605 86.2296 36.5171 90.2356 40.1094 90.2356Z" fill="white"/>
<path d="M37.9523 86.0383C38.9548 86.0383 39.7675 84.7598 39.7675 83.1827C39.7675 81.6056 38.9548 80.3271 37.9523 80.3271C36.9497 80.3271 36.137 81.6056 36.137 83.1827C36.137 84.7598 36.9497 86.0383 37.9523 86.0383Z" fill="#3F3D56"/>
<path d="M103.126 63.6923C105.014 63.6923 106.544 62.162 106.544 60.2742C106.544 58.3865 105.014 56.8562 103.126 56.8562C101.239 56.8562 99.7083 58.3865 99.7083 60.2742C99.7083 62.162 101.239 63.6923 103.126 63.6923Z" fill="#CFFD99"/>
<path d="M63.6443 32.6065C66.4262 32.6065 68.6814 30.3513 68.6814 27.5693C68.6814 24.7874 66.4262 22.5322 63.6443 22.5322C60.8624 22.5322 58.6072 24.7874 58.6072 27.5693C58.6072 30.3513 60.8624 32.6065 63.6443 32.6065Z" fill="#6946B3"/>
<path d="M60.307 137.523C62.1947 137.523 63.725 135.993 63.725 134.105C63.725 132.217 62.1947 130.687 60.307 130.687C58.4192 130.687 56.8889 132.217 56.8889 134.105C56.8889 135.993 58.4192 137.523 60.307 137.523Z" fill="#D06D6A"/>
<path d="M11.8552 173.217C11.1199 173.217 10.4207 173.09 9.75762 172.837C9.10664 172.584 8.52798 172.204 8.02166 171.698C7.51534 171.18 7.11752 170.547 6.82819 169.799C6.53886 169.04 6.3942 168.166 6.3942 167.177C6.3942 165.875 6.64133 164.766 7.1356 163.85C7.64192 162.922 8.31702 162.217 9.16088 161.734C10.0168 161.24 10.9692 160.993 12.018 160.993C12.7654 160.993 13.4405 161.15 14.0433 161.463C14.646 161.764 15.1463 162.108 15.5441 162.494L14.0794 164.139C13.8022 163.874 13.4948 163.669 13.1572 163.525C12.8317 163.368 12.452 163.289 12.018 163.289C11.4634 163.289 10.9692 163.446 10.5352 163.76C10.1012 164.061 9.75762 164.495 9.50446 165.062C9.2513 165.628 9.12472 166.303 9.12472 167.087C9.12472 167.895 9.2513 168.588 9.50446 169.166C9.75762 169.733 10.1072 170.167 10.5533 170.468C11.0114 170.77 11.5358 170.92 12.1265 170.92C12.5605 170.92 12.9523 170.824 13.3019 170.631C13.6515 170.438 13.9709 170.185 14.2603 169.872L15.725 171.481C15.2428 172.048 14.6762 172.482 14.0252 172.783C13.3742 173.072 12.6509 173.217 11.8552 173.217ZM20.2929 173.217C19.2682 173.217 18.5268 172.892 18.0687 172.241C17.6106 171.59 17.3815 170.697 17.3815 169.564V164.031H20.0397V169.221C20.0397 169.823 20.1301 170.263 20.311 170.541C20.5039 170.818 20.8474 170.957 21.3417 170.957C21.6792 170.957 21.9806 170.884 22.2458 170.74C22.5111 170.595 22.7944 170.324 23.0957 169.926V164.031H25.7539V173H23.584L23.3851 171.716H23.3127C22.9149 172.162 22.4749 172.524 21.9927 172.801C21.5105 173.078 20.9439 173.217 20.2929 173.217ZM29.2007 173V164.031H31.3706L31.5876 165.984H31.6419C32.0879 165.248 32.6244 164.706 33.2513 164.356C33.8902 163.995 34.5653 163.814 35.2765 163.814C35.6744 163.814 35.9938 163.844 36.2349 163.904C36.4881 163.965 36.7473 164.055 37.0125 164.176L36.47 166.4C36.1927 166.315 35.9396 166.255 35.7105 166.219C35.4935 166.171 35.2163 166.147 34.8787 166.147C34.3242 166.147 33.7757 166.309 33.2332 166.635C32.7027 166.96 32.2446 167.527 31.8589 168.335V173H29.2007ZM42.9728 173V166.11H39.3562V164.031H45.631V173H42.9728ZM44.1843 162.62C43.678 162.62 43.2561 162.476 42.9185 162.186C42.581 161.885 42.4122 161.493 42.4122 161.011C42.4122 160.517 42.581 160.119 42.9185 159.818C43.2561 159.504 43.678 159.347 44.1843 159.347C44.7027 159.347 45.1247 159.504 45.4501 159.818C45.7877 160.119 45.9565 160.517 45.9565 161.011C45.9565 161.493 45.7877 161.885 45.4501 162.186C45.1247 162.476 44.7027 162.62 44.1843 162.62ZM54.2133 173.217C53.4297 173.217 52.6883 173.036 51.9891 172.675C51.2899 172.301 50.7233 171.764 50.2893 171.065C49.8553 170.354 49.6383 169.504 49.6383 168.515C49.6383 167.527 49.8553 166.683 50.2893 165.984C50.7233 165.273 51.2899 164.736 51.9891 164.374C52.6883 164.001 53.4297 163.814 54.2133 163.814C54.9969 163.814 55.7383 164.001 56.4375 164.374C57.1367 164.736 57.7033 165.273 58.1373 165.984C58.5713 166.683 58.7883 167.527 58.7883 168.515C58.7883 169.504 58.5713 170.354 58.1373 171.065C57.7033 171.764 57.1367 172.301 56.4375 172.675C55.7383 173.036 54.9969 173.217 54.2133 173.217ZM54.2133 171.065C54.6232 171.065 54.9607 170.963 55.2259 170.758C55.5032 170.553 55.7081 170.257 55.8407 169.872C55.9854 169.486 56.0577 169.034 56.0577 168.515C56.0577 167.997 55.9854 167.545 55.8407 167.159C55.7081 166.773 55.5032 166.478 55.2259 166.273C54.9607 166.068 54.6232 165.966 54.2133 165.966C53.8034 165.966 53.4598 166.068 53.1826 166.273C52.9173 166.478 52.7124 166.773 52.5677 167.159C52.4351 167.545 52.3688 167.997 52.3688 168.515C52.3688 169.034 52.4351 169.486 52.5677 169.872C52.7124 170.257 52.9173 170.553 53.1826 170.758C53.4598 170.963 53.8034 171.065 54.2133 171.065ZM64.9836 173.217C64.188 173.217 63.3984 173.084 62.6148 172.819C61.8312 172.542 61.1561 172.216 60.5895 171.843L61.7287 170.179C62.2712 170.529 62.8438 170.794 63.4466 170.975C64.0614 171.156 64.6943 171.246 65.3453 171.246C65.8396 171.246 66.2012 171.174 66.4303 171.029C66.6593 170.872 66.7738 170.691 66.7738 170.486C66.7738 170.354 66.7377 170.245 66.6653 170.161C66.6051 170.065 66.4905 169.98 66.3218 169.908C66.165 169.823 65.942 169.745 65.6527 169.673C65.3754 169.6 65.0138 169.516 64.5677 169.42C63.3501 169.154 62.4761 168.793 61.9457 168.335C61.4153 167.877 61.1501 167.304 61.1501 166.617C61.1501 165.773 61.5177 165.098 62.2531 164.591C62.9885 164.073 63.9951 163.814 65.273 163.814C66.0807 163.814 66.81 163.946 67.461 164.212C68.124 164.465 68.6906 164.742 69.1608 165.044L67.9673 166.635C67.5213 166.358 67.0451 166.147 66.5388 166.002C66.0324 165.857 65.5321 165.785 65.0379 165.785C64.7606 165.785 64.5316 165.815 64.3507 165.875C64.1699 165.924 64.0313 166.008 63.9348 166.128C63.8384 166.237 63.7902 166.358 63.7902 166.49C63.7902 166.731 63.9469 166.912 64.2603 167.033C64.5738 167.141 65.1102 167.28 65.8697 167.449C66.7859 167.653 67.5032 167.889 68.0216 168.154C68.5399 168.419 68.8956 168.726 69.0884 169.076C69.2934 169.414 69.3959 169.829 69.3959 170.324C69.3959 170.866 69.2271 171.354 68.8895 171.788C68.564 172.222 68.0698 172.572 67.4067 172.837C66.7558 173.09 65.9481 173.217 64.9836 173.217ZM75.5008 173V166.11H71.8842V164.031H78.159V173H75.5008ZM76.7124 162.62C76.206 162.62 75.7841 162.476 75.4466 162.186C75.109 161.885 74.9402 161.493 74.9402 161.011C74.9402 160.517 75.109 160.119 75.4466 159.818C75.7841 159.504 76.206 159.347 76.7124 159.347C77.2307 159.347 77.6527 159.504 77.9782 159.818C78.3157 160.119 78.4845 160.517 78.4845 161.011C78.4845 161.493 78.3157 161.885 77.9782 162.186C77.6527 162.476 77.2307 162.62 76.7124 162.62ZM85.9457 173.217C84.8125 173.217 83.8963 172.801 83.1971 171.969C82.5099 171.125 82.1663 169.974 82.1663 168.515C82.1663 167.539 82.3472 166.701 82.7088 166.002C83.0825 165.303 83.5647 164.766 84.1555 164.393C84.7462 164.007 85.361 163.814 85.9999 163.814C86.4942 163.814 86.9221 163.898 87.2838 164.067C87.6455 164.236 87.9709 164.471 88.2603 164.772H88.3326L88.206 163.38V160.324H90.8642V173H88.6943L88.4953 172.078H88.4411C88.1156 172.403 87.7298 172.675 87.2838 172.892C86.8498 173.108 86.4038 173.217 85.9457 173.217ZM86.6328 171.047C86.9342 171.047 87.2115 170.987 87.4646 170.866C87.7298 170.734 87.977 170.517 88.206 170.215V166.581C87.9649 166.364 87.7178 166.213 87.4646 166.128C87.2235 166.032 86.9704 165.984 86.7051 165.984C86.3796 165.984 86.0783 166.074 85.801 166.255C85.5237 166.436 85.3007 166.713 85.1319 167.087C84.9752 167.449 84.8969 167.913 84.8969 168.479C84.8969 169.359 85.0475 170.01 85.3489 170.432C85.6503 170.842 86.0783 171.047 86.6328 171.047ZM96.2097 173.217C95.6069 173.217 95.0825 173.096 94.6365 172.855C94.2025 172.614 93.8649 172.289 93.6238 171.879C93.3827 171.469 93.2622 171.011 93.2622 170.505C93.2622 169.504 93.7142 168.738 94.6184 168.208C95.5346 167.678 97.0535 167.352 99.1753 167.232C99.1391 166.954 99.0487 166.719 98.904 166.526C98.7594 166.333 98.5484 166.189 98.2711 166.092C98.0059 165.984 97.6684 165.93 97.2585 165.93C96.9692 165.93 96.6798 165.966 96.3905 166.038C96.1012 166.098 95.7998 166.195 95.4864 166.327C95.185 166.448 94.8655 166.593 94.528 166.761L93.5877 165.025C93.9975 164.784 94.4255 164.573 94.8715 164.393C95.3296 164.212 95.7998 164.073 96.282 163.977C96.7763 163.868 97.2766 163.814 97.7829 163.814C98.6268 163.814 99.3501 163.965 99.9528 164.266C100.556 164.555 101.02 165.001 101.345 165.604C101.671 166.195 101.833 166.948 101.833 167.864V173H99.6635L99.4646 171.987H99.3923C98.9462 172.325 98.452 172.614 97.9095 172.855C97.367 173.096 96.8004 173.217 96.2097 173.217ZM97.0596 171.156C97.4574 171.156 97.8311 171.077 98.1807 170.92C98.5303 170.752 98.8618 170.547 99.1753 170.306V168.823C98.2952 168.871 97.6081 168.961 97.1138 169.094C96.6316 169.227 96.2941 169.395 96.1012 169.6C95.9083 169.805 95.8119 170.04 95.8119 170.306C95.8119 170.486 95.8601 170.643 95.9565 170.776C96.065 170.908 96.2097 171.005 96.3905 171.065C96.5834 171.125 96.8064 171.156 97.0596 171.156ZM107.631 173.217C106.498 173.217 105.582 172.801 104.882 171.969C104.195 171.125 103.852 169.974 103.852 168.515C103.852 167.539 104.033 166.701 104.394 166.002C104.768 165.303 105.25 164.766 105.841 164.393C106.432 164.007 107.046 163.814 107.685 163.814C108.18 163.814 108.607 163.898 108.969 164.067C109.331 164.236 109.656 164.471 109.946 164.772H110.018L109.891 163.38V160.324H112.55V173H110.38L110.181 172.078H110.126C109.801 172.403 109.415 172.675 108.969 172.892C108.535 173.108 108.089 173.217 107.631 173.217ZM108.318 171.047C108.62 171.047 108.897 170.987 109.15 170.866C109.415 170.734 109.662 170.517 109.891 170.215V166.581C109.65 166.364 109.403 166.213 109.15 166.128C108.909 166.032 108.656 165.984 108.39 165.984C108.065 165.984 107.764 166.074 107.486 166.255C107.209 166.436 106.986 166.713 106.817 167.087C106.661 167.449 106.582 167.913 106.582 168.479C106.582 169.359 106.733 170.01 107.034 170.432C107.336 170.842 107.764 171.047 108.318 171.047Z" fill="#6946B3"/>
<defs>
<linearGradient id="paint0_linear_85_1461" x1="78.388" y1="42.4313" x2="-10.4719" y2="39.6983" gradientUnits="userSpaceOnUse">
<stop stop-color="#A2FF84"/>
<stop offset="1" stop-color="#7C43BD"/>
</linearGradient>
</defs>
</svg>
