<svg width="148" height="103" viewBox="0 0 148 103" fill="none" xmlns="http://www.w3.org/2000/svg">
<path d="M85.9675 54.096L95.9566 44.413L85.9675 34.7301L89.013 31.7788L102.047 44.413L89.013 57.0472L85.9675 54.096Z" fill="#E6E6E6"/>
<path d="M61.8479 40.3931H57.8279V44.413H61.8479V40.3931Z" fill="#E6E6E6"/>
<path d="M77.9274 40.3931H73.9075V44.413H77.9274V40.3931Z" fill="#E6E6E6"/>
<path d="M69.8877 40.3931H65.8677V44.413H69.8877V40.3931Z" fill="#E6E6E6"/>
<path d="M52.0847 54.029L42.4426 44.1259L52.0749 34.2229L49.1383 31.2046L36.5791 44.1259L49.1481 57.0473L52.0847 54.029Z" fill="#E6E6E6"/>
<path d="M85.9675 52.3063L95.9566 42.4034L85.9675 32.5003L89.013 29.4819L102.047 42.4034L89.013 55.3246L85.9675 52.3063Z" fill="#6946B3"/>
<path d="M57.8279 43.2646H61.8319V39.2446H57.8279L57.8279 43.2646ZM77.9278 39.2446H73.9238V43.2646H77.9278V39.2446ZM65.8759 43.2646H69.8798V39.2446H65.8759V43.2646Z" fill="#6946B3"/>
<path d="M52.0847 52.3063L42.4426 42.4033L52.0749 32.5003L49.1383 29.4819L36.5791 42.4033L49.1481 55.3246L52.0847 52.3063Z" fill="#6946B3"/>
<path d="M1.57202 97.2766L4.89222 98.0777L9.56815 85.6771L4.66795 84.4946L1.57202 97.2766Z" fill="#A0616A"/>
<path d="M0 100.252L1.01955 96.043L7.5154 97.6104C8.60858 97.8755 9.55178 98.5625 10.1381 99.5209C10.7243 100.479 10.9058 101.63 10.6427 102.722L10.6202 102.815L0 100.252Z" fill="#2F2E41"/>
<path d="M16.2698 99.5347L19.6856 99.5345L21.3104 86.3843L16.2693 86.3845L16.2698 99.5347Z" fill="#A0616A"/>
<path d="M15.4424 98.4646L22.1254 98.4644C23.2507 98.4644 24.3302 98.9105 25.1259 99.7048C25.9217 100.499 26.3687 101.576 26.3688 102.699V102.795L15.4426 102.795L15.4424 98.4646Z" fill="#2F2E41"/>
<path d="M15.4685 94.9844L16.0301 74.5263L15.2737 66.2306L13.7976 72.6147L7.3477 93.6084L1.78735 92.1479L8.227 69.5117L6.82836 54.9928L10.8467 52.4146L10.901 52.4243L24.6299 54.9502L21.3135 94.4011L15.4685 94.9844Z" fill="#2F2E41"/>
<path d="M20.9018 57.7981C19.7962 57.7981 18.5032 57.4426 17.0639 56.4285C12.4581 53.1841 6.96648 56.6743 6.91145 56.7096L6.68848 56.8544L6.6963 56.589C6.70188 56.4 7.25346 37.6112 7.25346 31.5653C7.25346 25.3189 11.3365 20.7582 12.5879 19.5092C13.8161 18.2831 14.8497 18.3102 16.158 18.3442C16.3834 18.3499 16.6184 18.3561 16.8656 18.3561C18.5753 18.3561 20.2375 19.9956 20.3074 20.0654L20.3408 20.0988L20.347 20.1455L25.0912 55.7988L25.0548 55.8447C25.0329 55.8726 23.475 57.7981 20.9018 57.7981Z" fill="#CFFD99"/>
<path d="M23.5963 12.6973C25.4091 9.38743 24.1904 5.23746 20.8742 3.4281C17.5581 1.61874 13.4003 2.83517 11.5875 6.14507C9.77472 9.45498 10.9934 13.605 14.3096 15.4143C17.6257 17.2237 21.7836 16.0072 23.5963 12.6973Z" fill="#A0616A"/>
<path d="M28.0672 63.5068C27.7435 63.2563 27.4787 62.9381 27.2915 62.5745C27.1042 62.2109 26.9992 61.8107 26.9837 61.4022C26.9682 60.9937 27.0426 60.5868 27.2018 60.2101C27.3609 59.8334 27.6008 59.4961 27.9047 59.2219L24.0186 50.0728L29.1068 51.0075L32.0171 59.5524C32.4446 60.0924 32.6589 60.7702 32.6192 61.4573C32.5796 62.1445 32.2887 62.7932 31.8019 63.2807C31.315 63.7681 30.6659 64.0603 29.9776 64.102C29.2893 64.1437 28.6095 63.9319 28.0672 63.5068Z" fill="#A0616A"/>
<path d="M26.9666 58.299L19.9447 44.0014L16.8657 33.2405L16.8682 23.8922C16.8751 23.8553 17.5989 20.219 20.2817 20.4705C22.7144 20.7057 24.0246 21.893 24.6627 24.4405C25.2048 26.6047 24.4634 33.0251 24.3916 33.631C24.8624 34.745 31.9244 51.5397 30.7552 53.562C30.7115 53.6408 30.6478 53.7068 30.5704 53.7532L31.8218 56.3902L26.9666 58.299Z" fill="#CFFD99"/>
<path d="M16.7167 11.9944C17.537 12.1009 18.1558 11.2632 18.4428 10.4889C18.7298 9.71448 18.9485 8.81294 19.6617 8.39464C20.6361 7.82316 21.8827 8.5105 22.997 8.32195C24.2553 8.10902 25.0735 6.77794 25.1376 5.50566C25.2017 4.23338 24.6945 3.00971 24.1967 1.83668L24.023 3.2945C24.0462 2.80041 23.942 2.30863 23.7204 1.86621C23.4988 1.42379 23.1672 1.04552 22.7573 0.767578L22.9812 2.90669C22.9336 2.61157 22.828 2.32875 22.6706 2.07445C22.5131 1.82016 22.3069 1.5994 22.0638 1.42485C21.8206 1.2503 21.5453 1.1254 21.2537 1.05731C20.9621 0.989217 20.6599 0.979277 20.3644 1.02806L20.3997 2.30263C18.9463 2.13013 17.4802 1.95739 16.0225 2.08881C14.5648 2.22022 13.097 2.68055 11.9922 3.63874C10.3395 5.07204 9.73598 7.43214 9.93861 9.60798C10.1412 11.7838 11.0411 13.8279 11.979 15.8024C12.215 16.2992 12.5413 16.8598 13.0885 16.9231C13.5802 16.98 14.03 16.5698 14.1829 16.0999C14.3006 15.6178 14.2961 15.114 14.1696 14.6341C14.0313 13.9007 13.857 13.1511 13.987 12.4162C14.117 11.6813 14.6467 10.9551 15.3889 10.865C16.1312 10.7749 16.8906 11.6217 16.5338 12.2775L16.7167 11.9944Z" fill="#2F2E41"/>
<path d="M137.918 62.5959C137.69 62.336 137.521 62.0294 137.425 61.6975C137.328 61.3656 137.305 61.0165 137.358 60.675C137.411 60.3334 137.538 60.0075 137.731 59.7204C137.924 59.4332 138.178 59.1918 138.474 59.013L136.723 50.7944L140.796 52.3873L141.834 59.9476C142.102 60.4645 142.171 61.0615 142.027 61.6255C141.884 62.1896 141.538 62.6814 141.055 63.0078C140.572 63.3343 139.986 63.4726 139.408 63.3967C138.83 63.3208 138.3 63.0358 137.918 62.5959Z" fill="#FFB8B8"/>
<path d="M137.455 56.1833L137.434 56.1026C135.232 47.9739 132.956 39.571 130.177 30.4217L130.159 30.3618L130.22 30.3261C131.769 29.424 134.097 29.4841 135.635 30.4657C136.331 30.9133 136.873 31.5637 137.187 32.3287C137.5 33.0938 137.571 33.9366 137.388 34.743L139.415 45.2904C140.239 48.7381 141.092 52.3068 141.907 55.8256L141.93 55.9254L141.804 55.9334C140.32 56.0276 138.787 56.125 137.558 56.1788L137.455 56.1833Z" fill="#CFFD99"/>
<path d="M118.743 99.9331H115.855L114.48 88.8145H118.743V99.9331Z" fill="#FFB8B8"/>
<path d="M119.479 102.727H110.167V102.61C110.168 101.65 110.55 100.731 111.23 100.053C111.909 99.3743 112.831 98.9928 113.792 98.9917H119.479L119.479 102.727Z" fill="#2F2E41"/>
<path d="M145.958 97.555L143.206 98.4302L138.514 88.2527L142.575 86.9609L145.958 97.555Z" fill="#FFB8B8"/>
<path d="M138.637 102.816L138.601 102.704C138.31 101.79 138.395 100.798 138.836 99.9457C139.277 99.0936 140.039 98.4508 140.954 98.1586L146.373 96.4351L147.51 99.9942L138.637 102.816Z" fill="#2F2E41"/>
<path d="M131.34 22.9725C134.535 22.9725 137.126 20.3869 137.126 17.1974C137.126 14.0079 134.535 11.4224 131.34 11.4224C128.144 11.4224 125.554 14.0079 125.554 17.1974C125.554 20.3869 128.144 22.9725 131.34 22.9725Z" fill="#FFB8B8"/>
<path d="M133.938 16.1276C133.971 13.7983 132.994 11.4915 131.484 10.3316C130.772 9.76884 129.887 9.46995 128.979 9.48596C128.071 9.50198 127.197 9.8319 126.506 10.4194C125.019 11.6321 124.088 13.9726 124.167 16.3C127.498 16.3094 130.829 16.3189 133.938 16.1276Z" fill="#2F2E41"/>
<path d="M120.392 96.3533L120.276 96.342C117.764 96.0959 115.165 95.8417 112.71 95.8125L112.576 95.8109L112.595 95.6789C113.176 91.4734 113.423 87.1014 113.662 82.8732C113.897 78.6982 114.14 74.3813 114.708 70.2812C114.948 69.1832 115.181 68.0984 115.415 67.0174C117.343 58.0723 119.164 49.6232 122.924 41.2597L122.959 41.1807L123.046 41.191C126.573 41.6171 129.963 42.9017 132.59 44.8081L132.641 44.845L132.638 44.9078C132.588 46.2068 132.535 47.5498 132.613 48.7731C133.805 50.4268 134.595 52.3349 134.921 54.3463C135.246 56.3576 135.097 58.417 134.487 60.3611C135.521 63.8117 136.591 67.3786 137.682 70.8972C140.332 78.1483 143.074 85.6521 145.884 93.2585L145.931 93.3832L145.801 93.4135C143.779 93.8874 141.692 94.376 139.634 94.5657L139.557 94.5728L139.52 94.5042C134.271 84.7556 130.003 74.5122 126.778 63.9239C126.075 66.0618 125.064 67.9915 124.083 69.8607C123.146 71.5608 122.321 73.3204 121.614 75.1281C121.18 78.6835 121.065 82.5357 120.954 86.2608C120.849 89.7829 120.749 93.1097 120.405 96.2378L120.392 96.3533Z" fill="#2F2E41"/>
<path d="M129.365 10.4382C131.872 9.89884 134.647 10.4119 136.616 12.1009C138.586 13.7898 139.586 16.7116 138.777 19.2174C137.968 21.7232 135.221 23.4862 132.737 22.8392C133.448 20.8376 132.648 18.3802 130.908 17.2273C128.845 15.8601 128.278 12.5959 129.365 10.4382Z" fill="#2F2E41"/>
<path d="M132.409 45.0601L132.318 45.0184C129.118 43.5614 125.981 42.4435 123.042 41.4236L122.952 41.4042L122.951 41.1433L123.01 41.1636C123.022 41.1365 123.036 41.1058 123.05 41.0751C123.09 40.9865 123.117 40.9261 123.141 40.8861L123.14 40.8858C123.385 40.3874 123.58 39.9058 123.768 39.44C123.963 38.9593 124.163 38.463 124.423 37.9378C123.794 37.3087 123.364 36.5098 123.185 35.6395C123.006 34.7693 123.086 33.8657 123.415 33.0403C124.065 31.5043 125.72 30.308 127.46 30.1095C128.097 28.358 129.517 24.6779 129.517 24.6779C129.517 24.6779 132.504 24.5961 133.705 24.4439L133.725 24.4414L133.745 24.4458C136.367 25.0193 138.557 27.4958 139.069 30.4684C139.501 32.9772 138.845 35.8469 137.22 38.5488C136.387 39.8702 135.465 41.134 134.462 42.3318C133.73 43.245 133.039 44.1075 132.465 44.9761L132.409 45.0601Z" fill="#CFFD99"/>
<path d="M138.201 13.8604C136.445 13.5988 135.067 11.8076 135.266 10.0471C135.466 8.28658 137.21 6.84801 138.98 6.98457C140.75 7.12112 142.252 8.81021 142.178 10.5804C142.105 12.3506 140.442 14.1943 138.201 13.8604Z" fill="#2F2E41"/>
<path d="M137.926 12.7194C136.171 12.4578 134.792 10.6666 134.992 8.9061C135.079 8.30729 135.316 7.74023 135.682 7.25777C136.048 6.77532 136.53 6.39317 137.084 6.14697C135.668 6.45627 134.45 7.68767 134.285 9.14123C134.086 10.9017 135.464 12.693 137.22 12.9545C137.874 13.057 138.544 12.9635 139.145 12.6858C138.744 12.7698 138.331 12.7812 137.926 12.7194Z" fill="#2F2E41"/>
<path d="M111.849 43.7511C112.018 43.4496 112.252 43.1889 112.533 42.9872C112.814 42.7855 113.137 42.6478 113.477 42.5839C113.817 42.5199 114.167 42.5312 114.503 42.617C114.838 42.7027 115.151 42.8609 115.419 43.0803L122.599 38.6938L122.451 43.0577L115.655 46.5541C115.256 46.9784 114.715 47.2419 114.135 47.2946C113.554 47.3473 112.974 47.1856 112.505 46.8401C112.036 46.4946 111.71 45.9894 111.589 45.42C111.468 44.8507 111.561 44.2569 111.849 43.7511Z" fill="#FFB8B8"/>
<path d="M109.775 41.1792L109.844 41.1318C116.789 36.3513 123.969 31.4096 131.686 25.7461L131.736 25.709L131.79 25.7548C133.159 26.9118 133.878 29.1226 133.463 30.8972C133.272 31.7016 132.838 32.428 132.22 32.9781C131.602 33.5282 130.829 33.8754 130.006 33.9726L120.718 39.3941C117.736 41.3183 114.649 43.3098 111.596 45.2493L111.51 45.3042L111.46 45.1881C110.877 43.823 110.274 42.4126 109.814 41.2746L109.775 41.1792Z" fill="#CFFD99"/>
</svg>
