<svg width="171" height="100" viewBox="0 0 171 100" fill="none" xmlns="http://www.w3.org/2000/svg">
<g filter="url(#filter0_d_85_2299)">
<path d="M134.871 22.3975L141.571 35.089L130.496 37.1572L126.604 26.9555L134.871 22.3975Z" fill="#FFB6B6"/>
<path d="M128.829 30.2494C135.323 30.2494 140.586 24.989 140.586 18.4999C140.586 12.0109 135.323 6.75049 128.829 6.75049C122.336 6.75049 117.073 12.0109 117.073 18.4999C117.073 24.989 122.336 30.2494 128.829 30.2494Z" fill="#FFB6B6"/>
<path d="M127.985 21.1268C127.052 19.7069 127.418 18.9643 126.636 18.4425C126.636 18.4425 126.322 18.2325 124.071 18.1128C123.567 14.4881 122.938 14.0485 122.938 14.0485C122.213 13.5419 121.137 13.7065 120.468 14.0163C119.052 14.6716 119.216 16.0872 118.263 16.3581C116.946 16.7323 114.55 14.6228 114.314 12.2078C114.122 10.2378 115.392 8.3245 115.895 8.42571C116.395 8.52607 117.591 7.00049 118.236 7.02402C118.677 7.04009 120.479 6.25755 120.963 6.31873C121.493 6.38556 123.238 7.29564 123.31 7.08771C123.816 5.64282 123.667 5.24192 124.096 4.82857C124.856 4.09611 126.099 4.60618 128.049 4.88001C132.06 5.44343 132.761 4.1214 134.817 5.01748C135.855 5.47013 136.724 6.69089 138.42 9.11393C140.792 12.5025 141.977 14.1968 141.985 16.173C141.993 18.1883 141.016 18.0604 140.587 21.0439C140.11 24.365 141.124 25.8837 140.016 26.9626C139.159 27.7966 137.418 27.9945 136.504 27.2626C134.937 26.0096 136.987 22.986 135.254 20.7769C134.19 19.4209 132.05 18.8176 131.07 19.4879C129.962 20.2458 130.573 22.4703 129.793 22.6813C129.126 22.8619 128.148 21.3742 127.985 21.1268Z" fill="#2F2E41"/>
<path d="M68.2759 22.9438L77.9061 18.8936L82.0367 27.3559L71.9168 31.4839L68.2759 22.9438Z" fill="#FFB6B6"/>
<path opacity="0.1" d="M68.2759 22.9438L77.9061 18.8936L82.0367 27.3559L71.9168 31.4839L68.2759 22.9438Z" fill="black"/>
<path d="M69.6449 19.7192L79.1453 30.6583C79.1453 30.6583 72.5363 51.5046 65.9274 53.3622C59.3184 55.2198 47.1331 64.3014 47.1331 64.3014L31.8499 54.3942L39.2849 43.455C39.2849 43.455 57.2531 18.8936 62.0033 18.8936C66.7535 18.8936 69.6449 19.7192 69.6449 19.7192Z" fill="#CFFD99"/>
<path d="M56.8091 91.0299H34.6939L33.2956 89.162L27.5871 81.5355L26.2736 79.7812C26.2736 79.7812 21.3169 70.6996 22.3495 62.4436C23.3822 54.1877 34.1218 52.3301 34.1218 52.3301H34.5637L47.7115 63.876L46.9267 74.6212L51.0903 81.5355L56.8091 91.0299Z" fill="#2F2E41"/>
<path d="M39.2231 91.0303H33.2957V82.2583L39.2231 91.0303Z" fill="#2F2E41"/>
<path d="M167.069 77.7137L166.332 81.5362L164.502 91.0305H127.742C128.029 88.9025 128.421 85.8396 128.841 82.5331C128.882 82.2028 128.925 81.8705 128.967 81.5362C130.018 73.2245 131.168 63.8188 131.168 63.8188L136.001 64.405L145.378 65.5402L149.198 66.0026L159.43 67.243C164.531 67.8602 168.04 72.6693 167.069 77.7137Z" fill="#F2F2F2"/>
<path d="M91.7579 52.4636C90.6453 49.2562 88.0874 47.23 86.045 47.9379C84.0026 48.6459 83.2493 51.8195 84.3627 55.0279C84.7899 56.3157 85.5194 57.4824 86.4903 58.4306L91.3761 71.9613L97.6807 69.5346L92.1949 56.4535C92.3702 55.1077 92.2203 53.7396 91.7579 52.4636Z" fill="#A0616A"/>
<path d="M150.452 46.2187L150.44 58.7078L149.277 63.3209L146.885 72.809L145.144 81.5356L143.847 88.0372L143.385 90.3592C143.036 90.5924 142.689 90.8153 142.342 91.03H112.132C110.416 90 109.456 89.1992 109.456 89.1992C109.456 89.1992 109.931 88.7534 110.474 88.0372C111.391 86.8277 112.5 84.8463 111.821 82.9536C111.678 82.5573 111.641 82.0743 111.684 81.5356C111.961 77.9814 115.691 71.9711 115.691 71.9711L114.919 63.0505L114.58 59.1413L116.968 40.0802L124.752 35.5581L126.096 35.4281L139.361 34.7119L144.844 35.0277L145.094 35.0958L150.452 46.2187Z" fill="#CCCCCC"/>
<path d="M151.04 91.03H144.431L144.14 88.0372L144.134 87.9774L146.005 87.8494L150.873 87.5171L150.958 89.3086L151.024 90.6833L151.04 91.03Z" fill="#FFB6B6"/>
<path d="M152.667 49.2389L155.444 65.5176L153.178 81.5362L152.825 84.0295L152.201 88.432L152.009 89.786L152.015 89.9325L152.063 91.0306H144.215L143.926 88.0378L143.901 87.7695L143.31 81.6394L143.3 81.5362L142.046 68.5372L144.504 59.1419L144.686 58.4505V58.4484L145.755 42.3617L144.927 35.051L144.918 34.9829C144.935 34.9932 144.949 35.0036 144.966 35.0139C145.009 35.0407 145.053 35.0675 145.094 35.0964C149.919 38.1553 152.793 43.5217 152.667 49.2389Z" fill="#CCCCCC"/>
<path d="M119.78 43.2001L116.762 40.0806C116.762 40.0806 110.301 42.9913 109.979 44.6062C109.657 46.221 98.2499 69.9389 98.2499 69.9389L93.2871 56.6925L86.8271 61.0028C86.8271 61.0028 92.0106 81.5685 96.8582 82.534C101.706 83.4995 117.953 58.1925 117.953 58.1925L119.78 43.2001Z" fill="#CCCCCC"/>
<path d="M160.293 81.4414H7.68046C5.52033 81.4414 3.76367 84.1621 3.76367 87.5042C3.76367 90.8463 5.52033 93.5642 7.68046 93.5642H160.293C162.453 93.5642 164.212 90.8464 164.212 87.5042C164.212 84.1619 162.453 81.4414 160.293 81.4414Z" fill="#E6E6E6"/>
<path d="M149.076 63.0161L148.619 84.3255C148.575 86.3883 146.889 88.0375 144.824 88.0375H105.6C103.584 88.0375 101.92 86.4628 101.81 84.4513L100.644 63.1419C100.525 60.9688 102.256 59.1416 104.434 59.1416H145.281C147.409 59.1416 149.121 60.8898 149.076 63.0161Z" fill="#6946B3"/>
<path d="M85.7545 28.0883C90.9374 28.0883 95.1391 23.8894 95.1391 18.7097C95.1391 13.53 90.9374 9.33105 85.7545 9.33105C80.5715 9.33105 76.3699 13.53 76.3699 18.7097C76.3699 23.8894 80.5715 28.0883 85.7545 28.0883Z" fill="#FFB6B6"/>
<path d="M70.0579 43.2493L71.0906 54.3949L78.1126 82.6716L72.0461 84.7965L61.7967 53.9821L60.3811 41.5981L70.0579 43.2493Z" fill="#FFB6B6"/>
<path d="M67.2646 63.0161L66.8077 84.3255C66.7635 86.3883 65.0775 88.0375 63.0129 88.0375H23.7884C21.7726 88.0375 20.1084 86.4628 19.9984 84.4513L18.8327 63.1419C18.7138 60.9688 20.445 59.1416 22.6227 59.1416H63.4698C65.5979 59.1416 67.3102 60.8898 67.2646 63.0161Z" fill="#6946B3"/>
<path d="M79.2306 88.1815C83.3238 88.1815 86.642 86.7148 86.642 84.9055C86.642 83.0961 83.3238 81.6294 79.2306 81.6294C75.1373 81.6294 71.8191 83.0961 71.8191 84.9055C71.8191 86.7148 75.1373 88.1815 79.2306 88.1815Z" fill="#FFB6B6"/>
<path d="M55.4973 44.9525L59.7312 22.4022C59.7312 22.4022 71.5034 20.751 71.9165 24.6726C72.3295 28.5942 71.6213 47.7595 71.6213 47.7595L55.4973 44.9525Z" fill="#CFFD99"/>
<path d="M81.9661 20.184C81.9661 20.184 87.7714 18.1134 90.2202 16.9994C92.669 15.8853 97.5339 23.6559 97.6422 19.552C97.7504 15.4481 96.0693 13.7271 96.0693 13.7271C96.0693 13.7271 95.6496 4.7492 86.5988 5.87165C86.5988 5.87165 88.5896 1.37991 82.0548 0.685349C75.52 -0.00921464 65.3535 15.7612 66.264 18.1181C67.1744 20.4749 68.2659 22.4233 65.6828 24.9433C63.0996 27.4633 58.2626 41.6852 61.9428 45.5122C65.623 49.3393 65.8645 51 63.343 53.3808C60.8215 55.7617 54.8613 60.9387 61.3056 61.8374C67.7499 62.7362 60.7161 62.0649 65.5204 57.8417C70.3247 53.6184 77.3353 53.7909 74.7176 47.0151C72.1 40.2393 76.6478 30.5296 76.0787 29.0566C75.5097 27.5835 77.3537 18.2299 77.3537 18.2299C77.3537 18.2299 81.6452 17.5997 81.9661 20.184Z" fill="#2F2E41"/>
</g>
<defs>
<filter id="filter0_d_85_2299" x="0.913249" y="0.663086" width="169.168" height="98.6017" filterUnits="userSpaceOnUse" color-interpolation-filters="sRGB">
<feFlood flood-opacity="0" result="BackgroundImageFix"/>
<feColorMatrix in="SourceAlpha" type="matrix" values="0 0 0 0 0 0 0 0 0 0 0 0 0 0 0 0 0 0 127 0" result="hardAlpha"/>
<feOffset dy="2.85042"/>
<feGaussianBlur stdDeviation="1.42521"/>
<feComposite in2="hardAlpha" operator="out"/>
<feColorMatrix type="matrix" values="0 0 0 0 0 0 0 0 0 0 0 0 0 0 0 0 0 0 0.25 0"/>
<feBlend mode="normal" in2="BackgroundImageFix" result="effect1_dropShadow_85_2299"/>
<feBlend mode="normal" in="SourceGraphic" in2="effect1_dropShadow_85_2299" result="shape"/>
</filter>
</defs>
</svg>
