<svg width="184" height="84" viewBox="0 0 184 84" fill="none" xmlns="http://www.w3.org/2000/svg">
<g filter="url(#filter0_di_85_3156)">
<path d="M55.0668 36.0519C62.593 28.864 68.721 21.3251 73.2698 13.8977C73.9592 12.7725 72.5457 11.5685 71.2207 12.1524C62.5044 16.0301 53.6571 21.2496 45.2143 27.66C44.6481 28.0898 43.8007 28.0898 43.2345 27.66C34.7994 21.2496 25.9482 16.0334 17.2319 12.1557C15.9108 11.5685 14.4934 12.7758 15.1867 13.8977C19.7316 21.3251 25.8596 28.864 33.3858 36.0519C33.8904 36.5341 33.8904 37.2559 33.3896 37.7348C25.8635 44.9227 19.7355 52.4616 15.179 59.8857C14.4934 61.0142 15.9069 62.2182 17.2281 61.631C25.9521 57.7533 34.7994 52.5338 43.2384 46.1234C43.8007 45.6969 44.6481 45.6969 45.2143 46.1267C53.6494 52.5338 62.5005 57.7533 71.2246 61.631C72.5457 62.2182 73.9592 61.0142 73.2736 59.8857C68.7171 52.4616 62.593 44.9194 55.0668 37.7348C54.5623 37.2559 54.5623 36.5341 55.0668 36.0519Z" fill="#96FF97"/>
</g>
<g filter="url(#filter1_di_85_3156)">
<path d="M157.946 50.4281C162.322 46.3828 165.885 42.1398 168.529 37.9597C168.93 37.3264 168.108 36.6487 167.338 36.9774C162.27 39.1598 157.126 42.0974 152.217 45.7051C151.888 45.947 151.396 45.947 151.066 45.7051C146.162 42.0974 141.016 39.1616 135.948 36.9792C135.18 36.6487 134.356 37.3282 134.759 37.9597C137.401 42.1398 140.964 46.3828 145.34 50.4281C145.634 50.6996 145.634 51.1058 145.342 51.3753C140.967 55.4207 137.404 59.6636 134.754 63.842C134.356 64.4771 135.178 65.1547 135.946 64.8242C141.018 62.6418 146.162 59.7043 151.069 56.0965C151.396 55.8564 151.888 55.8564 152.217 56.0983C157.122 59.7043 162.268 62.6418 167.34 64.8242C168.108 65.1547 168.93 64.4771 168.532 63.842C165.882 59.6636 162.322 55.4189 157.946 51.3753C157.652 51.1058 157.652 50.6996 157.946 50.4281Z" fill="#7C43BD"/>
</g>
<defs>
<filter id="filter0_di_85_3156" x="0.170641" y="0.877981" width="88.1114" height="79.4434" filterUnits="userSpaceOnUse" color-interpolation-filters="sRGB">
<feFlood flood-opacity="0" result="BackgroundImageFix"/>
<feColorMatrix in="SourceAlpha" type="matrix" values="0 0 0 0 0 0 0 0 0 0 0 0 0 0 0 0 0 0 127 0" result="hardAlpha"/>
<feOffset dy="3.70734"/>
<feGaussianBlur stdDeviation="7.41468"/>
<feComposite in2="hardAlpha" operator="out"/>
<feColorMatrix type="matrix" values="0 0 0 0 0 0 0 0 0 0 0 0 0 0 0 0 0 0 0.14 0"/>
<feBlend mode="normal" in2="BackgroundImageFix" result="effect1_dropShadow_85_3156"/>
<feBlend mode="normal" in="SourceGraphic" in2="effect1_dropShadow_85_3156" result="shape"/>
<feColorMatrix in="SourceAlpha" type="matrix" values="0 0 0 0 0 0 0 0 0 0 0 0 0 0 0 0 0 0 127 0" result="hardAlpha"/>
<feOffset dy="-11.122"/>
<feGaussianBlur stdDeviation="7.41468"/>
<feComposite in2="hardAlpha" operator="arithmetic" k2="-1" k3="1"/>
<feColorMatrix type="matrix" values="0 0 0 0 0.670833 0 0 0 0 0.0614931 0 0 0 0 0.0614931 0 0 0 0.29 0"/>
<feBlend mode="normal" in2="shape" result="effect2_innerShadow_85_3156"/>
</filter>
<filter id="filter1_di_85_3156" x="119.821" y="25.7696" width="63.6438" height="57.6778" filterUnits="userSpaceOnUse" color-interpolation-filters="sRGB">
<feFlood flood-opacity="0" result="BackgroundImageFix"/>
<feColorMatrix in="SourceAlpha" type="matrix" values="0 0 0 0 0 0 0 0 0 0 0 0 0 0 0 0 0 0 127 0" result="hardAlpha"/>
<feOffset dy="3.70734"/>
<feGaussianBlur stdDeviation="7.41468"/>
<feComposite in2="hardAlpha" operator="out"/>
<feColorMatrix type="matrix" values="0 0 0 0 0 0 0 0 0 0 0 0 0 0 0 0 0 0 0.14 0"/>
<feBlend mode="normal" in2="BackgroundImageFix" result="effect1_dropShadow_85_3156"/>
<feBlend mode="normal" in="SourceGraphic" in2="effect1_dropShadow_85_3156" result="shape"/>
<feColorMatrix in="SourceAlpha" type="matrix" values="0 0 0 0 0 0 0 0 0 0 0 0 0 0 0 0 0 0 127 0" result="hardAlpha"/>
<feOffset dy="-11.122"/>
<feGaussianBlur stdDeviation="7.41468"/>
<feComposite in2="hardAlpha" operator="arithmetic" k2="-1" k3="1"/>
<feColorMatrix type="matrix" values="0 0 0 0 0.0820726 0 0 0 0 0.0815972 0 0 0 0 0.0833333 0 0 0 0.29 0"/>
<feBlend mode="normal" in2="shape" result="effect2_innerShadow_85_3156"/>
</filter>
</defs>
</svg>
