<svg width="143" height="97" viewBox="0 0 143 97" fill="none" xmlns="http://www.w3.org/2000/svg">
<g filter="url(#filter0_d_85_2363)">
<path d="M134.567 90.7894H32.7274C29.8474 90.7894 27.5044 88.4462 27.5044 85.5664V31.4691C27.5044 28.5893 29.8474 26.2461 32.7274 26.2461H134.567C137.447 26.2461 139.79 28.5893 139.79 31.4691V85.5664C139.79 88.4462 137.447 90.7894 134.567 90.7894Z" fill="#F9F9F9"/>
<path d="M134.567 90.7894H32.7274C29.8474 90.7894 27.5044 88.4462 27.5044 85.5664V31.4691C27.5044 28.5893 29.8474 26.2461 32.7274 26.2461H134.567C137.447 26.2461 139.79 28.5893 139.79 31.4691V85.5664C139.79 88.4462 137.447 90.7894 134.567 90.7894ZM32.7274 27.1183C30.3284 27.1183 28.3766 29.0701 28.3766 31.4691V85.5664C28.3766 87.9653 30.3284 89.9172 32.7274 89.9172H134.567C136.966 89.9172 138.918 87.9653 138.918 85.5664V31.4691C138.918 29.0701 136.966 27.1183 134.567 27.1183H32.7274Z" fill="#F9F9F9"/>
<path d="M126.707 32.788C127.43 32.788 128.016 32.2023 128.016 31.4797C128.016 30.7571 127.43 30.1714 126.707 30.1714C125.985 30.1714 125.399 30.7571 125.399 31.4797C125.399 32.2023 125.985 32.788 126.707 32.788Z" fill="#3F3D56"/>
<path d="M130.196 32.788C130.919 32.788 131.504 32.2023 131.504 31.4797C131.504 30.7571 130.919 30.1714 130.196 30.1714C129.473 30.1714 128.888 30.7571 128.888 31.4797C128.888 32.2023 129.473 32.788 130.196 32.788Z" fill="#3F3D56"/>
<path d="M133.685 32.788C134.408 32.788 134.993 32.2023 134.993 31.4797C134.993 30.7571 134.408 30.1714 133.685 30.1714C132.962 30.1714 132.377 30.7571 132.377 31.4797C132.377 32.2023 132.962 32.788 133.685 32.788Z" fill="#3F3D56"/>
<path d="M34.9183 52.6309C34.5576 52.6309 34.2642 52.9243 34.2642 53.285C34.2642 53.4609 34.3321 53.6236 34.4554 53.7437C34.5797 53.871 34.7426 53.9392 34.9183 53.9392H132.813C133.174 53.9392 133.467 53.6457 133.467 53.285C133.467 53.1091 133.399 52.9464 133.276 52.8263C133.152 52.699 132.989 52.6309 132.813 52.6309H34.9183Z" fill="#E6E6E6"/>
<path d="M120.602 52.4131V54.1575H34.9181C34.6783 54.1575 34.4602 54.0615 34.3032 53.9002C34.1418 53.7432 34.0459 53.5251 34.0459 53.2853C34.0459 52.8056 34.4384 52.4131 34.9181 52.4131H120.602Z" fill="#6946B3"/>
<path d="M131.723 49.1421H123.001C122.039 49.1421 121.256 48.3598 121.256 47.3977C121.256 46.4357 122.039 45.6533 123.001 45.6533H131.723C132.684 45.6533 133.467 46.4357 133.467 47.3977C133.467 48.3598 132.684 49.1421 131.723 49.1421Z" fill="#CFFD99"/>
<path d="M74.5927 39.9839H35.5721C34.6102 39.9839 33.8276 39.2016 33.8276 38.2395C33.8276 37.2775 34.6102 36.4951 35.5721 36.4951H74.5927C75.5546 36.4951 76.3372 37.2775 76.3372 38.2395C76.3372 39.2016 75.5546 39.9839 74.5927 39.9839Z" fill="#CFFD99"/>
<path d="M34.9183 72.2554C34.5576 72.2554 34.2642 72.5488 34.2642 72.9095C34.2642 73.0854 34.3321 73.2481 34.4554 73.3682C34.5797 73.4955 34.7426 73.5637 34.9183 73.5637H132.813C133.174 73.5637 133.467 73.2702 133.467 72.9095C133.467 72.7336 133.399 72.571 133.276 72.4509C133.152 72.3235 132.989 72.2554 132.813 72.2554H34.9183Z" fill="#E6E6E6"/>
<path d="M87.0219 72.0371V73.7815H34.9181C34.6783 73.7815 34.4602 73.6856 34.3032 73.5242C34.1418 73.3672 34.0459 73.1492 34.0459 72.9093C34.0459 72.4296 34.4384 72.0371 34.9181 72.0371H87.0219Z" fill="#6946B3"/>
<path d="M131.723 68.7667H123.001C122.039 68.7667 121.256 67.9843 121.256 67.0222C121.256 66.0602 122.039 65.2778 123.001 65.2778H131.723C132.684 65.2778 133.467 66.0602 133.467 67.0222C133.467 67.9843 132.684 68.7667 131.723 68.7667Z" fill="#CFFD99"/>
<path d="M29.2733 51.9284C43.4089 51.9284 54.8681 40.4692 54.8681 26.3336C54.8681 12.198 43.4089 0.73877 29.2733 0.73877C15.1377 0.73877 3.67847 12.198 3.67847 26.3336C3.67847 40.4692 15.1377 51.9284 29.2733 51.9284Z" fill="#6946B3"/>
<path d="M22.4649 26.8656C23.7875 29.4547 25.1102 32.0475 26.4328 34.6366C26.8113 35.3822 27.9241 35.1461 28.1451 34.4118C29.8799 28.6266 33.1022 23.3548 37.4449 19.162C38.3141 18.3227 36.9877 17.0001 36.1185 17.8356C31.5473 22.2495 28.1639 27.8285 26.3354 33.9134L28.0477 33.6886C26.7251 31.0995 25.4024 28.5067 24.0798 25.9176C23.5328 24.8423 21.9141 25.7902 22.4612 26.8618H22.4649V26.8656Z" fill="white"/>
</g>
<defs>
<filter id="filter0_d_85_2363" x="0.828044" y="0.73877" width="141.813" height="95.7516" filterUnits="userSpaceOnUse" color-interpolation-filters="sRGB">
<feFlood flood-opacity="0" result="BackgroundImageFix"/>
<feColorMatrix in="SourceAlpha" type="matrix" values="0 0 0 0 0 0 0 0 0 0 0 0 0 0 0 0 0 0 127 0" result="hardAlpha"/>
<feOffset dy="2.85042"/>
<feGaussianBlur stdDeviation="1.42521"/>
<feComposite in2="hardAlpha" operator="out"/>
<feColorMatrix type="matrix" values="0 0 0 0 0 0 0 0 0 0 0 0 0 0 0 0 0 0 0.25 0"/>
<feBlend mode="normal" in2="BackgroundImageFix" result="effect1_dropShadow_85_2363"/>
<feBlend mode="normal" in="SourceGraphic" in2="effect1_dropShadow_85_2363" result="shape"/>
</filter>
</defs>
</svg>
