<svg width="317" height="192" viewBox="0 0 317 192" fill="none" xmlns="http://www.w3.org/2000/svg">
<g clip-path="url(#clip0_85_2985)">
<path d="M182.971 153.577C182.231 153.577 181.508 153.796 180.893 154.207C180.277 154.619 179.798 155.203 179.515 155.887C179.231 156.57 179.157 157.323 179.302 158.048C179.446 158.774 179.802 159.441 180.326 159.964C180.849 160.488 181.516 160.844 182.241 160.988C182.967 161.133 183.72 161.059 184.403 160.775C185.087 160.492 185.671 160.013 186.082 159.397C186.494 158.782 186.713 158.059 186.713 157.319C186.713 156.326 186.319 155.374 185.617 154.673C184.915 153.971 183.964 153.577 182.971 153.577ZM182.971 159.621C182.516 159.621 182.071 159.486 181.692 159.233C181.313 158.98 181.018 158.62 180.844 158.2C180.67 157.779 180.624 157.316 180.713 156.869C180.802 156.423 181.021 156.012 181.343 155.69C181.665 155.368 182.075 155.149 182.522 155.06C182.969 154.971 183.432 155.017 183.853 155.191C184.273 155.365 184.633 155.661 184.886 156.039C185.139 156.418 185.274 156.863 185.274 157.319C185.274 157.929 185.031 158.515 184.6 158.947C184.168 159.379 183.582 159.621 182.971 159.621Z" fill="#E4E4E4"/>
<path d="M168.58 150.698H182.971V164.942C182.971 165.439 182.773 165.916 182.422 166.267C182.07 166.619 181.593 166.816 181.096 166.816H170.455C169.957 166.816 169.48 166.619 169.129 166.267C168.777 165.916 168.58 165.439 168.58 164.942V150.698Z" fill="#E4E4E4"/>
<path d="M216.595 167.143H0.291868C0.211652 167.134 0.137507 167.096 0.0836465 167.036C0.0297856 166.976 0 166.898 0 166.817C0 166.736 0.0297856 166.659 0.0836465 166.598C0.137507 166.538 0.211652 166.5 0.291868 166.491H216.595C216.676 166.5 216.75 166.538 216.804 166.598C216.857 166.659 216.887 166.736 216.887 166.817C216.887 166.898 216.857 166.976 216.804 167.036C216.75 167.096 216.676 167.134 216.595 167.143Z" fill="#CACACA"/>
<path d="M29.1156 160.991L27.7778 167.606L52.6546 175.914L54.6293 166.151L29.1156 160.991Z" fill="#FFB6B6"/>
<path d="M31.6168 159.741L28.9819 172.767L28.9818 172.768C28.5363 174.97 27.2345 176.904 25.3628 178.146C23.491 179.388 21.2026 179.835 19.001 179.39L18.7312 179.335L23.0453 158.007L31.6168 159.741Z" fill="#2F2E41"/>
<path d="M57.3062 69.8775C66.635 69.8775 74.1976 62.315 74.1976 52.9861C74.1976 43.6573 66.635 36.0947 57.3062 36.0947C47.9773 36.0947 40.4148 43.6573 40.4148 52.9861C40.4148 62.315 47.9773 69.8775 57.3062 69.8775Z" fill="#FEB8B8"/>
<path d="M73.083 38.4137C70.5576 34.3129 66.6046 31.2911 61.9848 29.9301L59.9111 31.4434V29.4784C58.8016 29.3086 57.6787 29.2432 56.557 29.283L54.7679 30.9018V29.4175C52.119 29.7467 49.5671 30.6211 47.273 31.9857C44.9788 33.3503 42.9924 35.1754 41.4388 37.3459C37.5535 42.947 36.8977 50.7393 40.7191 56.3853C41.768 53.1614 43.0412 50.1365 44.0905 46.913C44.9149 47.0254 45.7506 47.0294 46.5761 46.925L47.8523 43.947L48.2088 46.799C52.1647 46.4545 58.0322 45.6977 61.7823 45.0044L61.4175 42.8164L63.5993 44.6345C64.7482 44.37 65.4304 44.13 65.3741 43.9467C68.1632 48.4432 71.5766 51.315 74.3654 55.8115C75.4247 49.4712 76.6439 44.1994 73.083 38.4137Z" fill="#2F2E41"/>
<path d="M62.8018 163.52C86.8222 163.52 106.295 158.073 106.295 151.354C106.295 144.635 86.8222 139.188 62.8018 139.188C38.7814 139.188 19.3091 144.635 19.3091 151.354C19.3091 158.073 38.7814 163.52 62.8018 163.52Z" fill="#2F2E41"/>
<path d="M93.6349 96.423C93.0541 92.9285 92.4549 89.367 90.8309 86.219C89.7635 84.1571 88.0691 82.1921 85.785 81.7844C85.3351 81.7443 84.8929 81.642 84.4711 81.4803C83.8019 81.1579 74.8082 76.0238 73.3788 75.1296C72.1514 74.362 70.2139 72.9406 69.237 72.9406C68.2542 72.919 64.4856 73.796 49.7766 72.6462C47.3024 73.6394 44.9064 74.8174 42.6091 76.1703C42.5617 76.139 27.3424 84.3117 26.7706 84.2902C25.6878 84.2446 24.6813 84.9379 24.0605 85.811C23.4399 86.684 23.1488 87.7649 22.844 88.8098C26.1681 96.2127 29.2096 103.625 32.5341 111.028C32.6897 111.307 32.7724 111.62 32.7745 111.94C32.7077 112.271 32.5662 112.583 32.3609 112.851C30.7306 115.47 30.7825 118.764 30.9606 121.842C31.1388 124.92 31.3592 128.171 29.9836 130.93C29.6095 131.687 29.1229 132.381 28.7671 133.138C27.9337 134.854 27.6326 140.34 28.1193 142.184L89.1012 143.931C87.79 140.326 93.6349 96.423 93.6349 96.423Z" fill="#CFFD99"/>
<path d="M17.5729 111.356C17.4512 112.236 17.4389 113.128 17.5364 114.012L18.4104 126.564C18.4925 127.747 18.5732 128.927 18.6843 130.107C18.894 132.397 19.2073 134.669 19.5961 136.938C19.6049 137.26 19.7411 137.566 19.9748 137.787C20.2086 138.009 20.5208 138.129 20.843 138.121C24.6904 138.935 28.6655 138.903 32.5921 138.681C38.5839 138.346 53.9132 137.714 54.8498 136.497C55.7863 135.281 55.2405 133.313 54.0194 132.329C52.7982 131.345 32.569 128.947 32.569 128.947C32.7667 127.38 33.3629 125.905 33.9286 124.418C34.9446 121.78 35.8935 119.056 35.9117 116.23C35.93 113.405 34.8654 110.434 32.5508 108.815C30.6467 107.486 28.1953 107.24 25.8751 107.295C24.187 107.343 21.2702 106.939 19.7283 107.599C18.5081 108.136 17.8008 110.162 17.5729 111.356Z" fill="#FBBEBE"/>
<path d="M93.7426 139.73C94.7553 139.344 95.8716 139.483 96.9573 139.63C100.452 140.107 103.998 140.597 107.238 141.993C108.758 142.644 110.206 143.513 111.234 144.793C112.146 145.946 112.679 147.357 113.184 148.747L114.352 151.947C114.848 153.149 115.191 154.409 115.371 155.697C115.736 159.526 113.117 163.136 109.823 165.126C106.529 167.115 102.652 167.823 98.8737 168.565C95.096 169.308 91.3035 170.128 87.5414 170.999C85.7866 171.454 84.0062 171.804 82.2097 172.048C78.1828 172.504 73.9735 171.832 70.1472 173.164C68.6265 173.697 67.1331 174.487 65.5557 174.855C64.5071 175.076 63.447 175.237 62.3803 175.339L55.1387 176.166C53.6661 176.363 52.1836 176.477 50.6982 176.507C47.5353 176.507 44.4238 175.758 41.3523 175.009C41.026 174.951 40.7153 174.826 40.4405 174.641C39.954 174.257 39.8475 173.579 39.7775 172.965C39.4673 170.246 39.1959 167.524 38.9634 164.799C38.8905 163.914 38.8358 162.956 39.3193 162.211C39.9276 161.299 41.114 161.012 42.1967 160.836C46.788 160.085 51.4392 159.762 56.0902 159.871C57.8572 158.104 60.771 158.095 63.0857 157.134C63.9372 156.743 64.7613 156.295 65.5524 155.793C69.6926 153.377 74.3194 151.915 79.0959 151.513C80.0313 151.485 80.9607 151.352 81.8668 151.118C83.6578 150.562 85.2915 149.047 87.1314 149.418C87.3594 148.789 87.5176 147.946 88.0432 147.514C88.3037 147.292 88.6271 147.143 88.8674 146.906C89.3754 146.392 89.421 145.583 89.3448 144.865C89.2686 144.147 89.0983 143.411 89.2839 142.711C89.3611 142.447 89.4748 142.194 89.6216 141.96C90.5308 140.387 91.9086 139.578 93.7426 139.73Z" fill="#2F2E41"/>
<path d="M22.6681 89.035C22.3719 89.3452 22.1422 89.7127 21.9931 90.1148C19.5346 95.6555 18.0825 101.59 17.7047 107.64C17.7113 107.935 17.6433 108.227 17.507 108.488C17.3726 108.662 17.223 108.824 17.0599 108.972C16.9178 109.14 16.8102 109.335 16.7433 109.545C16.6765 109.755 16.6517 109.977 16.6703 110.196C16.689 110.416 16.7507 110.63 16.852 110.826C16.9533 111.022 17.0922 111.196 17.2607 111.338C17.2884 111.361 17.3167 111.383 17.3458 111.405C17.8477 110.461 19.049 110.152 20.1167 110.07C25.2293 109.665 30.2234 112.044 35.3512 111.864C34.9895 110.614 34.4691 109.413 34.174 108.148C32.8692 102.53 36.1237 96.4141 34.1285 91.0032C33.7299 89.9204 33.0639 88.8559 32.0147 88.3814C31.5803 88.2062 31.1256 88.0859 30.6613 88.0232C29.3656 87.7891 26.7862 86.7884 25.5335 87.1899C25.0711 87.3391 24.8887 87.7738 24.5054 88.0366C23.9232 88.4085 23.1507 88.5452 22.6681 89.035Z" fill="#CFFD99"/>
<path d="M93.6711 107.599C92.1292 106.939 89.2124 107.343 87.5243 107.295C85.2041 107.24 82.7527 107.486 80.8486 108.815C78.534 110.434 77.4694 113.405 77.4877 116.23C77.5059 119.056 78.4548 121.78 79.4708 124.418C80.0365 125.905 80.6327 127.38 80.8304 128.947C80.8304 128.947 60.6012 131.345 59.38 132.329C58.1589 133.313 57.6131 135.281 58.5496 136.497C59.4862 137.714 88.709 138.935 92.5564 138.121C92.8786 138.129 93.1908 138.009 93.4246 137.787C93.6583 137.566 93.7945 137.26 93.8033 136.938C94.1921 134.669 94.5054 132.397 94.7151 130.107C94.8262 128.927 94.9069 127.747 94.989 126.564L95.863 114.012C95.9605 113.128 95.9482 112.236 95.8265 111.356C95.5986 110.162 94.8913 108.136 93.6711 107.599Z" fill="#FBBEBE"/>
<path d="M88.8937 88.0366C88.5104 87.7738 88.328 87.3391 87.8656 87.1899C86.6129 86.7884 84.0335 87.7891 82.7377 88.0232C82.2735 88.0859 81.8188 88.2062 81.3844 88.3814C80.3352 88.8559 79.6692 89.9204 79.2706 91.0032C77.2754 96.4141 80.5299 102.53 79.225 108.148C78.93 109.413 78.4096 110.614 78.0479 111.864C83.1757 112.044 88.1698 109.665 93.2824 110.07C94.3501 110.152 95.5514 110.461 96.0533 111.405C96.0823 111.383 96.1107 111.361 96.1384 111.338C96.3069 111.196 96.4458 111.022 96.5471 110.826C96.6484 110.63 96.7101 110.416 96.7288 110.196C96.7474 109.977 96.7226 109.755 96.6558 109.545C96.5889 109.335 96.4813 109.14 96.3392 108.972C96.1761 108.824 96.0265 108.662 95.8921 108.488C95.7558 108.227 95.6878 107.935 95.6944 107.64C95.3166 101.59 93.8645 95.6555 91.406 90.1148C91.2569 89.7127 91.0272 89.3452 90.731 89.035C90.2484 88.5452 89.4759 88.4085 88.8937 88.0366Z" fill="#CFFD99"/>
<path d="M97.4459 170.434L96.5569 177.123L70.3303 176.878L71.6427 167.004L97.4459 170.434Z" fill="#FFB6B6"/>
<path d="M104.158 169.589L101.291 191.16L101.018 191.124C98.7911 190.828 96.7732 189.659 95.408 187.876C94.0427 186.092 93.4418 183.839 93.7376 181.612L93.7377 181.612L95.4887 168.437L104.158 169.589Z" fill="#2F2E41"/>
<path d="M35.7458 143.115C35.7458 143.419 35.2684 143.115 35.2248 142.79C34.8903 140.329 32.9375 138.3 30.6625 137.315C28.3876 136.329 25.7961 136.278 23.3327 136.512C19.607 136.864 15.4248 138.291 14.0623 141.774C13.7399 142.588 10.7199 149.836 11.0146 151.467C11.8085 155.816 14.7829 159.536 18.3871 162.112C21.9913 164.688 26.2025 166.227 30.4033 167.615C41.5097 171.278 52.9048 174 64.4678 175.751C66.3412 176.034 68.2332 176.296 70.0275 176.898C71.6332 177.436 73.1357 178.242 74.7053 178.875C78.3551 180.34 82.2817 180.864 86.1715 181.378C86.8345 181.463 87.5949 181.524 88.0846 181.074C88.7174 180.488 88.508 179.465 88.3279 178.622C87.6677 175.419 88.2216 172.085 89.8822 169.267C90.5335 168.172 91.3801 167.05 91.257 165.782C91.1111 164.304 89.6389 163.258 88.1729 163.021C86.7068 162.783 85.2167 163.133 83.7441 163.325C83.2395 163.441 82.7108 163.388 82.2387 163.176C82.0199 163.028 81.8215 162.852 81.6486 162.653C80.6345 161.674 79.3367 161.042 77.9412 160.847C76.5457 160.652 75.1242 160.904 73.8808 161.567C73.3363 161.871 72.5131 161.193 71.9465 160.938L65.5502 158.042C58.2021 154.718 50.8175 151.378 43.0434 149.273C42.4231 149.151 41.8336 148.906 41.3097 148.552C40.9235 148.248 40.6467 147.836 40.2908 147.497C39.5151 146.764 38.4346 146.472 37.5049 145.952C36.5752 145.432 35.5328 144.158 35.7458 143.115Z" fill="#2F2E41"/>
<path d="M52.3034 138.721C54.8212 138.721 56.8624 136.679 56.8624 134.162C56.8624 131.644 54.8212 129.603 52.3034 129.603C49.7855 129.603 47.7444 131.644 47.7444 134.162C47.7444 136.679 49.7855 138.721 52.3034 138.721Z" fill="#FBBEBE"/>
<path d="M62.3983 138.721C64.9162 138.721 66.9573 136.679 66.9573 134.162C66.9573 131.644 64.9162 129.603 62.3983 129.603C59.8805 129.603 57.8394 131.644 57.8394 134.162C57.8394 136.679 59.8805 138.721 62.3983 138.721Z" fill="#FBBEBE"/>
<path d="M90.5401 144.434H27.9065C27.1752 144.433 26.4741 144.142 25.957 143.625C25.4399 143.108 25.1491 142.407 25.1482 141.676V103.678C25.1491 102.947 25.4399 102.246 25.957 101.729C26.4741 101.212 27.1752 100.921 27.9065 100.92H90.5401C91.2713 100.921 91.9724 101.212 92.4895 101.729C93.0066 102.246 93.2975 102.947 93.2983 103.678V141.676C93.2975 142.407 93.0066 143.108 92.4895 143.625C91.9724 144.142 91.2713 144.433 90.5401 144.434Z" fill="#3F3D56"/>
<path d="M59.071 124.502C60.0789 124.502 60.8959 123.685 60.8959 122.677C60.8959 121.669 60.0789 120.852 59.071 120.852C58.0631 120.852 57.2461 121.669 57.2461 122.677C57.2461 123.685 58.0631 124.502 59.071 124.502Z" fill="white"/>
<path d="M282.667 68.5321H201.291C200.86 68.5316 200.446 68.3599 200.141 68.0547C199.835 67.7495 199.664 67.3356 199.663 66.9039V51.5662H200.314V66.9039C200.315 67.1629 200.418 67.4113 200.601 67.5944C200.784 67.7776 201.032 67.8806 201.291 67.8809H282.667C282.926 67.8806 283.174 67.7776 283.357 67.5944C283.541 67.4113 283.644 67.1629 283.644 66.9039V51.459H284.295V66.9039C284.295 67.3356 284.123 67.7495 283.818 68.0547C283.512 68.3599 283.099 68.5316 282.667 68.5321Z" fill="#F5F5F5"/>
<path d="M312.166 51.2402H120.942V51.8915H312.166V51.2402Z" fill="#C3C9CA"/>
<path d="M120.956 57.1172C124.05 57.1172 126.558 54.6092 126.558 51.5155C126.558 48.4218 124.05 45.9138 120.956 45.9138C117.863 45.9138 115.355 48.4218 115.355 51.5155C115.355 54.6092 117.863 57.1172 120.956 57.1172Z" fill="#A282E7"/>
<path d="M177.88 57.1172C180.974 57.1172 183.482 54.6092 183.482 51.5155C183.482 48.4218 180.974 45.9138 177.88 45.9138C174.787 45.9138 172.279 48.4218 172.279 51.5155C172.279 54.6092 174.787 57.1172 177.88 57.1172Z" fill="#D06D6A"/>
<path d="M216.511 73.5816C219.605 73.5816 222.113 71.0736 222.113 67.9799C222.113 64.8861 219.605 62.3782 216.511 62.3782C213.418 62.3782 210.91 64.8861 210.91 67.9799C210.91 71.0736 213.418 73.5816 216.511 73.5816Z" fill="#3F3D56"/>
<path d="M245.88 73.5816C248.974 73.5816 251.482 71.0736 251.482 67.9799C251.482 64.8861 248.974 62.3782 245.88 62.3782C242.787 62.3782 240.279 64.8861 240.279 67.9799C240.279 71.0736 242.787 73.5816 245.88 73.5816Z" fill="#D06D6A"/>
<path d="M231.649 57.1172C234.743 57.1172 237.251 54.6092 237.251 51.5155C237.251 48.4218 234.743 45.9138 231.649 45.9138C228.555 45.9138 226.047 48.4218 226.047 51.5155C226.047 54.6092 228.555 57.1172 231.649 57.1172Z" fill="#A282E7"/>
<path d="M311.398 57.1172C314.491 57.1172 316.999 54.6092 316.999 51.5155C316.999 48.4218 314.491 45.9138 311.398 45.9138C308.304 45.9138 305.796 48.4218 305.796 51.5155C305.796 54.6092 308.304 57.1172 311.398 57.1172Z" fill="#A282E7"/>
<path d="M283.97 57.1172C287.064 57.1172 289.572 54.6092 289.572 51.5155C289.572 48.4218 287.064 45.9138 283.97 45.9138C280.876 45.9138 278.368 48.4218 278.368 51.5155C278.368 54.6092 280.876 57.1172 283.97 57.1172Z" fill="#A282E7"/>
<path d="M138.327 51.8918C138.24 51.8918 138.158 51.8575 138.097 51.7964C138.036 51.7354 138.001 51.6525 138.001 51.5662V35.4917C138.002 35.0601 138.173 34.6462 138.479 34.341C138.784 34.0357 139.198 33.864 139.629 33.8635H155.48C155.566 33.8635 155.649 33.8978 155.71 33.9589C155.771 34.02 155.806 34.1028 155.806 34.1892C155.806 34.2755 155.771 34.3584 155.71 34.4194C155.649 34.4805 155.566 34.5148 155.48 34.5148H139.629C139.37 34.5151 139.122 34.6181 138.939 34.8013C138.756 34.9844 138.653 35.2327 138.653 35.4917V51.5662C138.652 51.6525 138.618 51.7354 138.557 51.7964C138.496 51.8575 138.413 51.8918 138.327 51.8918Z" fill="#C3C9CA"/>
<path d="M156.225 39.669C159.319 39.669 161.827 37.161 161.827 34.0673C161.827 30.9735 159.319 28.4656 156.225 28.4656C153.131 28.4656 150.624 30.9735 150.624 34.0673C150.624 37.161 153.131 39.669 156.225 39.669Z" fill="#CFFD99"/>
<path d="M263.698 51.5662H263.047V35.4917C263.048 35.0601 263.219 34.6462 263.525 34.341C263.83 34.0357 264.244 33.864 264.675 33.8635H280.526V34.5148H264.675C264.416 34.5151 264.168 34.6181 263.985 34.8013C263.802 34.9844 263.699 35.2327 263.698 35.4917V51.5662Z" fill="#3F3D56"/>
<path d="M281.271 39.669C284.365 39.669 286.873 37.161 286.873 34.0673C286.873 30.9735 284.365 28.4656 281.271 28.4656C278.177 28.4656 275.669 30.9735 275.669 34.0673C275.669 37.161 278.177 39.669 281.271 39.669Z" fill="#CFFD99"/>
</g>
<defs>
<clipPath id="clip0_85_2985">
<rect width="317" height="191.16" fill="white"/>
</clipPath>
</defs>
</svg>
