<svg width="330" height="257" viewBox="0 0 330 257" fill="none" xmlns="http://www.w3.org/2000/svg">
<g clip-path="url(#clip0_77_1929)">
<path d="M297.541 153.622C297.584 185.423 283.837 216.001 259.189 238.927C257.703 240.318 256.176 241.676 254.61 243C252.224 245.029 249.758 246.98 247.211 248.852C223.39 266.4 193.651 276.261 162.792 276.844C161.764 276.865 160.732 276.875 159.696 276.875C135.086 276.875 104.132 265.122 76.0418 248.852C73.7178 247.506 71.4144 246.129 69.1317 244.72C68.0648 244.068 67.003 243.407 65.9463 242.736C55.1122 235.896 44.8285 228.384 35.171 220.256C28.8479 214.95 22.9184 209.281 17.4205 203.286C-4.16341 179.481 -8.92405 158.031 21.8474 153.622C25.4906 153.102 29.0265 152.546 32.4551 151.954C37.4213 151.1 42.1742 150.179 46.7137 149.189C52.8284 147.86 58.5732 146.419 63.9482 144.866C65.7562 144.346 67.5229 143.815 69.2481 143.274C94.7546 135.264 111.826 124.818 123.446 113.485C125.417 111.566 127.234 109.625 128.898 107.66C131.442 104.67 133.754 101.526 135.816 98.2521C138.661 93.7028 141.052 88.9373 142.958 84.0115L143.063 83.7409C152.309 59.8944 149.496 37.7756 159.696 30.3725C203.299 -1.27591 257.582 43.7944 283.062 96.9443C284.346 99.6224 285.554 102.317 286.685 105.027C287.194 106.238 287.684 107.451 288.156 108.666C289.397 111.834 290.524 115.009 291.535 118.192C291.923 119.407 292.293 120.62 292.645 121.831C293.021 123.139 293.382 124.444 293.716 125.748C296.195 135.298 297.541 144.717 297.541 153.622Z" fill="url(#paint0_linear_77_1929)" fill-opacity="0.32"/>
<path d="M240.825 186.444H66.9455C65.4622 186.443 64.0403 185.915 62.9915 184.977C61.9427 184.04 61.3527 182.768 61.3511 181.442V88.024C61.3523 87.0524 61.7845 86.121 62.5528 85.434C63.3211 84.747 64.3629 84.3605 65.4495 84.3594H242.25C243.356 84.3605 244.415 84.7536 245.197 85.4525C245.979 86.1514 246.418 87.099 246.42 88.0874V181.442C246.418 182.768 245.828 184.04 244.779 184.977C243.73 185.915 242.308 186.443 240.825 186.444Z" fill="#F2F2F2"/>
<path d="M72.3716 181.442H235.402C236.84 181.442 238.22 180.931 239.238 180.021C240.255 179.111 240.826 177.878 240.826 176.591V97.3021C240.826 96.0157 240.255 94.782 239.238 93.8723C238.22 92.9627 236.84 92.4517 235.402 92.4517H72.3716C70.9329 92.4517 69.553 92.9627 68.5357 93.8723C67.5183 94.782 66.9468 96.0157 66.9468 97.3021V176.591C66.9468 177.878 67.5183 179.111 68.5357 180.021C69.553 180.931 70.9329 181.442 72.3716 181.442Z" fill="white"/>
<path d="M246.341 87.7373H61.2715V85.1907C61.2736 83.8601 61.866 82.5847 62.9186 81.6441C63.9712 80.7035 65.3981 80.1747 66.8862 80.1736H240.726C242.214 80.1747 243.641 80.7035 244.693 81.6441C245.746 82.5847 246.338 83.8601 246.341 85.1907V87.7373Z" fill="#6946B3"/>
<path d="M71.4777 85.2609C72.2798 85.2609 72.93 84.6795 72.93 83.9624C72.93 83.2452 72.2798 82.6638 71.4777 82.6638C70.6756 82.6638 70.0254 83.2452 70.0254 83.9624C70.0254 84.6795 70.6756 85.2609 71.4777 85.2609Z" fill="white"/>
<path d="M76.9914 85.2609C77.7935 85.2609 78.4437 84.6795 78.4437 83.9624C78.4437 83.2452 77.7935 82.6638 76.9914 82.6638C76.1893 82.6638 75.5391 83.2452 75.5391 83.9624C75.5391 84.6795 76.1893 85.2609 76.9914 85.2609Z" fill="white"/>
<path d="M82.5006 85.2609C83.3027 85.2609 83.953 84.6795 83.953 83.9624C83.953 83.2452 83.3027 82.6638 82.5006 82.6638C81.6986 82.6638 81.0483 83.2452 81.0483 83.9624C81.0483 84.6795 81.6986 85.2609 82.5006 85.2609Z" fill="white"/>
<path d="M158.97 164.247H144.39C143.536 164.246 142.718 163.942 142.114 163.402C141.51 162.862 141.17 162.13 141.169 161.367V148.331C141.17 147.568 141.51 146.836 142.114 146.296C142.718 145.756 143.536 145.452 144.39 145.451H158.97C159.824 145.452 160.642 145.756 161.246 146.296C161.85 146.836 162.19 147.568 162.191 148.331V161.367C162.19 162.13 161.85 162.862 161.246 163.402C160.642 163.942 159.824 164.246 158.97 164.247ZM144.39 146.057C143.716 146.058 143.07 146.298 142.593 146.724C142.116 147.15 141.848 147.728 141.848 148.331V161.367C141.848 161.97 142.116 162.547 142.593 162.974C143.07 163.4 143.716 163.64 144.39 163.64H158.97C159.644 163.64 160.29 163.4 160.767 162.974C161.244 162.547 161.512 161.97 161.513 161.367V148.331C161.512 147.728 161.244 147.15 160.767 146.724C160.29 146.298 159.644 146.058 158.97 146.057H144.39Z" fill="#CCCCCC"/>
<path d="M156.09 160.607H147.275C147.005 160.607 146.747 160.511 146.556 160.341C146.365 160.17 146.258 159.939 146.258 159.698V149.997C146.258 149.756 146.365 149.525 146.556 149.354C146.747 149.184 147.005 149.088 147.275 149.088H153.663C153.894 149.088 154.119 149.159 154.3 149.288L156.727 151.033C156.846 151.118 156.942 151.225 157.008 151.348C157.074 151.471 157.108 151.605 157.108 151.741V159.698C157.107 159.939 157 160.17 156.809 160.341C156.619 160.511 156.36 160.607 156.09 160.607ZM147.275 149.694C147.185 149.694 147.099 149.726 147.035 149.783C146.972 149.84 146.936 149.917 146.936 149.997V159.698C146.936 159.778 146.972 159.855 147.035 159.912C147.099 159.969 147.185 160.001 147.275 160.001H156.09C156.18 160.001 156.266 159.969 156.33 159.912C156.394 159.855 156.429 159.778 156.429 159.698V151.741C156.43 151.696 156.418 151.651 156.396 151.61C156.374 151.569 156.342 151.534 156.303 151.505L153.875 149.761C153.815 149.718 153.74 149.694 153.663 149.694H147.275Z" fill="#CCCCCC"/>
<path d="M154.393 153.333H148.968C148.878 153.333 148.792 153.301 148.728 153.244C148.665 153.187 148.629 153.11 148.629 153.029C148.629 152.949 148.665 152.872 148.728 152.815C148.792 152.758 148.878 152.726 148.968 152.726H154.393C154.483 152.726 154.569 152.758 154.633 152.815C154.696 152.872 154.732 152.949 154.732 153.029C154.732 153.11 154.696 153.187 154.633 153.244C154.569 153.301 154.483 153.333 154.393 153.333Z" fill="#CCCCCC"/>
<path d="M154.393 155.153H148.968C148.878 155.153 148.792 155.121 148.728 155.064C148.665 155.007 148.629 154.93 148.629 154.85C148.629 154.769 148.665 154.692 148.728 154.635C148.792 154.578 148.878 154.546 148.968 154.546H154.393C154.483 154.546 154.569 154.578 154.633 154.635C154.696 154.692 154.732 154.769 154.732 154.85C154.732 154.93 154.696 155.007 154.633 155.064C154.569 155.121 154.483 155.153 154.393 155.153Z" fill="#CCCCCC"/>
<path d="M154.393 156.97H148.968C148.878 156.97 148.792 156.938 148.728 156.881C148.665 156.824 148.629 156.747 148.629 156.667C148.629 156.587 148.665 156.509 148.728 156.453C148.792 156.396 148.878 156.364 148.968 156.364H154.393C154.483 156.364 154.569 156.396 154.633 156.453C154.696 156.509 154.732 156.587 154.732 156.667C154.732 156.747 154.696 156.824 154.633 156.881C154.569 156.938 154.483 156.97 154.393 156.97Z" fill="#CCCCCC"/>
<path d="M193.553 164.247H178.973C178.119 164.246 177.301 163.942 176.697 163.402C176.093 162.862 175.753 162.13 175.752 161.367V148.331C175.753 147.568 176.093 146.836 176.697 146.296C177.301 145.756 178.119 145.452 178.973 145.451H193.553C194.407 145.452 195.225 145.756 195.829 146.296C196.433 146.836 196.773 147.568 196.774 148.331V161.367C196.773 162.13 196.433 162.862 195.829 163.402C195.225 163.942 194.407 164.246 193.553 164.247ZM178.973 146.057C178.299 146.058 177.653 146.298 177.176 146.724C176.699 147.15 176.431 147.728 176.431 148.331V161.367C176.431 161.97 176.699 162.547 177.176 162.974C177.653 163.4 178.299 163.64 178.973 163.64H193.553C194.227 163.64 194.873 163.4 195.35 162.974C195.827 162.547 196.095 161.97 196.096 161.367V148.331C196.095 147.728 195.827 147.15 195.35 146.724C194.873 146.298 194.227 146.058 193.553 146.057H178.973Z" fill="#CCCCCC"/>
<path d="M191.012 158.184H181.518C181.248 158.184 180.99 158.088 180.799 157.917C180.609 157.747 180.501 157.516 180.501 157.275V152.424C180.501 152.183 180.609 151.952 180.799 151.781C180.99 151.611 181.248 151.515 181.518 151.515H191.012C191.281 151.515 191.54 151.611 191.731 151.781C191.921 151.952 192.029 152.183 192.029 152.424V157.275C192.029 157.516 191.921 157.747 191.731 157.917C191.54 158.088 191.281 158.184 191.012 158.184ZM181.518 152.121C181.428 152.121 181.342 152.153 181.278 152.21C181.215 152.267 181.179 152.344 181.179 152.424V157.275C181.179 157.355 181.215 157.432 181.278 157.489C181.342 157.546 181.428 157.578 181.518 157.578H191.012C191.102 157.578 191.188 157.546 191.251 157.489C191.315 157.432 191.351 157.355 191.351 157.275V152.424C191.351 152.344 191.315 152.267 191.251 152.21C191.188 152.153 191.102 152.121 191.012 152.121H181.518Z" fill="#CCCCCC"/>
<path d="M186.264 155.65C186.074 155.65 185.887 155.602 185.725 155.512L180.66 152.682C180.584 152.639 180.53 152.571 180.51 152.493C180.489 152.414 180.505 152.332 180.553 152.264C180.6 152.196 180.676 152.148 180.764 152.129C180.851 152.111 180.943 152.125 181.019 152.167L186.085 154.998C186.139 155.028 186.201 155.044 186.265 155.044C186.328 155.044 186.39 155.028 186.444 154.998L191.509 152.167C191.586 152.125 191.678 152.111 191.765 152.129C191.853 152.148 191.929 152.196 191.976 152.264C192.024 152.332 192.039 152.414 192.019 152.493C191.999 152.571 191.945 152.639 191.869 152.682L186.804 155.512C186.642 155.602 186.455 155.65 186.264 155.65Z" fill="#CCCCCC"/>
<path d="M124.39 164.247H109.811C108.957 164.246 108.138 163.942 107.534 163.402C106.93 162.862 106.591 162.13 106.59 161.367V148.331C106.591 147.568 106.93 146.836 107.534 146.296C108.138 145.756 108.957 145.452 109.811 145.451H124.39C125.244 145.452 126.063 145.756 126.667 146.296C127.271 146.836 127.61 147.568 127.611 148.331V161.367C127.61 162.13 127.271 162.862 126.667 163.402C126.063 163.942 125.244 164.246 124.39 164.247ZM109.811 146.057C109.137 146.058 108.49 146.298 108.014 146.724C107.537 147.15 107.269 147.728 107.268 148.331V161.367C107.269 161.97 107.537 162.547 108.014 162.974C108.49 163.4 109.137 163.64 109.811 163.64H124.39C125.064 163.64 125.711 163.4 126.187 162.974C126.664 162.547 126.932 161.97 126.933 161.367V148.331C126.932 147.728 126.664 147.15 126.187 146.724C125.711 146.298 125.064 146.058 124.39 146.057H109.811Z" fill="#CCCCCC"/>
<path d="M121.848 158.184H112.355C112.085 158.184 111.826 158.088 111.636 157.917C111.445 157.747 111.338 157.516 111.337 157.275V152.424C111.338 152.183 111.445 151.952 111.636 151.781C111.826 151.611 112.085 151.515 112.355 151.515H121.848C122.118 151.515 122.376 151.611 122.567 151.781C122.758 151.952 122.865 152.183 122.865 152.424V157.275C122.865 157.516 122.758 157.747 122.567 157.917C122.376 158.088 122.118 158.184 121.848 158.184ZM112.355 152.121C112.265 152.121 112.178 152.153 112.115 152.21C112.051 152.267 112.016 152.344 112.016 152.424V157.275C112.016 157.355 112.051 157.432 112.115 157.489C112.178 157.546 112.265 157.578 112.355 157.578H121.848C121.938 157.578 122.024 157.546 122.088 157.489C122.151 157.432 122.187 157.355 122.187 157.275V152.424C122.187 152.344 122.151 152.267 122.088 152.21C122.024 152.153 121.938 152.121 121.848 152.121H112.355Z" fill="#CCCCCC"/>
<path d="M120.342 158.183H113.519C113.4 158.183 113.283 158.155 113.18 158.102C113.077 158.049 112.991 157.972 112.932 157.88C112.872 157.788 112.841 157.683 112.841 157.577C112.841 157.471 112.872 157.366 112.932 157.274L114.987 154.091C115.046 153.999 115.132 153.922 115.235 153.869C115.338 153.816 115.455 153.788 115.574 153.788C115.693 153.788 115.81 153.816 115.913 153.869C116.016 153.922 116.102 153.999 116.162 154.091L117.489 156.147L118.258 154.956C118.317 154.863 118.403 154.787 118.506 154.734C118.609 154.68 118.726 154.652 118.845 154.652C118.964 154.652 119.081 154.68 119.184 154.734C119.287 154.787 119.373 154.863 119.433 154.956L120.929 157.274C120.989 157.366 121.02 157.471 121.02 157.577C121.02 157.683 120.989 157.788 120.929 157.88C120.87 157.972 120.784 158.049 120.681 158.102C120.578 158.155 120.461 158.183 120.342 158.183ZM120.342 157.577L118.845 155.259L117.783 156.904C117.753 156.95 117.71 156.989 117.659 157.015C117.607 157.042 117.549 157.056 117.489 157.056C117.429 157.056 117.371 157.042 117.319 157.015C117.268 156.989 117.225 156.95 117.195 156.904L115.574 154.394L113.519 157.577H120.342Z" fill="#CCCCCC"/>
<path d="M120.828 153.939C121.202 153.939 121.506 153.667 121.506 153.333C121.506 152.998 121.202 152.726 120.828 152.726C120.453 152.726 120.149 152.998 120.149 153.333C120.149 153.667 120.453 153.939 120.828 153.939Z" fill="#CCCCCC"/>
<path d="M88.9556 137.234H74.3763C73.5223 137.233 72.7036 136.929 72.0998 136.389C71.4959 135.849 71.1562 135.117 71.1553 134.354V121.318C71.1562 120.555 71.4959 119.823 72.0998 119.283C72.7036 118.743 73.5223 118.439 74.3763 118.438H88.9556C89.8096 118.439 90.6283 118.743 91.2321 119.283C91.836 119.823 92.1756 120.555 92.1766 121.318V134.354C92.1756 135.117 91.836 135.849 91.2321 136.389C90.6283 136.929 89.8096 137.233 88.9556 137.234Z" fill="white"/>
<path d="M88.9556 137.234H74.3763C73.5223 137.233 72.7036 136.929 72.0998 136.389C71.4959 135.849 71.1562 135.117 71.1553 134.354V121.318C71.1562 120.555 71.4959 119.823 72.0998 119.283C72.7036 118.743 73.5223 118.439 74.3763 118.438H88.9556C89.8096 118.439 90.6283 118.743 91.2321 119.283C91.836 119.823 92.1756 120.555 92.1766 121.318V134.354C92.1756 135.117 91.836 135.849 91.2321 136.389C90.6283 136.929 89.8096 137.233 88.9556 137.234ZM74.3763 119.045C73.7021 119.045 73.0557 119.285 72.579 119.711C72.1023 120.137 71.8341 120.715 71.8334 121.318V134.354C71.8341 134.957 72.1023 135.535 72.579 135.961C73.0557 136.387 73.7021 136.627 74.3763 136.627H88.9556C89.6298 136.627 90.2761 136.387 90.7529 135.961C91.2296 135.535 91.4977 134.957 91.4985 134.354V121.318C91.4977 120.715 91.2296 120.137 90.7529 119.711C90.2761 119.285 89.6298 119.045 88.9556 119.045H74.3763Z" fill="#3F3D56"/>
<path d="M86.413 131.929H76.9195C76.6498 131.929 76.3913 131.833 76.2006 131.662C76.0099 131.492 75.9026 131.26 75.9023 131.019V124.653C75.9026 124.412 76.0099 124.181 76.2006 124.01C76.3913 123.84 76.6498 123.744 76.9195 123.744H79.592C79.7659 123.743 79.9369 123.783 80.0887 123.858C80.2404 123.934 80.3678 124.044 80.4584 124.176L81.2037 125.259H86.413C86.6827 125.26 86.9412 125.356 87.1319 125.526C87.3226 125.697 87.4299 125.928 87.4302 126.169V131.019C87.4299 131.26 87.3226 131.492 87.1319 131.662C86.9412 131.833 86.6827 131.929 86.413 131.929Z" fill="#6C63FF"/>
<path d="M56.5962 142.385C60.9352 142.385 64.4526 139.24 64.4526 135.36C64.4526 131.481 60.9352 128.336 56.5962 128.336C52.2572 128.336 48.7397 131.481 48.7397 135.36C48.7397 139.24 52.2572 142.385 56.5962 142.385Z" fill="#A0616A"/>
<path d="M75.882 130.523C75.9594 130.578 76.0345 130.637 76.1071 130.698C76.4681 131.002 76.7531 131.371 76.9435 131.78C77.1339 132.19 77.2254 132.63 77.2121 133.074C77.1987 133.517 77.0808 133.952 76.866 134.352C76.6512 134.752 76.3444 135.106 75.9657 135.392C75.8774 135.458 75.7853 135.521 75.6898 135.578L76.2215 151.629C76.2366 152.154 76.0619 152.67 75.7232 153.099C75.3846 153.529 74.9 153.85 74.3415 154.014L74.3091 154.02L59.7336 155.408C59.3373 155.445 58.9366 155.412 58.5547 155.311C58.1727 155.209 57.817 155.041 57.5081 154.816C57.1993 154.591 56.9433 154.313 56.7551 153.999C56.5669 153.685 56.4502 153.341 56.4116 152.986C56.3731 152.632 56.4135 152.274 56.5305 151.933C56.6475 151.592 56.8388 151.276 57.0934 151.002C57.348 150.728 57.6607 150.501 58.0137 150.336C58.3666 150.17 58.7527 150.069 59.1497 150.038L69.5397 149.22L71.3366 135.32C71.2191 135.227 71.109 135.126 71.0072 135.02C70.4438 134.423 70.1483 133.661 70.1781 132.881C70.2079 132.101 70.5609 131.359 71.1684 130.799C71.776 130.238 72.5948 129.9 73.4658 129.849C74.3369 129.798 75.198 130.038 75.882 130.523Z" fill="#A0616A"/>
<path d="M69.5358 233.124H73.4577L75.3231 219.599H69.5352L69.5358 233.124Z" fill="#A0616A"/>
<path d="M68.5386 231.978L76.2615 231.978C76.9079 231.978 77.5482 232.092 78.1453 232.313C78.7425 232.534 79.285 232.858 79.7421 233.267C80.1991 233.676 80.5616 234.161 80.809 234.695C81.0563 235.228 81.1836 235.801 81.1836 236.379V236.522L68.5388 236.522L68.5386 231.978Z" fill="#2F2E41"/>
<path d="M30.5576 228.276L33.9271 230.069L43.2691 219.302L38.2958 216.655L30.5576 228.276Z" fill="#A0616A"/>
<path d="M30.3512 226.834L36.987 230.367C37.5424 230.663 38.0274 231.053 38.4139 231.517C38.8005 231.98 39.0812 232.506 39.24 233.067C39.3989 233.627 39.4328 234.209 39.3398 234.781C39.2468 235.353 39.0288 235.903 38.6981 236.4L38.6163 236.523L27.7515 230.739L30.3512 226.834Z" fill="#2F2E41"/>
<path d="M74.3825 228.346H69.9912C69.6356 228.346 69.2924 228.229 69.0281 228.016C68.7637 227.804 68.5969 227.511 68.5599 227.195L64.1328 189.987C64.1216 189.893 64.0763 189.805 64.0038 189.737C63.9313 189.669 63.8357 189.623 63.7317 189.609C63.6276 189.594 63.521 189.61 63.4283 189.654C63.3355 189.699 63.2617 189.77 63.2183 189.855L55.2318 205.668L41.092 226.283C40.909 226.547 40.6257 226.744 40.2939 226.836C39.9621 226.929 39.604 226.912 39.2852 226.788L33.6365 224.566C33.4497 224.492 33.2826 224.384 33.1461 224.248C33.0097 224.113 32.907 223.953 32.845 223.779C32.7829 223.605 32.763 223.421 32.7863 223.24C32.8097 223.059 32.8759 222.884 32.9805 222.727L45.9788 203.267L49.9653 186.871C48.7115 179.761 54.0865 169.189 54.141 169.083L54.1677 169.032L68.9733 163.857L69.0475 163.939C74.8864 181.071 78.4444 199.508 75.8173 227.167C75.7849 227.488 75.62 227.786 75.3547 228.004C75.0894 228.222 74.7428 228.344 74.3825 228.346Z" fill="#2F2E41"/>
<path d="M53.5736 170.765L53.5047 170.636C53.4717 170.574 50.1796 164.365 47.6418 157.73C47.154 156.447 46.9697 155.087 47.1003 153.737C47.231 152.387 47.6738 151.076 48.4008 149.886C49.1372 148.685 50.1447 147.633 51.3594 146.798C52.5741 145.963 53.9695 145.362 55.4574 145.035C58.0403 144.481 60.7596 144.776 63.12 145.865C65.4804 146.953 67.3247 148.764 68.3169 150.967C70.3299 155.468 69.6884 160.272 69.0846 164.05L69.0726 164.126L68.9956 164.159L53.5736 170.765Z" fill="#3F3D56"/>
<path d="M66.1235 131.391H53.6484V126.529C56.3866 125.557 59.066 124.729 60.6857 126.529C62.1279 126.529 63.511 127.041 64.5308 127.953C65.5506 128.865 66.1235 130.102 66.1235 131.391Z" fill="#2F2E41"/>
<path d="M52.9569 125.671C45.4991 125.671 43.4116 134.03 43.4116 138.745C43.4116 141.375 44.7417 142.315 46.8318 142.634L47.57 139.114L49.2988 142.785C49.8859 142.788 50.5027 142.777 51.1422 142.767L51.7283 141.688L53.0355 142.747C58.2708 142.754 62.5021 143.437 62.5021 138.745C62.5021 134.03 60.6714 125.671 52.9569 125.671Z" fill="#2F2E41"/>
<path d="M87.7332 236.851H22.635C22.545 236.851 22.4588 236.819 22.3952 236.763C22.3316 236.706 22.2959 236.629 22.2959 236.548C22.2959 236.468 22.3316 236.391 22.3952 236.334C22.4588 236.277 22.545 236.245 22.635 236.245H87.7332C87.8231 236.245 87.9094 236.277 87.973 236.334C88.0366 236.391 88.0723 236.468 88.0723 236.548C88.0723 236.629 88.0366 236.706 87.973 236.763C87.9094 236.819 87.8231 236.851 87.7332 236.851Z" fill="#CCCCCC"/>
<path d="M88.9575 137.115H74.3782C73.5243 137.114 72.7056 136.81 72.1017 136.27C71.4979 135.73 71.1582 134.998 71.1572 134.235V121.199C71.1582 120.436 71.4979 119.703 72.1017 119.164C72.7056 118.624 73.5243 118.32 74.3782 118.319H88.9575C89.8115 118.32 90.6302 118.624 91.2341 119.164C91.8379 119.703 92.1776 120.436 92.1785 121.199V134.235C92.1776 134.998 91.8379 135.73 91.2341 136.27C90.6302 136.81 89.8115 137.114 88.9575 137.115Z" fill="white"/>
<path d="M88.9575 137.115H74.3782C73.5243 137.114 72.7056 136.81 72.1017 136.27C71.4979 135.73 71.1582 134.998 71.1572 134.235V121.199C71.1582 120.436 71.4979 119.703 72.1017 119.164C72.7056 118.624 73.5243 118.32 74.3782 118.319H88.9575C89.8115 118.32 90.6302 118.624 91.2341 119.164C91.8379 119.703 92.1776 120.436 92.1785 121.199V134.235C92.1776 134.998 91.8379 135.73 91.2341 136.27C90.6302 136.81 89.8115 137.114 88.9575 137.115ZM74.3782 118.925C73.704 118.926 73.0577 119.166 72.581 119.592C72.1042 120.018 71.8361 120.596 71.8353 121.199V134.235C71.8361 134.837 72.1042 135.415 72.581 135.842C73.0577 136.268 73.704 136.508 74.3782 136.508H88.9575C89.6317 136.508 90.2781 136.268 90.7548 135.842C91.2315 135.415 91.4997 134.837 91.5004 134.235V121.199C91.4997 120.596 91.2315 120.018 90.7548 119.592C90.2781 119.166 89.6317 118.926 88.9575 118.925H74.3782Z" fill="#3F3D56"/>
<path d="M86.415 131.81H76.9215C76.6518 131.81 76.3932 131.714 76.2025 131.544C76.0119 131.373 75.9046 131.142 75.9043 130.901V124.535C75.9046 124.294 76.0119 124.062 76.2025 123.892C76.3932 123.721 76.6518 123.626 76.9215 123.625H79.594C79.7678 123.625 79.9389 123.664 80.0906 123.74C80.2424 123.816 80.3697 123.925 80.4603 124.058L81.2057 125.141H86.415C86.6846 125.141 86.9432 125.237 87.1339 125.408C87.3246 125.578 87.4318 125.809 87.4321 126.05V130.901C87.4318 131.142 87.3246 131.373 87.1339 131.544C86.9432 131.714 86.6846 131.81 86.415 131.81Z" fill="#6946B3"/>
<path d="M86.103 135.025C86.1504 135.103 86.1942 135.183 86.2344 135.265C86.4351 135.67 86.5378 136.109 86.5356 136.552C86.5335 136.996 86.4266 137.434 86.2219 137.837C86.0173 138.241 85.7195 138.602 85.3482 138.896C84.9768 139.189 84.5402 139.41 84.067 139.542C83.9569 139.572 83.845 139.598 83.732 139.618L77.2562 154.595C77.0421 155.084 76.6572 155.499 76.1587 155.778C75.6601 156.056 75.0744 156.183 74.4884 156.141L74.4559 156.135L60.4202 152.357C60.0386 152.254 59.6836 152.085 59.3755 151.859C59.0675 151.633 58.8127 151.354 58.6257 151.04C58.4387 150.725 58.3233 150.38 58.2861 150.026C58.2489 149.671 58.2907 149.313 58.4091 148.973C58.5275 148.633 58.7201 148.317 58.9758 148.043C59.2315 147.77 59.5452 147.545 59.8988 147.38C60.2524 147.216 60.639 147.116 61.0361 147.086C61.4332 147.056 61.833 147.097 62.2125 147.206L72.1435 150.056L79.832 137.869C79.764 137.743 79.7061 137.612 79.6586 137.478C79.3982 136.733 79.4566 135.928 79.8226 135.22C80.1886 134.511 80.8361 133.95 81.6392 133.644C82.4424 133.338 83.3439 133.31 84.1688 133.566C84.9937 133.821 85.683 134.341 86.103 135.025Z" fill="#A0616A"/>
<path d="M273.155 238.901L268.998 238.9L267.021 224.565L273.156 224.565L273.155 238.901Z" fill="#FFB8B8"/>
<path d="M274.217 242.504L260.814 242.503V242.352C260.814 241.739 260.949 241.133 261.212 240.567C261.474 240.001 261.858 239.487 262.342 239.054C262.827 238.621 263.402 238.277 264.035 238.043C264.668 237.808 265.346 237.687 266.031 237.688H266.032L274.218 237.688L274.217 242.504Z" fill="#2F2E41"/>
<path d="M290.11 238.901L285.953 238.9L283.976 224.565L290.111 224.565L290.11 238.901Z" fill="#FFB8B8"/>
<path d="M291.17 242.504L277.767 242.503V242.352C277.767 241.739 277.902 241.133 278.164 240.567C278.426 240.001 278.811 239.487 279.295 239.054C279.779 238.621 280.355 238.277 280.988 238.043C281.62 237.808 282.299 237.687 282.984 237.688H282.984L291.17 237.688L291.17 242.504Z" fill="#2F2E41"/>
<path d="M288.862 232.687L285.012 231.64C284.725 231.562 284.47 231.41 284.28 231.204C284.089 230.997 283.97 230.744 283.939 230.478L280.35 200.064C280.347 200.027 280.329 199.992 280.299 199.967C280.268 199.942 280.229 199.928 280.188 199.928C280.146 199.924 280.105 199.935 280.073 199.959C280.04 199.982 280.02 200.015 280.014 200.052L274.003 229.518C273.966 229.697 273.89 229.868 273.779 230.02C273.668 230.172 273.524 230.303 273.355 230.404C273.187 230.506 272.997 230.576 272.798 230.612C272.598 230.647 272.393 230.646 272.194 230.61L267.274 229.703C266.913 229.636 266.591 229.454 266.368 229.192C266.145 228.929 266.036 228.604 266.059 228.275L269.716 179.979L294.514 177.586L290.829 231.465C290.805 231.811 290.635 232.137 290.352 232.375C290.07 232.613 289.697 232.746 289.309 232.746C289.157 232.746 289.007 232.726 288.862 232.687Z" fill="#2F2E41"/>
<path d="M288.839 137.919C293.438 137.919 297.167 134.585 297.167 130.473C297.167 126.361 293.438 123.027 288.839 123.027C284.24 123.027 280.512 126.361 280.512 130.473C280.512 134.585 284.24 137.919 288.839 137.919Z" fill="#FFB8B8"/>
<path d="M269.681 180.263L275.057 149.993C275.343 148.383 276.009 146.847 277.011 145.485C278.013 144.124 279.327 142.969 280.867 142.097C282.407 141.225 284.137 140.657 285.941 140.429C287.746 140.201 289.584 140.32 291.334 140.777C294.393 141.568 297.012 143.35 298.679 145.775C300.347 148.2 300.944 151.095 300.353 153.892L294.728 180.925L269.681 180.263Z" fill="#AE64EF"/>
<path d="M291.141 185.678C291.557 185.432 291.908 185.108 292.169 184.728C292.429 184.348 292.594 183.922 292.65 183.479C292.707 183.036 292.654 182.588 292.496 182.165C292.337 181.743 292.077 181.356 291.734 181.033L297.293 171.408L291.032 172.005L286.713 181.054C286.144 181.606 285.822 182.325 285.807 183.075C285.791 183.825 286.085 184.555 286.63 185.124C287.176 185.694 287.937 186.065 288.768 186.167C289.6 186.269 290.444 186.095 291.141 185.678Z" fill="#FFB8B8"/>
<g filter="url(#filter0_di_77_1929)">
<path d="M292.331 179.335C292.023 179.297 291.736 179.175 291.508 178.987L289.381 177.229C289.151 177.039 288.992 176.789 288.926 176.515C288.86 176.241 288.889 175.956 289.011 175.697L293.262 166.688L292.658 148.887C292.745 148.315 292.957 147.763 293.282 147.264C293.607 146.765 294.039 146.329 294.553 145.979C295.067 145.629 295.654 145.374 296.278 145.227C296.903 145.08 297.553 145.044 298.193 145.122C298.833 145.2 299.45 145.39 300.007 145.682C300.565 145.973 301.053 146.359 301.444 146.819C301.834 147.279 302.12 147.804 302.283 148.362C302.447 148.921 302.486 149.503 302.398 150.075L303.43 161.265C303.743 164.661 302.666 168.043 300.399 170.783L293.77 178.796C293.642 178.95 293.48 179.078 293.293 179.172C293.107 179.267 292.9 179.325 292.687 179.343C292.568 179.353 292.448 179.35 292.331 179.335Z" fill="#AE64EF"/>
</g>
<path d="M240.884 126.417C240.975 126.856 241.172 127.271 241.462 127.633C241.751 127.996 242.126 128.298 242.56 128.517C242.994 128.736 243.477 128.867 243.974 128.902C244.471 128.936 244.97 128.873 245.436 128.716L253.182 137.046L255.008 131.658L247.373 124.574C247.026 123.891 246.411 123.345 245.644 123.04C244.878 122.735 244.012 122.692 243.213 122.919C242.413 123.146 241.734 123.628 241.305 124.272C240.876 124.917 240.726 125.68 240.884 126.417Z" fill="#FFB8B8"/>
<g filter="url(#filter1_di_77_1929)">
<path d="M246.951 129.87C247.111 129.632 247.348 129.443 247.631 129.329L250.27 128.263C250.557 128.148 250.875 128.114 251.183 128.167C251.491 128.219 251.774 128.355 251.993 128.555L259.614 135.568L278.183 142.012C278.738 142.306 279.224 142.696 279.611 143.158C279.998 143.62 280.28 144.146 280.44 144.706C280.599 145.265 280.634 145.848 280.542 146.419C280.45 146.991 280.233 147.541 279.903 148.037C279.573 148.534 279.137 148.967 278.619 149.313C278.102 149.659 277.513 149.91 276.887 150.052C276.261 150.194 275.61 150.225 274.971 150.142C274.331 150.059 273.717 149.864 273.162 149.568L261.235 146.054C257.615 144.988 254.551 142.783 252.614 139.848L246.946 131.266C246.837 131.101 246.768 130.917 246.744 130.726C246.719 130.536 246.74 130.343 246.805 130.16C246.841 130.059 246.89 129.961 246.951 129.87Z" fill="#AE64EF"/>
</g>
<path d="M287.887 131.873C287.364 131.934 286.834 131.823 286.395 131.561C285.957 131.299 285.64 130.903 285.503 130.448C285.371 129.923 285.082 129.441 284.667 129.053C284.252 128.664 283.726 128.384 283.146 128.243C281.619 127.931 279.752 128.573 278.632 127.539C278.393 127.302 278.219 127.019 278.126 126.711C278.034 126.403 278.024 126.079 278.098 125.767C278.304 124.762 279.109 124.002 279.984 123.395C281.827 122.122 284.057 121.377 286.381 121.257C287.584 121.226 288.788 121.28 289.982 121.417C291.232 121.488 292.468 121.69 293.665 122.019C295.029 122.479 296.241 123.239 297.19 124.229C298.138 125.219 298.792 126.407 299.091 127.682C299.365 128.962 299.323 130.279 298.968 131.543C298.613 132.806 297.954 133.985 297.037 134.997C295.939 136.22 294.524 137.183 292.914 137.804C292.531 137.966 292.091 137.986 291.691 137.86C290.689 137.503 290.853 136.393 291.31 135.652C291.799 134.859 292.552 134.092 292.158 133.127C291.961 132.68 291.583 132.315 291.098 132.107C290.101 131.652 288.986 131.76 287.915 131.87L287.887 131.873Z" fill="#2F2E41"/>
<path d="M309.248 242.939H244.15C244.06 242.939 243.973 242.907 243.91 242.851C243.846 242.794 243.811 242.717 243.811 242.636C243.811 242.556 243.846 242.479 243.91 242.422C243.973 242.365 244.06 242.333 244.15 242.333H309.248C309.338 242.333 309.424 242.365 309.488 242.422C309.551 242.479 309.587 242.556 309.587 242.636C309.587 242.717 309.551 242.794 309.488 242.851C309.424 242.907 309.338 242.939 309.248 242.939Z" fill="#CCCCCC"/>
<path d="M181.712 47.998C184.26 52.847 178.86 54.2205 172.674 56.8195C166.488 59.4185 161.859 62.2588 159.311 57.4098C156.762 52.5608 154.695 42.9365 163.446 39.2597C172.498 35.4563 179.163 43.149 181.712 47.998Z" fill="#2F2E41"/>
<path d="M169.09 57.5351C173.689 57.5351 177.418 54.2015 177.418 50.0893C177.418 45.9771 173.689 42.6436 169.09 42.6436C164.491 42.6436 160.763 45.9771 160.763 50.0893C160.763 54.2015 164.491 57.5351 169.09 57.5351Z" fill="#FFB8B8"/>
<path d="M210.344 83.1089C210.056 82.7724 209.768 82.442 209.476 82.1206C209.1 81.7023 208.721 81.2971 208.34 80.905C204.024 76.4517 199.433 73.6475 194.378 73.3474H194.371L194.297 73.3413L184.223 82.1206L180.799 85.1037L180.873 85.2674L182.721 89.3812H215.098C213.639 87.2165 212.052 85.1227 210.344 83.1089Z" fill="#2F2E41"/>
<path d="M160.037 53.0851L163.018 51.8326L162.602 47.9876L164.596 51.1696L166.02 50.571L165.778 48.3281L166.941 50.1842L177.528 45.7361C176.533 43.8442 174.739 42.3829 172.54 41.6737C170.341 40.9646 167.916 41.0656 165.8 41.9546L164.266 42.5993C162.15 43.4883 160.516 45.0926 159.722 47.059C158.929 49.0255 159.042 51.1931 160.037 53.0851Z" fill="#2F2E41"/>
<g filter="url(#filter2_di_77_1929)">
<path d="M215.307 78.2275C215.036 77.834 214.679 77.494 214.256 77.2282C213.834 76.9624 213.355 76.7764 212.849 76.6814C212.664 76.6466 212.476 76.6253 212.286 76.6177L186.454 55.9669C185.946 55.5006 185.269 55.2114 184.545 55.1514C184.402 55.1368 184.258 55.1327 184.114 55.1393C183.518 55.1635 182.943 55.3425 182.459 55.6543C181.975 55.9662 181.603 56.3974 181.389 56.8952C181.174 57.3931 181.127 57.9359 181.252 58.4575C181.377 58.9791 181.67 59.4568 182.094 59.8321L191.984 67.5413L208.224 80.198C208.238 80.4364 208.278 80.673 208.343 80.9043C208.537 81.5746 208.955 82.1762 209.541 82.6293C210.126 83.0825 210.852 83.3658 211.622 83.4417C212.324 83.5151 213.035 83.41 213.673 83.1386C214.179 82.9269 214.628 82.6198 214.989 82.2382C215.026 82.1988 215.06 82.1624 215.094 82.12C215.568 81.5676 215.842 80.899 215.88 80.2036C215.919 79.5081 215.719 78.8187 215.307 78.2275Z" fill="#FFB8B8"/>
</g>
<path d="M171.121 98.1306L170.88 89.3816L170.676 82.121L170.537 77.0402L170.263 67.1361C170.208 66.6059 169.983 66.1012 169.613 65.6838C169.243 65.2664 168.745 64.9542 168.181 64.7854C167.616 64.6167 167.008 64.5986 166.432 64.7334C165.856 64.8682 165.336 65.1501 164.936 65.5446C164.842 65.6347 164.757 65.7321 164.682 65.8356C164.264 66.3702 164.077 67.0213 164.153 67.6697L164.756 82.121L165.058 89.3816L165.445 98.6429C165.333 98.779 165.232 98.9218 165.143 99.0704C164.902 99.4792 164.756 99.9275 164.715 100.388C164.673 100.849 164.737 101.312 164.902 101.75C165.075 102.21 165.354 102.631 165.721 102.987C166.089 103.343 166.537 103.625 167.035 103.815C167.534 104.005 168.071 104.098 168.613 104.089C169.155 104.079 169.688 103.967 170.178 103.76C170.747 103.52 171.241 103.158 171.616 102.706C171.991 102.254 172.236 101.727 172.329 101.17C172.423 100.614 172.361 100.045 172.15 99.5152C171.939 98.9851 171.586 98.5095 171.121 98.1306Z" fill="#FFB8B8"/>
<path d="M194.378 73.3478L191.98 67.5424L188.102 58.1386C187.822 57.4544 187.373 56.8353 186.789 56.3273C186.205 55.8192 185.501 55.4353 184.728 55.204C184.667 55.1858 184.603 55.1677 184.542 55.1525C183.793 54.9494 183.004 54.8935 182.229 54.9887C181.455 55.084 180.712 55.3281 180.053 55.7042L166.989 63.1133C165.792 63.7903 164.937 64.8566 164.604 66.0869C164.27 67.3173 164.485 68.6153 165.202 69.7069C166.836 72.2327 168.616 74.6805 170.535 77.0402C172.058 78.8925 174.892 79.0895 175.384 82.121H185.016L194.767 74.2936L194.378 73.3478Z" fill="#CCCCCC"/>
<path d="M176.598 286.159C175.964 286.172 175.328 286.178 174.69 286.178C159.526 286.178 140.453 278.936 123.144 268.911C121.712 268.081 120.293 267.233 118.886 266.365L120.12 259.653L157.465 255.22L176.208 268.034L176.598 286.159Z" fill="#2F2E41"/>
<path d="M178.395 182.532H173.073C172.908 182.532 172.75 182.591 172.634 182.695C172.517 182.799 172.452 182.941 172.452 183.088V187.846C172.451 187.919 172.467 187.992 172.499 188.059C172.53 188.127 172.576 188.188 172.633 188.24C172.691 188.291 172.76 188.332 172.835 188.36C172.911 188.388 172.992 188.402 173.073 188.402H178.395C178.56 188.402 178.718 188.343 178.834 188.239C178.951 188.135 179.016 187.994 179.017 187.846V183.088C179.016 182.941 178.95 182.8 178.834 182.695C178.717 182.591 178.56 182.533 178.395 182.532Z" fill="#E6E6E6"/>
<path d="M179.007 191.101C178.98 190.973 178.905 190.857 178.793 190.773C178.681 190.69 178.541 190.644 178.395 190.643H173.073C172.908 190.643 172.75 190.702 172.634 190.806C172.517 190.91 172.452 191.051 172.452 191.199V195.957C172.451 196.03 172.467 196.102 172.499 196.17C172.53 196.237 172.576 196.299 172.633 196.35C172.691 196.402 172.76 196.443 172.835 196.471C172.911 196.499 172.992 196.513 173.073 196.513H178.395C178.56 196.513 178.718 196.454 178.834 196.35C178.951 196.246 179.016 196.104 179.017 195.957V191.199C179.017 191.166 179.014 191.133 179.007 191.101Z" fill="#E6E6E6"/>
<path d="M178.636 198.799C178.56 198.77 178.478 198.756 178.395 198.756H173.073C172.992 198.756 172.911 198.77 172.835 198.798C172.76 198.826 172.691 198.867 172.633 198.918C172.576 198.97 172.53 199.031 172.499 199.099C172.467 199.166 172.452 199.239 172.452 199.312V204.07C172.451 204.143 172.467 204.215 172.498 204.283C172.529 204.351 172.575 204.412 172.633 204.464C172.691 204.515 172.759 204.556 172.835 204.584C172.91 204.612 172.991 204.626 173.073 204.626H178.395C178.56 204.626 178.718 204.567 178.834 204.463C178.951 204.359 179.016 204.217 179.017 204.07V199.312C179.016 199.202 178.98 199.095 178.912 199.004C178.845 198.913 178.749 198.842 178.636 198.799Z" fill="#E6E6E6"/>
<path d="M189.577 198.756H184.255C184.173 198.756 184.092 198.77 184.017 198.798C183.941 198.826 183.873 198.867 183.815 198.918C183.757 198.97 183.711 199.031 183.68 199.099C183.649 199.166 183.633 199.239 183.633 199.312V204.07C183.633 204.143 183.649 204.215 183.68 204.283C183.711 204.35 183.757 204.412 183.815 204.463C183.873 204.515 183.941 204.556 184.017 204.584C184.092 204.612 184.173 204.626 184.255 204.626H189.577C189.741 204.626 189.899 204.567 190.016 204.463C190.133 204.359 190.198 204.217 190.198 204.07V199.312C190.198 199.164 190.133 199.023 190.016 198.919C189.899 198.814 189.741 198.756 189.577 198.756Z" fill="#E6E6E6"/>
<path d="M143.903 180.202C152.923 180.202 160.236 173.664 160.236 165.598C160.236 157.532 152.923 150.994 143.903 150.994C134.882 150.994 127.569 157.532 127.569 165.598C127.569 173.664 134.882 180.202 143.903 180.202Z" fill="#FFB6B6"/>
<path d="M158.205 154.891C158.205 154.891 162.477 147.589 153.078 146.925C153.078 146.925 145.066 140.426 136.899 145.737C136.899 145.737 132.444 145.737 130.008 150.244C130.008 150.244 126.505 149.056 125.735 152.235C125.735 152.235 123.171 158.874 125.735 164.848C128.298 170.823 129.15 171.486 129.15 171.486C129.15 171.486 124.937 158.961 135.191 158.297C145.445 157.633 156.919 151.903 157.774 159.206C158.628 166.508 159.914 168.307 159.914 168.307C159.914 168.307 168.031 157.878 158.205 154.891Z" fill="#2F2E41"/>
<path d="M186.154 201.59L186.101 201.838L185.511 204.626L181.43 223.907L181.189 225.042L180.682 227.442L179.988 230.717L178.451 237.974L178.011 240.054L177.846 240.834L177.789 241.108L177.332 243.26L177.194 243.91L176.08 251.291L175.107 257.723L178.363 260.634L176.422 262.37L175.147 268.896L175.15 268.911H123.145C121.041 267.693 118.967 266.436 116.924 265.142L117.352 262.278C117.352 262.278 118.825 257.163 118.206 256.552C117.589 255.94 116.236 254.848 116.236 254.848L117.94 251.291L118.177 250.797L117.78 243.438L117.77 243.26L117.639 240.834L117.622 240.522L117.596 240.054L117.092 230.717L117.082 230.563L116.929 227.733L116.786 225.042L116.723 223.907L116.109 212.55L115.693 204.837L115.33 198.123L116.79 197.681L132.414 192.933L138.885 185.411L152.354 185.501L158.948 185.546L169.95 194.669L172.453 195.738L172.472 195.746L174.268 196.514L178.819 198.457L183.632 200.513L186.102 201.567L186.154 201.59Z" fill="#CACACA"/>
<path d="M140.625 247C139.638 247.342 138.579 247.486 137.523 247.423C136.467 247.359 135.439 247.089 134.512 246.632C133.585 246.175 132.782 245.542 132.158 244.777C131.535 244.012 131.106 243.134 130.903 242.205L105.428 238.974L114.284 230.017L137.118 234.459C138.886 234.257 140.675 234.643 142.146 235.542C143.618 236.441 144.669 237.791 145.101 239.337C145.534 240.883 145.317 242.517 144.492 243.929C143.667 245.341 142.291 246.434 140.625 247Z" fill="#FFB6B6"/>
<path d="M129.266 230.717C128.794 230.182 128.126 229.813 127.379 229.676L116.927 227.733L115.854 227.534C115.23 227.418 114.641 227.185 114.124 226.851C113.608 226.517 113.177 226.089 112.858 225.595C112.528 225.077 112.328 224.501 112.272 223.907C112.223 223.366 112.295 222.823 112.485 222.308L116.107 212.55L118.457 206.218C118.742 205.455 118.91 204.66 118.957 203.856C119.088 201.632 118.318 199.439 116.789 197.681C115.444 196.135 113.579 195.017 111.469 194.492C109.359 193.967 107.116 194.063 105.072 194.765C105.012 194.785 104.95 194.806 104.89 194.827C103.424 195.351 102.114 196.172 101.064 197.226C100.014 198.28 99.252 199.538 98.8391 200.9L96.2859 209.205L91.0191 226.324C90.4919 228.04 90.3854 229.836 90.7069 231.592C91.0284 233.347 91.7703 235.02 92.8818 236.495C93.9933 237.971 95.4482 239.214 97.147 240.14C98.8457 241.066 100.748 241.653 102.724 241.86L117.778 243.438L124.745 244.169C125.55 244.255 126.363 244.067 127.02 243.642C127.678 243.217 128.132 242.586 128.293 241.875C128.304 241.836 128.313 241.797 128.319 241.758L128.486 240.834L129.904 233.058L129.918 232.979C129.992 232.582 129.972 232.176 129.86 231.786C129.747 231.397 129.545 231.032 129.266 230.717Z" fill="#CACACA"/>
<path d="M156.853 247.25C157.884 247.464 158.955 247.474 159.991 247.277C161.026 247.081 162.001 246.685 162.846 246.115C163.692 245.546 164.387 244.818 164.884 243.982C165.381 243.146 165.666 242.223 165.721 241.278L190.432 234.866L180.252 227.116L158.347 234.392C156.565 234.416 154.854 235.022 153.539 236.098C152.224 237.174 151.396 238.643 151.212 240.228C151.028 241.813 151.501 243.403 152.54 244.697C153.58 245.992 155.114 246.9 156.853 247.25Z" fill="#FFB6B6"/>
<path d="M202.699 220.526L190.946 196.341C189.985 194.356 188.268 192.739 186.1 191.777C185.43 191.482 184.727 191.253 184.001 191.093C183.889 191.068 183.777 191.044 183.664 191.025C182.127 190.725 180.532 190.751 179.007 191.102C177.614 191.422 176.312 192.001 175.185 192.801C174.059 193.602 173.134 194.605 172.471 195.747C172.464 195.756 172.457 195.766 172.452 195.777C171.711 197.058 171.317 198.477 171.302 199.92C171.286 201.362 171.65 202.787 172.363 204.081L172.509 204.342L180.815 219.256C181.098 219.766 181.258 220.324 181.284 220.893C181.309 221.462 181.2 222.029 180.963 222.558C180.726 223.087 180.366 223.564 179.908 223.96C179.45 224.356 178.903 224.661 178.304 224.854L177.721 225.042L167.231 228.43C166.443 228.681 165.796 229.196 165.425 229.865C165.053 230.535 164.987 231.307 165.239 232.019L165.266 232.094L168.206 240.507C168.22 240.546 168.235 240.584 168.251 240.623C168.277 240.696 168.309 240.766 168.347 240.835C168.66 241.461 169.212 241.968 169.905 242.263C170.598 242.558 171.386 242.622 172.127 242.444L177.788 241.108L178.943 240.835L193.562 237.382C195.485 236.928 197.276 236.107 198.812 234.976C200.348 233.845 201.593 232.431 202.46 230.83C203.328 229.229 203.799 227.48 203.84 225.701C203.881 223.923 203.492 222.157 202.699 220.526Z" fill="#CACACA"/>
<path d="M87.0234 240.833C90.4112 244.527 94.0647 248.02 97.9609 251.29H206.013C207.054 251.291 208.052 251.662 208.788 252.32C209.524 252.978 209.938 253.871 209.939 254.802L210.094 279.283C216.742 276.552 222.967 273.066 228.615 268.909C230.183 267.757 231.703 266.555 233.174 265.303C234.138 264.487 235.078 263.65 235.995 262.794C242.872 256.389 248.44 248.956 252.448 240.833H87.0234Z" fill="#3F3D56"/>
<path d="M185.939 182.532C185.825 182.345 185.657 182.188 185.452 182.079C185.247 181.97 185.013 181.913 184.774 181.913H106.398C106.046 181.913 105.71 182.039 105.461 182.261C105.213 182.483 105.074 182.785 105.073 183.099V225.042H186.101V183.099C186.103 182.901 186.047 182.706 185.939 182.532Z" fill="#3F3D56"/>
<path d="M105.003 223.907V229.083C105.003 229.297 105.05 229.51 105.142 229.708C105.234 229.906 105.368 230.086 105.538 230.238C105.708 230.39 105.909 230.51 106.131 230.592C106.353 230.674 106.59 230.717 106.83 230.717H136.737V240.931H136.34C136.309 240.931 136.278 240.937 136.249 240.947C136.22 240.958 136.194 240.974 136.172 240.993C136.15 241.013 136.133 241.037 136.121 241.062C136.109 241.088 136.103 241.116 136.103 241.143V241.854C136.103 241.882 136.109 241.909 136.121 241.935C136.133 241.961 136.15 241.984 136.172 242.004C136.194 242.024 136.22 242.039 136.249 242.05C136.278 242.061 136.309 242.066 136.34 242.066H154.906C154.937 242.066 154.968 242.061 154.997 242.05C155.025 242.039 155.052 242.024 155.074 242.004C155.096 241.984 155.113 241.961 155.125 241.935C155.137 241.909 155.143 241.882 155.143 241.854V241.143C155.143 241.116 155.137 241.088 155.125 241.062C155.113 241.037 155.096 241.013 155.074 240.993C155.052 240.974 155.025 240.958 154.997 240.947C154.968 240.937 154.937 240.931 154.906 240.931H154.508V230.717H184.415C184.655 230.717 184.893 230.674 185.115 230.592C185.336 230.51 185.538 230.39 185.708 230.238C185.877 230.086 186.012 229.906 186.104 229.708C186.195 229.51 186.243 229.297 186.243 229.083V223.907H105.003Z" fill="#3F3D56"/>
<path d="M144.64 209.051C148.774 209.051 152.125 206.055 152.125 202.359C152.125 198.664 148.774 195.667 144.64 195.667C140.507 195.667 137.156 198.664 137.156 202.359C137.156 206.055 140.507 209.051 144.64 209.051Z" fill="#6C63FF"/>
<path d="M163.711 164.802H162.516C162.516 156.722 153.572 151.427 144.55 151.423C143.238 151.42 141.928 151.533 140.641 151.763C139.192 152.022 137.689 152.332 136.211 152.736C130.385 154.332 124.982 157.419 124.982 164.802C124.981 166.236 125.185 167.664 125.589 169.052L124.432 169.321C124.003 167.845 123.786 166.327 123.787 164.802C123.787 158.351 126.749 153.92 131.865 151.278C134.554 149.888 137.837 148.993 141.597 148.557C143.162 148.37 144.744 148.327 146.319 148.428C156.695 149.095 163.711 156.209 163.711 164.802Z" fill="#6946B3"/>
<path d="M165.699 165.392L165.228 162.28C165.112 161.494 164.688 160.77 164.033 160.236C163.612 159.889 163.108 159.631 162.559 159.483C162.01 159.335 161.431 159.3 160.865 159.381L160.117 159.473C159.912 159.497 159.715 159.558 159.536 159.65C159.358 159.743 159.201 159.867 159.077 160.014C158.951 160.161 158.859 160.328 158.806 160.507C158.753 160.686 158.74 160.872 158.768 161.055L159.856 168.225C159.901 168.517 160.047 168.789 160.275 169.003C160.502 169.216 160.799 169.361 161.123 169.415C161.219 169.432 161.317 169.441 161.415 169.441C161.485 169.441 161.556 169.436 161.625 169.428L162.462 169.327C162.972 169.267 163.463 169.114 163.905 168.877C164.346 168.641 164.729 168.327 165.03 167.953C165.094 167.872 165.156 167.788 165.214 167.703C165.662 167.004 165.833 166.189 165.699 165.392Z" fill="#6946B3"/>
<path d="M159.634 159.604C159.414 159.699 159.223 159.84 159.077 160.014C158.951 160.161 158.859 160.328 158.806 160.507C158.753 160.686 158.74 160.872 158.768 161.055L159.856 168.224C159.901 168.517 160.047 168.789 160.275 169.002C160.502 169.216 160.799 169.36 161.123 169.415L159.634 159.604Z" fill="white"/>
<path d="M165.701 165.394L165.23 162.281C165.113 161.495 164.69 160.771 164.034 160.238L165.117 167.371C165.133 167.485 165.166 167.597 165.215 167.704C165.663 167.005 165.834 166.191 165.701 165.394Z" fill="#3F3D56"/>
<path d="M161.983 167.636C162.31 167.597 162.474 166.901 162.35 166.082C162.226 165.263 161.86 164.631 161.533 164.671C161.206 164.711 161.041 165.407 161.165 166.225C161.29 167.044 161.656 167.676 161.983 167.636Z" fill="#3F3D56"/>
<path d="M161.261 163.788C161.589 163.748 161.753 163.052 161.629 162.233C161.504 161.414 161.139 160.783 160.811 160.822C160.484 160.862 160.32 161.558 160.444 162.377C160.568 163.196 160.934 163.827 161.261 163.788Z" fill="#3F3D56"/>
<path d="M165.801 165.284C166.128 165.244 166.292 164.548 166.168 163.729C166.044 162.91 165.678 162.279 165.351 162.318C165.024 162.358 164.86 163.054 164.984 163.873C165.108 164.692 165.474 165.323 165.801 165.284Z" fill="#3F3D56"/>
<path d="M144.549 151.423C143.237 151.42 141.928 151.533 140.641 151.763C139.192 152.022 137.688 152.332 136.211 152.736C133.904 152.635 132.206 152.101 131.864 151.278C134.554 149.888 137.836 148.993 141.597 148.557C143.162 148.37 144.744 148.327 146.318 148.428C146.485 148.516 146.629 148.634 146.741 148.774C146.853 148.915 146.931 149.075 146.969 149.245C147.081 149.989 146.132 150.78 144.549 151.423Z" fill="#3F3D56"/>
<path d="M129.286 172.218L127.445 165.375C127.379 165.129 127.234 164.905 127.026 164.732C126.818 164.558 126.558 164.444 126.278 164.403C126.199 164.392 126.119 164.386 126.039 164.386C125.926 164.386 125.814 164.398 125.705 164.422L124.992 164.576C124.075 164.774 123.283 165.29 122.79 166.01C122.298 166.729 122.145 167.594 122.365 168.415L123.19 171.485C123.378 172.207 123.826 172.855 124.466 173.327C124.57 173.402 124.678 173.471 124.791 173.535C125.192 173.759 125.639 173.91 126.106 173.977C126.573 174.045 127.05 174.028 127.51 173.928L128.22 173.774C128.407 173.735 128.584 173.661 128.738 173.558C128.968 173.408 129.143 173.201 129.24 172.962C129.338 172.724 129.353 172.465 129.286 172.218Z" fill="#6946B3"/>
<path d="M125.427 170.944C125.748 170.875 125.832 170.167 125.616 169.364C125.4 168.56 124.965 167.965 124.644 168.034C124.323 168.103 124.238 168.811 124.454 169.614C124.67 170.417 125.106 171.013 125.427 170.944Z" fill="#3F3D56"/>
<path d="M123.037 171.585C123.358 171.516 123.443 170.809 123.227 170.005C123.01 169.202 122.575 168.607 122.254 168.676C121.933 168.745 121.848 169.452 122.064 170.256C122.281 171.059 122.716 171.654 123.037 171.585Z" fill="#3F3D56"/>
<path d="M129.402 172.192L127.561 165.35C127.489 165.083 127.331 164.841 127.106 164.654C126.881 164.467 126.6 164.343 126.296 164.298L128.809 173.644C129.057 173.481 129.246 173.257 129.351 172.998C129.457 172.74 129.475 172.46 129.402 172.192Z" fill="white"/>
<path d="M122.78 167.061C122.729 166.871 122.634 166.693 122.5 166.538C122.242 167.137 122.194 167.792 122.364 168.417L123.189 171.486C123.377 172.209 123.826 172.856 124.466 173.329L122.78 167.061Z" fill="#3F3D56"/>
<path d="M222.605 158.831C224.941 156.49 226.842 154.034 228.254 151.615C228.467 151.249 228.029 150.857 227.618 151.047C224.913 152.31 222.168 154.01 219.548 156.098C219.373 156.238 219.11 156.238 218.934 156.098C216.317 154.01 213.57 152.311 210.866 151.048C210.456 150.857 210.016 151.25 210.231 151.615C211.641 154.034 213.543 156.49 215.878 158.831C216.035 158.988 216.035 159.223 215.879 159.379C213.544 161.721 211.643 164.176 210.229 166.594C210.016 166.962 210.455 167.354 210.865 167.163C213.572 165.9 216.317 164.2 218.935 162.112C219.11 161.973 219.373 161.973 219.548 162.113C222.166 164.2 224.912 165.9 227.619 167.163C228.029 167.354 228.467 166.962 228.255 166.594C226.841 164.176 224.941 161.72 222.605 159.379C222.449 159.223 222.449 158.988 222.605 158.831Z" fill="#D06D6A"/>
<path d="M91.4485 166.211C92.5373 165.119 93.4238 163.974 94.0819 162.846C94.1817 162.675 93.9772 162.493 93.7855 162.581C92.5245 163.17 91.2445 163.963 90.023 164.936C89.9411 165.002 89.8185 165.002 89.7366 164.936C88.5163 163.963 87.2358 163.171 85.9748 162.582C85.7836 162.493 85.5786 162.676 85.6789 162.846C86.3364 163.974 87.223 165.119 88.3118 166.211C88.3848 166.284 88.3848 166.394 88.3123 166.466C87.2235 167.558 86.337 168.703 85.6777 169.831C85.5786 170.002 85.7831 170.185 85.9742 170.096C87.2363 169.507 88.5163 168.714 89.7372 167.74C89.8185 167.676 89.9411 167.676 90.023 167.741C91.2434 168.714 92.5239 169.507 93.786 170.096C93.9772 170.185 94.1817 170.002 94.0825 169.831C93.4233 168.703 92.5373 167.558 91.4485 166.466C91.3755 166.394 91.3755 166.284 91.4485 166.211Z" fill="#96FF97"/>
<g filter="url(#filter3_di_77_1929)">
<path d="M207.761 118.061C209.824 115.993 211.505 113.823 212.752 111.685C212.941 111.361 212.553 111.015 212.19 111.183C209.8 112.299 207.375 113.801 205.06 115.646C204.905 115.77 204.672 115.77 204.517 115.646C202.204 113.801 199.778 112.3 197.388 111.184C197.026 111.015 196.637 111.362 196.827 111.685C198.073 113.823 199.753 115.993 201.817 118.061C201.955 118.2 201.955 118.408 201.818 118.546C199.754 120.614 198.074 122.784 196.825 124.921C196.637 125.246 197.025 125.592 197.387 125.423C199.779 124.307 202.204 122.805 204.518 120.96C204.672 120.837 204.905 120.837 205.06 120.961C207.372 122.805 209.799 124.307 212.191 125.423C212.553 125.592 212.941 125.246 212.753 124.921C211.504 122.784 209.824 120.613 207.761 118.546C207.623 118.408 207.623 118.2 207.761 118.061Z" fill="#96FF97"/>
</g>
<path d="M138.723 114.394C139.812 113.303 140.698 112.158 141.356 111.03C141.456 110.859 141.252 110.676 141.06 110.765C139.799 111.354 138.519 112.146 137.297 113.12C137.216 113.185 137.093 113.185 137.011 113.12C135.791 112.146 134.51 111.354 133.249 110.765C133.058 110.676 132.853 110.859 132.953 111.03C133.611 112.158 134.497 113.303 135.586 114.394C135.659 114.467 135.659 114.577 135.587 114.65C134.498 115.741 133.611 116.886 132.952 118.014C132.853 118.185 133.057 118.368 133.249 118.279C134.511 117.69 135.791 116.897 137.012 115.924C137.093 115.859 137.216 115.859 137.297 115.924C138.518 116.897 139.798 117.69 141.06 118.279C141.252 118.368 141.456 118.185 141.357 118.014C140.698 116.886 139.812 115.741 138.723 114.65C138.65 114.577 138.65 114.467 138.723 114.394Z" fill="#D06D6A"/>
</g>
<defs>
<filter id="filter0_di_77_1929" x="280.195" y="139.284" width="26.1874" height="45.8632" filterUnits="userSpaceOnUse" color-interpolation-filters="sRGB">
<feFlood flood-opacity="0" result="BackgroundImageFix"/>
<feColorMatrix in="SourceAlpha" type="matrix" values="0 0 0 0 0 0 0 0 0 0 0 0 0 0 0 0 0 0 127 0" result="hardAlpha"/>
<feOffset dx="-2.89902"/>
<feGaussianBlur stdDeviation="2.89902"/>
<feComposite in2="hardAlpha" operator="out"/>
<feColorMatrix type="matrix" values="0 0 0 0 0 0 0 0 0 0 0 0 0 0 0 0 0 0 0.25 0"/>
<feBlend mode="normal" in2="BackgroundImageFix" result="effect1_dropShadow_77_1929"/>
<feBlend mode="normal" in="SourceGraphic" in2="effect1_dropShadow_77_1929" result="shape"/>
<feColorMatrix in="SourceAlpha" type="matrix" values="0 0 0 0 0 0 0 0 0 0 0 0 0 0 0 0 0 0 127 0" result="hardAlpha"/>
<feOffset dy="-8.69707"/>
<feGaussianBlur stdDeviation="2.89902"/>
<feComposite in2="hardAlpha" operator="arithmetic" k2="-1" k3="1"/>
<feColorMatrix type="matrix" values="0 0 0 0 0 0 0 0 0 0 0 0 0 0 0 0 0 0 0.25 0"/>
<feBlend mode="normal" in2="shape" result="effect2_innerShadow_77_1929"/>
</filter>
<filter id="filter1_di_77_1929" x="238.037" y="122.345" width="45.4545" height="33.6408" filterUnits="userSpaceOnUse" color-interpolation-filters="sRGB">
<feFlood flood-opacity="0" result="BackgroundImageFix"/>
<feColorMatrix in="SourceAlpha" type="matrix" values="0 0 0 0 0 0 0 0 0 0 0 0 0 0 0 0 0 0 127 0" result="hardAlpha"/>
<feOffset dx="-2.89902"/>
<feGaussianBlur stdDeviation="2.89902"/>
<feComposite in2="hardAlpha" operator="out"/>
<feColorMatrix type="matrix" values="0 0 0 0 0 0 0 0 0 0 0 0 0 0 0 0 0 0 0.25 0"/>
<feBlend mode="normal" in2="BackgroundImageFix" result="effect1_dropShadow_77_1929"/>
<feBlend mode="normal" in="SourceGraphic" in2="effect1_dropShadow_77_1929" result="shape"/>
<feColorMatrix in="SourceAlpha" type="matrix" values="0 0 0 0 0 0 0 0 0 0 0 0 0 0 0 0 0 0 127 0" result="hardAlpha"/>
<feOffset dy="-8.69707"/>
<feGaussianBlur stdDeviation="2.89902"/>
<feComposite in2="hardAlpha" operator="arithmetic" k2="-1" k3="1"/>
<feColorMatrix type="matrix" values="0 0 0 0 0 0 0 0 0 0 0 0 0 0 0 0 0 0 0.25 0"/>
<feBlend mode="normal" in2="shape" result="effect2_innerShadow_77_1929"/>
</filter>
<filter id="filter2_di_77_1929" x="175.386" y="49.3382" width="46.2973" height="45.7223" filterUnits="userSpaceOnUse" color-interpolation-filters="sRGB">
<feFlood flood-opacity="0" result="BackgroundImageFix"/>
<feColorMatrix in="SourceAlpha" type="matrix" values="0 0 0 0 0 0 0 0 0 0 0 0 0 0 0 0 0 0 127 0" result="hardAlpha"/>
<feOffset dy="5.79805"/>
<feGaussianBlur stdDeviation="2.89902"/>
<feComposite in2="hardAlpha" operator="out"/>
<feColorMatrix type="matrix" values="0 0 0 0 0 0 0 0 0 0 0 0 0 0 0 0 0 0 0.25 0"/>
<feBlend mode="normal" in2="BackgroundImageFix" result="effect1_dropShadow_77_1929"/>
<feBlend mode="normal" in="SourceGraphic" in2="effect1_dropShadow_77_1929" result="shape"/>
<feColorMatrix in="SourceAlpha" type="matrix" values="0 0 0 0 0 0 0 0 0 0 0 0 0 0 0 0 0 0 127 0" result="hardAlpha"/>
<feOffset dy="-5.79805"/>
<feGaussianBlur stdDeviation="2.89902"/>
<feComposite in2="hardAlpha" operator="arithmetic" k2="-1" k3="1"/>
<feColorMatrix type="matrix" values="0 0 0 0 0.595833 0 0 0 0 0.424531 0 0 0 0 0.424531 0 0 0 1 0"/>
<feBlend mode="normal" in2="shape" result="effect2_innerShadow_77_1929"/>
</filter>
<filter id="filter3_di_77_1929" x="190.978" y="106.79" width="27.622" height="25.9247" filterUnits="userSpaceOnUse" color-interpolation-filters="sRGB">
<feFlood flood-opacity="0" result="BackgroundImageFix"/>
<feColorMatrix in="SourceAlpha" type="matrix" values="0 0 0 0 0 0 0 0 0 0 0 0 0 0 0 0 0 0 127 0" result="hardAlpha"/>
<feOffset dy="1.44951"/>
<feGaussianBlur stdDeviation="2.89902"/>
<feComposite in2="hardAlpha" operator="out"/>
<feColorMatrix type="matrix" values="0 0 0 0 0 0 0 0 0 0 0 0 0 0 0 0 0 0 0.14 0"/>
<feBlend mode="normal" in2="BackgroundImageFix" result="effect1_dropShadow_77_1929"/>
<feBlend mode="normal" in="SourceGraphic" in2="effect1_dropShadow_77_1929" result="shape"/>
<feColorMatrix in="SourceAlpha" type="matrix" values="0 0 0 0 0 0 0 0 0 0 0 0 0 0 0 0 0 0 127 0" result="hardAlpha"/>
<feOffset dy="-4.34854"/>
<feGaussianBlur stdDeviation="2.89902"/>
<feComposite in2="hardAlpha" operator="arithmetic" k2="-1" k3="1"/>
<feColorMatrix type="matrix" values="0 0 0 0 0.670833 0 0 0 0 0.0614931 0 0 0 0 0.0614931 0 0 0 0.29 0"/>
<feBlend mode="normal" in2="shape" result="effect2_innerShadow_77_1929"/>
</filter>
<linearGradient id="paint0_linear_77_1929" x1="366.193" y1="266.798" x2="-176.344" y2="249.289" gradientUnits="userSpaceOnUse">
<stop offset="0.113744" stop-color="#A2FF84"/>
<stop offset="0.70703" stop-color="#7C43BD"/>
</linearGradient>
<clipPath id="clip0_77_1929">
<rect width="330" height="257" fill="white"/>
</clipPath>
</defs>
</svg>
