<svg width="144" height="81" viewBox="0 0 144 81" fill="none" xmlns="http://www.w3.org/2000/svg">
<g filter="url(#filter0_d_85_2266)">
<rect x="107.23" y="0.0761719" width="33.3199" height="75.1601" rx="2.85042" fill="#F9F9F9"/>
<path d="M111.25 12.1263C111.25 10.5521 112.526 9.27588 114.1 9.27588H134.347C135.922 9.27588 137.198 10.5521 137.198 12.1263V14.2107H111.25V12.1263Z" fill="#CFFD99"/>
<path d="M111.25 14.2109H137.198V16.9863C137.198 18.5606 135.922 19.8367 134.347 19.8367H114.1C112.526 19.8367 111.25 18.5606 111.25 16.9863V14.2109Z" fill="white"/>
<rect x="55.7776" y="0.0761719" width="37.2231" height="75.1601" rx="2.85042" fill="#F9F9F9"/>
<path d="M60.2681 12.3973C60.2681 10.8231 61.5442 9.54688 63.1185 9.54688H86.4053C87.9796 9.54688 89.2558 10.8231 89.2558 12.3973V14.4817H60.2681V12.3973Z" fill="#6946B3"/>
<path d="M60.2681 14.4814H89.2558V17.2568C89.2558 18.8311 87.9796 20.1072 86.4053 20.1072H63.1185C61.5442 20.1072 60.2681 18.8311 60.2681 17.2568V14.4814Z" fill="white"/>
<path d="M60.2681 25.8875C60.2681 24.3133 61.5442 23.0371 63.1185 23.0371H86.4053C87.9796 23.0371 89.2558 24.3133 89.2558 25.8875V27.9719H60.2681V25.8875Z" fill="#CFFD99"/>
<path d="M60.2681 27.9717H89.2558V30.7471C89.2558 32.3213 87.9796 33.5975 86.4053 33.5975H63.1185C61.5442 33.5975 60.2681 32.3213 60.2681 30.7471V27.9717Z" fill="white"/>
<rect x="3.01709" y="0.0761719" width="38.5308" height="75.1601" rx="2.85042" fill="#F9F9F9"/>
<path d="M7.66577 12.3973C7.66577 10.8231 8.94195 9.54688 10.5162 9.54688H34.8214C36.3957 9.54688 37.6719 10.8231 37.6719 12.3973V14.4817H7.66577V12.3973Z" fill="#6946B3"/>
<path d="M7.66577 14.4814H37.6719V17.2568C37.6719 18.8311 36.3957 20.1072 34.8214 20.1072H10.5162C8.94195 20.1072 7.66577 18.8311 7.66577 17.2568V14.4814Z" fill="white"/>
<path d="M7.66577 25.8875C7.66577 24.3133 8.94195 23.0371 10.5162 23.0371H34.8214C36.3957 23.0371 37.6719 24.3133 37.6719 25.8875V27.9719H7.66577V25.8875Z" fill="#CFFD99"/>
<path d="M7.66577 27.9717H37.6719V30.7471C37.6719 32.3213 36.3957 33.5975 34.8214 33.5975H10.5162C8.94195 33.5975 7.66577 32.3213 7.66577 30.7471V27.9717Z" fill="white"/>
<path d="M7.27954 40.5042C7.27954 38.93 8.55572 37.6538 10.13 37.6538H34.4352C36.0094 37.6538 37.2856 38.93 37.2856 40.5042V42.5886H7.27954V40.5042Z" fill="#6946B3"/>
<path d="M7.27954 42.5884H37.2856V45.3638C37.2856 46.938 36.0094 48.2142 34.4352 48.2142H10.13C8.55572 48.2142 7.27954 46.938 7.27954 45.3638V42.5884Z" fill="white"/>
<path d="M7.27954 55.1204C7.27954 53.5462 8.55572 52.27 10.13 52.27H34.4352C36.0094 52.27 37.2856 53.5462 37.2856 55.1204V57.2048H7.27954V55.1204Z" fill="#CFFD99"/>
<path d="M7.27954 57.2051H37.2856V59.9805C37.2856 61.5547 36.0094 62.8309 34.4352 62.8309H10.13C8.55572 62.8309 7.27954 61.5547 7.27954 59.9805V57.2051Z" fill="white"/>
</g>
<defs>
<filter id="filter0_d_85_2266" x="0.166667" y="0.0761719" width="143.234" height="80.861" filterUnits="userSpaceOnUse" color-interpolation-filters="sRGB">
<feFlood flood-opacity="0" result="BackgroundImageFix"/>
<feColorMatrix in="SourceAlpha" type="matrix" values="0 0 0 0 0 0 0 0 0 0 0 0 0 0 0 0 0 0 127 0" result="hardAlpha"/>
<feOffset dy="2.85042"/>
<feGaussianBlur stdDeviation="1.42521"/>
<feComposite in2="hardAlpha" operator="out"/>
<feColorMatrix type="matrix" values="0 0 0 0 0 0 0 0 0 0 0 0 0 0 0 0 0 0 0.25 0"/>
<feBlend mode="normal" in2="BackgroundImageFix" result="effect1_dropShadow_85_2266"/>
<feBlend mode="normal" in="SourceGraphic" in2="effect1_dropShadow_85_2266" result="shape"/>
</filter>
</defs>
</svg>
