<svg width="185" height="195" viewBox="0 0 185 195" fill="none" xmlns="http://www.w3.org/2000/svg">
<path d="M152.021 49.3014C148.554 39.9377 143.144 31.3917 136.138 24.2107C130.193 18.1205 120.941 18.3736 120.941 18.3736L120.888 18.3088C118.662 15.599 115.674 13.5984 112.299 12.5581C108.925 11.5178 105.314 11.4841 101.92 12.4612C101.038 12.711 100.36 12.8218 100.037 12.7105C94.1539 10.6785 94.4303 6.09197 89.3544 2.39712C80.4667 -4.07235 50.9872 3.33829 46.8303 15.2429C43.4612 24.8913 28.4225 29.5678 22.8039 36.948C21.9253 38.102 21.0633 39.2694 20.2179 40.4501C19.8215 40.9987 19.4296 41.5514 19.0421 42.1082C15.0614 47.7973 11.4902 53.7551 8.355 59.9378C6.29906 63.9772 4.51222 68.1447 3.00586 72.4136C-2.85361 89.3182 -0.849854 101.913 15.3066 98.8014C17.2191 98.4321 19.0857 98.1017 20.9064 97.8102C23.5428 97.3856 26.0872 97.0366 28.5397 96.7634C31.8423 96.3927 34.9843 96.1499 37.9657 96.0348C38.9681 95.995 39.9522 95.9683 40.9179 95.9548C55.1962 95.7594 65.7872 98.4114 73.8558 102.528C75.2235 103.224 76.5197 103.961 77.7442 104.738C79.6145 105.917 81.4004 107.223 83.0891 108.645C85.4259 110.624 87.5809 112.803 89.5288 115.157L89.6358 115.286C99.073 126.678 102.179 139.29 108.743 141.51C136.805 151.004 154.553 116.589 156.373 82.9232C156.465 81.2267 156.516 79.5352 156.526 77.8484C156.531 77.0945 156.527 76.3425 156.514 75.5926C156.485 73.6361 156.398 71.6922 156.252 69.7718C156.197 69.0376 156.134 68.3073 156.061 67.5808C155.982 66.7974 155.896 66.0187 155.796 65.2448C155.082 59.5724 153.833 54.1755 152.021 49.3014Z" fill="#6946B3"/>
<path d="M42.081 50.5578C42.8877 51.087 43.7134 49.8274 42.8912 49.3216C42.0844 48.7924 41.2587 50.0521 42.081 50.5578Z" fill="#E6E6E6"/>
<path d="M98.7294 65.4655C99.5362 65.9947 100.362 64.7351 99.5396 64.2294C98.7329 63.7002 97.9071 64.9598 98.7294 65.4655Z" fill="#E6E6E6"/>
<path d="M124.072 35.6505C124.879 36.1798 125.704 34.9201 124.882 34.4144C124.075 33.8852 123.25 35.1448 124.072 35.6505Z" fill="#E6E6E6"/>
<path d="M67.0835 29.0479L67.6134 28.9317L67.4974 28.4016L67.8506 28.3242L67.9669 28.8543L68.4968 28.7383L68.5742 29.0915L68.0443 29.2077L68.1603 29.7375L67.8071 29.815L67.6908 29.2849L67.1609 29.4011L67.0835 29.0479Z" fill="#E6E6E6"/>
<path d="M149.074 70.7885L149.604 70.6723L149.488 70.1424L149.841 70.0649L149.958 70.5949L150.488 70.4788L150.565 70.8321L150.035 70.9483L150.151 71.4785L149.798 71.5557L149.682 71.0258L149.152 71.1418L149.074 70.7885Z" fill="#E6E6E6"/>
<path d="M149.074 62.6114C137.548 62.6114 128.204 53.2674 128.204 41.741C128.204 30.2146 137.548 20.8706 149.074 20.8706C160.601 20.8706 169.945 30.2146 169.945 41.741C169.945 53.2674 160.601 62.6114 149.074 62.6114Z" fill="#CFFD99"/>
<path opacity="0.3" d="M62.7729 63.3961L50.6854 25.3428L63.9582 62.9406C64.0239 63.0299 64.0688 63.1347 64.0894 63.2464C64.1099 63.3581 64.1055 63.4735 64.0764 63.583C64.0473 63.6925 63.9944 63.7929 63.9221 63.876C63.8498 63.959 63.7601 64.0223 63.6606 64.0605C63.5611 64.0988 63.4546 64.1109 63.3498 64.0959C63.2451 64.0809 63.1452 64.0392 63.0584 63.9742C62.9716 63.9092 62.9004 63.8229 62.8508 63.7224C62.8011 63.6219 62.7744 63.51 62.7729 63.3961Z" fill="#F0F0F0"/>
<path d="M30.7647 41.0613C33.2716 41.8761 36.0506 42.6765 39.102 43.4625C54.885 47.5263 76.0404 50.6963 98.6711 52.3887C121.302 54.081 142.704 54.0933 158.935 52.4236C166.842 51.6101 173.096 50.4401 177.523 48.9459C182.21 47.3642 184.673 45.4581 184.843 43.2809C185.175 39.0392 176.616 35.3059 169.378 32.921L169.182 33.4898C179.122 36.7649 184.466 40.2259 184.231 43.2351C183.931 47.0679 174.688 50.1992 158.871 51.8266C142.676 53.4927 121.313 53.4799 98.7178 51.7903C76.123 50.1005 55.0065 46.9368 39.2582 42.882C23.8786 38.9222 15.2292 34.4526 15.5289 30.6198C15.7777 27.4376 22.1918 24.7153 33.5895 22.9542L33.4937 22.3613C25.2119 23.641 15.2664 26.1045 14.9168 30.5741C14.7467 32.7513 16.8845 35.0014 21.2711 37.2616C23.7717 38.55 26.9489 39.8211 30.7647 41.0613Z" fill="#3F3D56"/>
<path d="M24.5974 77.5186C23.3624 77.5186 22.3613 76.5175 22.3613 75.2825C22.3613 74.0475 23.3624 73.0464 24.5974 73.0464C25.8324 73.0464 26.8335 74.0475 26.8335 75.2825C26.8335 76.5175 25.8324 77.5186 24.5974 77.5186Z" fill="#FF6584"/>
<path d="M84.9723 149.074C82.5024 149.074 80.5001 147.072 80.5001 144.602C80.5001 142.132 82.5024 140.13 84.9723 140.13C87.4423 140.13 89.4446 142.132 89.4446 144.602C89.4446 147.072 87.4423 149.074 84.9723 149.074Z" fill="#F2F2F2"/>
<path d="M71.7693 80.3052L58.7387 71.2397C60.3853 66.2927 62.6028 61.4858 65.3576 56.8921C69.366 50.0351 75.316 44.1206 82.6416 39.7111C89.9671 35.3016 98.4247 32.5437 107.21 31.6999C108.155 41.0216 106.7 57.7193 87.0578 71.8298C82.2882 75.0791 77.1664 77.9184 71.7693 80.3052Z" fill="#E6E6E6" stroke="#E6E6E6" stroke-width="4.34221" stroke-linecap="round" stroke-linejoin="round"/>
<path d="M58.7385 71.2406L38.7589 73.267C38.7589 73.267 39.9034 62.66 45.3604 58.748C51.4584 54.3902 65.34 56.7216 65.34 56.7216" fill="#E6E6E6"/>
<path d="M58.7385 71.2406L38.7589 73.267C38.7589 73.267 39.9034 62.66 45.3604 58.748C51.4584 54.3902 65.34 56.7216 65.34 56.7216" stroke="#E6E6E6" stroke-width="4.34221" stroke-linecap="round" stroke-linejoin="round"/>
<path d="M71.7692 80.3064L73.5071 97.4419C73.5071 97.4419 85.4236 94.329 88.7957 88.9666C92.5482 82.9769 87.0577 71.831 87.0577 71.831" fill="#E6E6E6"/>
<path d="M71.7692 80.3064L73.5071 97.4419C73.5071 97.4419 85.4236 94.329 88.7957 88.9666C92.5482 82.9769 87.0577 71.831 87.0577 71.831" stroke="#E6E6E6" stroke-width="4.34221" stroke-linecap="round" stroke-linejoin="round"/>
<path d="M39.6853 81.9456L37.1574 85.4042C36.6485 84.0612 34.9418 83.5187 33.5772 84.2661C32.2125 85.0135 31.4369 86.9156 31.9499 88.2564C30.7672 88.6214 29.7237 87.8709 28.7955 87.2323C27.8672 86.5938 26.6207 86.0465 25.5416 86.7516C24.675 87.3178 24.308 88.5127 24.4407 89.4824C24.5734 90.4521 25.0955 91.2503 25.6057 92.0172C23.6494 91.5327 21.2059 92.7758 20.109 94.8134C19.0121 96.8511 19.3869 99.4512 20.9519 100.662C18.9149 100.34 16.5 102.046 15.8575 104.263C15.2098 106.497 16.2337 108.61 17.4045 110.3C20.3794 114.607 24.5586 117.941 29.4189 119.884C31.2768 120.625 33.2735 121.166 35.3737 120.993C37.4739 120.819 39.7017 119.847 41.1731 118.045C38.9235 119.592 38.4121 123.024 39.5254 125.209C40.6387 127.395 42.8993 128.566 45.1683 129.361C48.1857 130.419 51.8436 130.903 54.8196 128.816C56.2928 127.783 57.3993 126.247 58.4663 124.752L60.5349 121.852C61.37 120.682 62.2174 119.488 62.7194 118.159C63.2214 116.829 63.3341 115.318 62.7029 114.232C63.9841 113.829 65.3084 113.403 66.3984 112.502C67.4884 111.6 68.2829 110.083 67.9433 108.833C67.5111 107.243 65.562 106.801 64.8853 105.341C64.234 103.935 64.9443 102.058 64.732 100.452C64.6569 99.7843 64.3886 99.1526 63.9599 98.6346C63.5312 98.1167 62.9607 97.735 62.3184 97.5363C61.0413 97.1728 59.4846 97.608 58.3673 98.6408C57.3885 99.5456 56.7894 100.805 55.9421 101.846C55.0948 102.887 53.7343 103.753 52.68 103.289C51.4079 102.729 51.537 100.694 52.2823 99.2602C53.0276 97.8266 54.2064 96.5735 54.6493 95.0469C55.172 93.2451 54.4321 91.317 52.95 90.619C51.4679 89.9209 49.3878 90.5206 48.1728 91.9963C47.1793 93.203 46.5261 95.0378 45.1131 95.3404C43.6199 95.6603 42.7693 93.8045 43.052 92.2294C43.3347 90.6543 44.2739 89.1781 44.5841 87.6044C44.8991 86.0063 44.5065 84.3797 43.5464 83.3043C43.0468 82.766 42.4196 82.3622 41.7228 82.1301C41.026 81.8981 40.2819 81.8453 39.5593 81.9767" fill="url(#paint0_linear_85_1506)"/>
<path d="M109.388 27.0545C107.477 25.5572 103.371 27.6041 102.358 28.8929L100.525 31.2269L107.438 36.6539L109.27 34.3198C110.282 33.0302 111.296 28.5548 109.388 27.0545Z" fill="#3F3D56"/>
<path d="M67.6008 87.0279L64.3675 84.6864C63.8676 84.3422 63.4941 83.8438 63.3041 83.2673C63.1564 82.7478 63.2639 82.2811 63.5994 81.9869L66.6246 79.3336C67.1952 78.833 68.2616 78.9417 69.16 79.5923L70.9456 80.8854C71.844 81.536 72.28 82.5153 71.9823 83.2136L70.4052 86.9154C70.2304 87.326 69.8205 87.5737 69.2808 87.5956C68.6738 87.5949 68.0838 87.3955 67.6008 87.0279Z" fill="#3F3D56"/>
<path d="M58.9416 81.2584L55.7083 78.9169C55.2084 78.5727 54.8349 78.0743 54.6449 77.4978C54.4973 76.9783 54.6048 76.5115 54.9403 76.2174L57.9654 73.5641C58.536 73.0634 59.6024 73.1722 60.5008 73.8228L62.2864 75.1159C63.1848 75.7665 63.6208 76.7458 63.3232 77.444L61.746 81.1459C61.5712 81.5565 61.1613 81.8042 60.6216 81.826C60.0147 81.8253 59.4246 81.626 58.9416 81.2584Z" fill="#3F3D56"/>
<path d="M100.99 41.2253L102.77 39.5481L103.182 40.1712L101.407 41.8432L75.4761 66.109L75.0631 65.4871" fill="#3F3D56"/>
<path d="M105.422 45.5426L98.2054 38.659C96.8128 37.3306 95.8096 34.9104 95.9695 33.2646C96.1294 31.6188 97.3928 31.3605 98.7854 32.6888L106.002 39.5725C107.395 40.9008 108.398 43.3211 108.238 44.9668C108.078 46.6126 106.815 46.871 105.422 45.5426Z" fill="#3F3D56"/>
<path d="M102.678 53.5356L99.9618 58.02L82.3671 72.0895L80.4767 70.7845L102.678 53.5356Z" fill="#CCCCCC"/>
<path d="M88.241 38.6577L83.2884 40.4996L66.1366 55.0925L67.1008 57.1615L88.241 38.6577Z" fill="#CCCCCC"/>
<path d="M24.5124 117.769C27.1522 117.769 30.0455 117.671 33.1924 117.475C49.4688 116.459 70.5518 112.928 92.5577 107.532C114.563 102.135 134.863 95.5187 149.717 88.9008C156.953 85.6769 162.506 82.6253 166.223 79.8305C170.158 76.8718 171.879 74.2928 171.339 72.1654C170.286 68.021 160.967 67.1143 153.335 67.0835L153.332 67.6862C163.813 67.7285 169.997 69.3711 170.744 72.3114C171.695 76.0563 163.938 81.9027 149.464 88.3519C134.642 94.9552 114.38 101.559 92.4091 106.947C70.4382 112.334 49.3941 115.86 33.1534 116.873C17.293 117.863 7.65057 116.283 6.69963 112.538C5.91011 109.429 6.9604 106.388 17.2012 101.18L17.9773 100.831C10.5362 104.615 4.99561 108.317 6.10448 112.684C6.64473 114.811 9.39711 116.293 14.2853 117.088C17.0717 117.542 20.4942 117.769 24.5124 117.769Z" fill="#3F3D56"/>
<path d="M28.3064 187.963V185.495H31.3317V177.454H28.3064V174.986H37.3028V177.454H34.2774V185.495H37.3028V187.963H28.3064ZM40.2009 187.963V178.091H42.5894L42.8083 179.405H42.8879C43.3125 178.98 43.7968 178.615 44.3409 178.31C44.8982 178.005 45.5484 177.852 46.2914 177.852C47.406 177.852 48.2221 178.211 48.7396 178.927C49.2571 179.644 49.5158 180.626 49.5158 181.873V187.963H46.59V182.251C46.59 181.588 46.4772 181.103 46.2516 180.798C46.0393 180.493 45.6678 180.34 45.137 180.34C44.7389 180.34 44.3873 180.433 44.0821 180.619C43.7902 180.791 43.4717 181.044 43.1268 181.375V187.963H40.2009ZM52.1353 187.963V178.091H54.5237L54.7427 179.405H54.8223C55.2469 178.98 55.7312 178.615 56.2752 178.31C56.8325 178.005 57.4827 177.852 58.2258 177.852C59.3404 177.852 60.1564 178.211 60.6739 178.927C61.1914 179.644 61.4502 180.626 61.4502 181.873V187.963H58.5243V182.251C58.5243 181.588 58.4116 181.103 58.186 180.798C57.9737 180.493 57.6021 180.34 57.0714 180.34C56.6733 180.34 56.3217 180.433 56.0165 180.619C55.7246 180.791 55.4061 181.044 55.0611 181.375V187.963H52.1353ZM68.6077 188.202C67.7452 188.202 66.9291 188.003 66.1595 187.605C65.3899 187.194 64.7663 186.603 64.2886 185.834C63.8109 185.051 63.5721 184.115 63.5721 183.027C63.5721 181.939 63.8109 181.01 64.2886 180.241C64.7663 179.458 65.3899 178.867 66.1595 178.469C66.9291 178.058 67.7452 177.852 68.6077 177.852C69.4702 177.852 70.2862 178.058 71.0558 178.469C71.8254 178.867 72.4491 179.458 72.9268 180.241C73.4044 181.01 73.6433 181.939 73.6433 183.027C73.6433 184.115 73.4044 185.051 72.9268 185.834C72.4491 186.603 71.8254 187.194 71.0558 187.605C70.2862 188.003 69.4702 188.202 68.6077 188.202ZM68.6077 185.834C69.0588 185.834 69.4304 185.721 69.7223 185.495C70.0275 185.27 70.253 184.945 70.399 184.52C70.5582 184.095 70.6378 183.598 70.6378 183.027C70.6378 182.457 70.5582 181.959 70.399 181.535C70.253 181.11 70.0275 180.785 69.7223 180.559C69.4304 180.334 69.0588 180.221 68.6077 180.221C68.1565 180.221 67.7784 180.334 67.4732 180.559C67.1813 180.785 66.9557 181.11 66.7965 181.535C66.6505 181.959 66.5775 182.457 66.5775 183.027C66.5775 183.598 66.6505 184.095 66.7965 184.52C66.9557 184.945 67.1813 185.27 67.4732 185.495C67.7784 185.721 68.1565 185.834 68.6077 185.834ZM78.91 187.963L75.188 178.091H78.1337L79.6862 182.749C79.8454 183.24 79.998 183.737 80.144 184.241C80.2899 184.746 80.4359 185.263 80.5819 185.794H80.6615C80.8074 185.263 80.9468 184.746 81.0794 184.241C81.2254 183.737 81.378 183.24 81.5372 182.749L83.0897 178.091H85.8961L82.2737 187.963H78.91ZM90.9638 188.202C90.3003 188.202 89.7231 188.07 89.2321 187.804C88.7545 187.539 88.3829 187.181 88.1175 186.729C87.8522 186.278 87.7195 185.774 87.7195 185.217C87.7195 184.115 88.2171 183.273 89.2122 182.689C90.2207 182.105 91.8926 181.747 94.2279 181.614C94.1881 181.309 94.0886 181.05 93.9294 180.838C93.7702 180.626 93.5379 180.466 93.2328 180.36C92.9408 180.241 92.5693 180.181 92.1182 180.181C91.7997 180.181 91.4812 180.221 91.1628 180.301C90.8443 180.367 90.5126 180.473 90.1676 180.619C89.8359 180.752 89.4843 180.911 89.1127 181.097L88.0777 179.186C88.5289 178.921 88.9999 178.688 89.4909 178.489C89.9951 178.29 90.5126 178.138 91.0434 178.031C91.5874 177.912 92.1381 177.852 92.6954 177.852C93.6242 177.852 94.4203 178.018 95.0838 178.35C95.7472 178.668 96.2581 179.159 96.6164 179.823C96.9746 180.473 97.1538 181.302 97.1538 182.311V187.963H94.7653L94.5464 186.849H94.4668C93.9758 187.22 93.4318 187.539 92.8347 187.804C92.2376 188.07 91.6139 188.202 90.9638 188.202ZM91.8992 185.933C92.3371 185.933 92.7484 185.847 93.1332 185.674C93.518 185.489 93.8829 185.263 94.2279 184.998V183.366C93.2593 183.419 92.503 183.518 91.9589 183.664C91.4282 183.81 91.0566 183.996 90.8443 184.222C90.632 184.447 90.5259 184.706 90.5259 184.998C90.5259 185.197 90.579 185.369 90.6851 185.515C90.8045 185.661 90.9638 185.767 91.1628 185.834C91.3751 185.9 91.6206 185.933 91.8992 185.933ZM105.267 188.202C104.232 188.202 103.296 188.003 102.46 187.605C101.638 187.194 100.981 186.603 100.49 185.834C100.012 185.051 99.7733 184.115 99.7733 183.027C99.7733 181.939 100.039 181.01 100.569 180.241C101.1 179.458 101.797 178.867 102.659 178.469C103.535 178.058 104.477 177.852 105.486 177.852C106.268 177.852 106.978 177.978 107.615 178.231C108.252 178.469 108.776 178.788 109.188 179.186L107.834 180.997C107.449 180.732 107.078 180.539 106.72 180.42C106.375 180.287 106.016 180.221 105.645 180.221C105.088 180.221 104.59 180.334 104.152 180.559C103.714 180.785 103.376 181.11 103.137 181.535C102.898 181.959 102.779 182.457 102.779 183.027C102.779 183.598 102.891 184.095 103.117 184.52C103.356 184.945 103.681 185.27 104.092 185.495C104.517 185.721 105.001 185.834 105.545 185.834C106.063 185.834 106.534 185.741 106.958 185.555C107.396 185.369 107.794 185.15 108.153 184.898L109.327 186.749C108.743 187.24 108.086 187.605 107.357 187.844C106.64 188.083 105.943 188.202 105.267 188.202ZM115.907 187.963V180.38H111.927V178.091H118.833V187.963H115.907ZM117.241 176.539C116.684 176.539 116.219 176.379 115.848 176.061C115.476 175.729 115.29 175.298 115.29 174.767C115.29 174.223 115.476 173.785 115.848 173.454C116.219 173.109 116.684 172.936 117.241 172.936C117.811 172.936 118.276 173.109 118.634 173.454C119.006 173.785 119.191 174.223 119.191 174.767C119.191 175.298 119.006 175.729 118.634 176.061C118.276 176.379 117.811 176.539 117.241 176.539ZM128.28 188.202C127.417 188.202 126.601 188.003 125.831 187.605C125.062 187.194 124.438 186.603 123.96 185.834C123.483 185.051 123.244 184.115 123.244 183.027C123.244 181.939 123.483 181.01 123.96 180.241C124.438 179.458 125.062 178.867 125.831 178.469C126.601 178.058 127.417 177.852 128.28 177.852C129.142 177.852 129.958 178.058 130.728 178.469C131.497 178.867 132.121 179.458 132.599 180.241C133.076 181.01 133.315 181.939 133.315 183.027C133.315 184.115 133.076 185.051 132.599 185.834C132.121 186.603 131.497 187.194 130.728 187.605C129.958 188.003 129.142 188.202 128.28 188.202ZM128.28 185.834C128.731 185.834 129.102 185.721 129.394 185.495C129.699 185.27 129.925 184.945 130.071 184.52C130.23 184.095 130.31 183.598 130.31 183.027C130.31 182.457 130.23 181.959 130.071 181.535C129.925 181.11 129.699 180.785 129.394 180.559C129.102 180.334 128.731 180.221 128.28 180.221C127.828 180.221 127.45 180.334 127.145 180.559C126.853 180.785 126.628 181.11 126.468 181.535C126.322 181.959 126.249 182.457 126.249 183.027C126.249 183.598 126.322 184.095 126.468 184.52C126.628 184.945 126.853 185.27 127.145 185.495C127.45 185.721 127.828 185.834 128.28 185.834ZM128.16 176.797L126.727 175.364L129.772 171.742L131.763 173.693L128.16 176.797ZM135.676 187.963V178.091H138.064L138.283 179.405H138.363C138.787 178.98 139.272 178.615 139.816 178.31C140.373 178.005 141.023 177.852 141.766 177.852C142.881 177.852 143.697 178.211 144.215 178.927C144.732 179.644 144.991 180.626 144.991 181.873V187.963H142.065V182.251C142.065 181.588 141.952 181.103 141.727 180.798C141.514 180.493 141.143 180.34 140.612 180.34C140.214 180.34 139.862 180.433 139.557 180.619C139.265 180.791 138.947 181.044 138.602 181.375V187.963H135.676Z" fill="#6946B3"/>
<defs>
<linearGradient id="paint0_linear_85_1506" x1="42.0332" y1="149.761" x2="-1.78224" y2="67.4927" gradientUnits="userSpaceOnUse">
<stop stop-color="#A2FF84"/>
<stop offset="1" stop-color="#7C43BD"/>
</linearGradient>
</defs>
</svg>
