<svg width="532" height="428" viewBox="0 0 532 428" fill="none" xmlns="http://www.w3.org/2000/svg">
<rect width="532" height="428" fill="#F5F5F5"/>
<g clip-path="url(#clip0_0_1)">
<rect width="1280" height="5406" transform="translate(-648 -2360)" fill="white"/>
<path d="M15.8468 213.731H13.6304V220.927H15.8468V213.731Z" fill="#E5E5E5"/>
<path d="M15.8485 374.254H13.6321V358.921H15.8485V374.254ZM15.8485 343.589H13.6321V328.256H15.8485V343.589ZM15.8485 312.923H13.6321V297.591H15.8485V312.923ZM15.8485 282.258H13.6321V266.925H15.8485V282.258ZM15.8485 251.593H13.6321V236.26H15.8485V251.593Z" fill="#E5E5E5"/>
<path d="M15.8468 389.586H13.6304V396.782H15.8468V389.586Z" fill="#E5E5E5"/>
<path d="M258.541 213.731H256.325V220.927H258.541V213.731Z" fill="#E5E5E5"/>
<path d="M258.545 374.254H256.328V358.921H258.545V374.254ZM258.545 343.589H256.328V328.256H258.545V343.589ZM258.545 312.923H256.328V297.591H258.545V312.923ZM258.545 282.258H256.328V266.925H258.545V282.258ZM258.545 251.593H256.328V236.26H258.545V251.593Z" fill="#E5E5E5"/>
<path d="M258.541 389.586H256.325V396.782H258.541V389.586Z" fill="#E5E5E5"/>
<path d="M380.966 72.9547H378.75V80.1509H380.966V72.9547Z" fill="#E5E5E5"/>
<path d="M380.966 374.851H378.75V360.116H380.966V374.851ZM380.966 345.381H378.75V330.645H380.966V345.381ZM380.966 315.91H378.75V301.176H380.966V315.91ZM380.966 286.441H378.75V271.706H380.966V286.441ZM380.966 256.971H378.75V242.235H380.966V256.971ZM380.966 227.5H378.75V212.765H380.966V227.5ZM380.966 198.03H378.75V183.295H380.966V198.03ZM380.966 168.56H378.75V153.826H380.966V168.56ZM380.966 139.09H378.75V124.355H380.966V139.09ZM380.966 109.62H378.75V94.8851H380.966V109.62Z" fill="#E5E5E5"/>
<path d="M380.966 389.586H378.75V396.782H380.966V389.586Z" fill="#E5E5E5"/>
<path d="M502.166 15.3863H499.949V22.5825H502.166V15.3863Z" fill="#E5E5E5"/>
<path d="M502.166 374.907H499.949V360.226H502.166V374.907ZM502.166 345.546H499.949V330.866H502.166V345.546ZM502.166 316.186H499.949V301.505H502.166V316.186ZM502.166 286.826H499.949V272.145H502.166V286.826ZM502.166 257.465H499.949V242.785H502.166V257.465ZM502.166 228.105H499.949V213.424H502.166V228.105ZM502.166 198.744H499.949V184.064H502.166V198.744ZM502.166 169.384H499.949V154.704H502.166V169.384ZM502.166 140.024H499.949V125.343H502.166V140.024ZM502.166 110.663H499.949V95.9829H502.166V110.663ZM502.166 81.3027H499.949V66.6225H502.166V81.3027ZM502.166 51.9423H499.949V37.2621H502.166V51.9423Z" fill="#E5E5E5"/>
<path d="M502.166 389.586H499.949V396.782H502.166V389.586Z" fill="#E5E5E5"/>
<path d="M137.747 117.331H135.531V124.527H137.747V117.331Z" fill="#E5E5E5"/>
<path d="M137.751 375.635H135.534V361.685H137.751V375.635ZM137.751 347.734H135.534V333.784H137.751V347.734ZM137.751 319.833H135.534V305.883H137.751V319.833ZM137.751 291.932H135.534V277.982H137.751V291.932ZM137.751 264.031H135.534V250.081H137.751V264.031ZM137.751 236.13H135.534V222.18H137.751V236.13ZM137.751 208.229H135.534V194.279H137.751V208.229ZM137.751 180.328H135.534V166.378H137.751V180.328ZM137.751 152.427H135.534V138.477H137.751V152.427Z" fill="#E5E5E5"/>
<path d="M137.747 389.586H135.531V396.782H137.747V389.586Z" fill="#E5E5E5"/>
<path d="M258.44 217.07L136.444 118.177L16.1145 215.719L13.3606 211.74L136.444 111.965L257.86 210.389L378.514 67.4918L378.998 67.2796L500.704 14.209L502.421 18.8205L381.199 71.6788L258.44 217.07Z" fill="#3F3D56"/>
<path d="M14.739 228.644C22.3484 228.644 28.5171 221.968 28.5171 213.732C28.5171 205.497 22.3484 198.821 14.739 198.821C7.12957 198.821 0.960938 205.497 0.960938 213.732C0.960938 221.968 7.12957 228.644 14.739 228.644Z" fill="#6946B3"/>
<path d="M136.443 131.718C144.053 131.718 150.221 125.042 150.221 116.806C150.221 108.571 144.053 101.895 136.443 101.895C128.834 101.895 122.665 108.571 122.665 116.806C122.665 125.042 128.834 131.718 136.443 131.718Z" fill="#6946B3"/>
<path d="M258.151 228.644C265.76 228.644 271.929 221.968 271.929 213.732C271.929 205.497 265.76 198.821 258.151 198.821C250.541 198.821 244.373 205.497 244.373 213.732C244.373 221.968 250.541 228.644 258.151 228.644Z" fill="#6946B3"/>
<path d="M379.856 84.4995C387.466 84.4995 393.635 77.8234 393.635 69.5881C393.635 61.3527 387.466 54.6766 379.856 54.6766C372.247 54.6766 366.078 61.3527 366.078 69.5881C366.078 77.8234 372.247 84.4995 379.856 84.4995Z" fill="#6946B3"/>
<path d="M501.564 29.8229C509.174 29.8229 515.342 23.1468 515.342 14.9115C515.342 6.67609 509.174 0 501.564 0C493.955 0 487.786 6.67609 487.786 14.9115C487.786 23.1468 493.955 29.8229 501.564 29.8229Z" fill="#6946B3"/>
<path d="M50.99 401.242C48.5105 401.242 46.0258 401.346 43.5994 401.554L43.2463 401.584C27.1516 403.019 15.3791 411.346 15.8633 420.955L15.9569 422.692C16.0186 423.79 16.0844 424.971 16.1385 426.281C16.1678 426.927 17.0416 427.423 18.1288 427.423H414.018C441.93 427.252 469.741 427.037 496.674 426.783C501.725 426.794 506.773 426.53 511.796 425.993C519.281 425.099 524.476 423.328 527.68 420.577H527.681C531.664 417.166 531.79 412.871 531.549 408.018C531.058 398.219 530.571 387.925 530.086 377.663C529.657 368.618 529.23 359.597 528.803 350.961C528.539 345.836 527.952 341.312 523.428 337.855C518.524 334.116 509.581 332.22 496.847 332.22C496.693 332.22 496.541 332.22 496.385 332.221C456.477 332.364 416.934 346.208 397.989 366.67C395.808 369.026 393.775 371.548 391.809 373.988C388.904 377.593 385.901 381.319 382.317 384.651C380.376 386.48 378.278 388.13 376.046 389.583C375.892 389.69 375.716 389.805 375.53 389.914C375.104 390.194 374.659 390.464 374.225 390.704C371.683 392.185 369.005 393.414 366.228 394.372L365.948 394.467C365.737 394.543 365.508 394.619 365.279 394.689C363.676 395.208 362.01 395.657 360.341 396.021C353.119 397.626 344.907 398.011 335.934 397.164C327.694 396.364 319.561 394.692 311.668 392.175C303.359 389.525 295.581 386.222 288.06 383.028C284.757 381.625 281.34 380.174 277.927 378.799C277.286 378.541 276.655 378.288 276.014 378.035C271.846 376.396 268.067 375.042 264.462 373.897C255.53 371.048 246.284 369.32 236.934 368.753C227.008 368.205 218.262 369.239 210.943 371.819C208.925 372.528 206.96 373.382 205.064 374.375C196.395 378.916 191.051 385.619 185.884 392.101C179.455 400.164 172.808 408.501 159.682 412.824C144.536 417.816 122.428 415.742 106.787 412.135C101.869 411.001 96.9573 409.696 92.2071 408.434C90.2886 407.924 88.3688 407.418 86.4476 406.915C82.6724 405.932 79.5827 405.178 76.7242 404.542L75.82 404.34C75.3172 404.229 74.8138 404.119 74.3012 404.014C70.906 403.295 67.7444 402.729 64.6309 402.284L63.8943 402.176C62.4174 401.979 61.0368 401.816 59.6819 401.679L59.1411 401.624C56.4875 401.37 53.7413 401.242 50.99 401.242Z" fill="url(#paint0_linear_0_1)"/>
<path d="M456.079 348.775C466.463 338.648 481.909 333.556 494.865 339.235C481.575 347.22 471.323 360.036 465.923 375.414C463.861 381.353 462.138 388.191 457.065 391.371C453.908 393.35 449.981 393.446 446.442 392.491C442.903 391.536 439.658 389.621 436.458 387.726L435.548 387.704C439.635 373.237 445.695 358.903 456.079 348.775Z" fill="url(#paint1_linear_0_1)"/>
<path d="M494.792 339.543C483.317 341.147 472.602 346.624 464.167 355.196C462.321 357.006 460.75 359.12 459.512 361.46C458.374 363.781 457.832 366.39 457.941 369.015C457.997 371.464 458.316 373.963 457.821 376.385C457.551 377.621 457.042 378.781 456.328 379.789C455.614 380.797 454.712 381.63 453.68 382.234C451.144 383.811 448.236 384.308 445.377 384.688C442.202 385.109 438.898 385.492 436.15 387.419C435.817 387.653 435.502 387.08 435.834 386.847C440.616 383.494 446.666 384.714 451.807 382.476C454.206 381.432 456.329 379.599 457.08 376.827C457.737 374.404 457.41 371.827 457.333 369.347C457.192 366.788 457.633 364.23 458.616 361.898C459.739 359.497 461.232 357.321 463.031 355.463C467.018 351.21 471.598 347.661 476.603 344.948C482.3 341.816 488.45 339.763 494.786 338.876C495.178 338.821 495.182 339.488 494.792 339.543Z" fill="white"/>
<path d="M466.732 352.262C465.595 350.535 465.063 348.427 465.23 346.315C465.396 344.202 466.252 342.223 467.643 340.73C467.925 340.429 468.37 340.89 468.088 341.191C466.79 342.579 465.994 344.423 465.842 346.39C465.691 348.358 466.194 350.319 467.261 351.92C467.493 352.268 466.962 352.608 466.732 352.262Z" fill="white"/>
<path d="M457.761 367.776C461.705 368.532 465.766 367.652 469.136 365.311C469.47 365.079 469.786 365.651 469.452 365.883C465.941 368.312 461.712 369.219 457.611 368.422C457.22 368.346 457.373 367.7 457.761 367.776Z" fill="white"/>
<path d="M482.349 342.699C482.66 343.466 483.143 344.138 483.753 344.653C484.363 345.169 485.082 345.513 485.846 345.653C486.237 345.724 486.084 346.37 485.695 346.3C484.852 346.14 484.059 345.76 483.383 345.191C482.708 344.623 482.171 343.885 481.82 343.04C481.781 342.964 481.77 342.874 481.79 342.789C481.81 342.704 481.859 342.631 481.927 342.583C481.997 342.538 482.081 342.525 482.16 342.547C482.239 342.569 482.307 342.623 482.349 342.699Z" fill="white"/>
<path d="M509.13 388.073C508.885 388.036 508.639 387.999 508.39 387.967C505.084 387.492 501.748 387.309 498.416 387.418C498.158 387.422 497.897 387.431 497.639 387.443C489.612 387.8 481.716 389.767 474.352 393.244C471.423 394.63 468.596 396.256 465.895 398.107C462.165 400.663 458.308 403.755 454.138 404.798C453.704 404.912 453.264 404.997 452.821 405.052L435.592 388.907C435.57 388.849 435.544 388.795 435.522 388.737L434.807 388.127C434.94 388.021 435.08 387.914 435.213 387.808C435.29 387.746 435.371 387.688 435.448 387.626C435.501 387.586 435.553 387.546 435.599 387.506C435.616 387.493 435.634 387.48 435.648 387.471C435.693 387.431 435.739 387.4 435.781 387.365C436.563 386.765 437.351 386.171 438.143 385.581C438.147 385.577 438.147 385.577 438.154 385.576C444.154 381.021 450.633 377.252 457.453 374.349C457.658 374.265 457.866 374.177 458.078 374.101C461.15 372.864 464.31 371.902 467.526 371.223C469.289 370.858 471.067 370.589 472.855 370.418C477.474 369.986 482.128 370.342 486.645 371.475C495.649 373.735 503.885 379.086 508.763 387.431C508.888 387.645 509.009 387.855 509.13 388.073Z" fill="url(#paint2_linear_0_1)"/>
<path d="M508.903 388.273C498.848 382.077 487.245 379.468 475.743 380.816C473.262 381.058 470.831 381.722 468.541 382.784C466.342 383.896 464.457 385.625 463.084 387.792C461.766 389.785 460.631 391.988 458.888 393.599C457.984 394.41 456.933 395.004 455.803 395.344C454.672 395.684 453.488 395.761 452.328 395.571C449.426 395.178 446.827 393.68 444.333 392.12C441.564 390.387 438.713 388.541 435.447 388.289C435.051 388.258 435.118 387.595 435.513 387.626C441.196 388.064 445.348 392.981 450.698 394.544C453.194 395.273 455.909 395.193 458.051 393.47C459.923 391.963 461.095 389.692 462.414 387.662C463.725 385.527 465.499 383.772 467.582 382.55C469.814 381.365 472.217 380.601 474.687 380.289C480.236 379.491 485.867 379.642 491.373 380.737C497.664 381.948 503.716 384.316 509.269 387.737C509.613 387.948 509.244 388.483 508.903 388.273Z" fill="white"/>
<path d="M479.423 380.146C479.476 378.027 480.224 375.997 481.532 374.419C482.84 372.841 484.624 371.818 486.565 371.532C486.958 371.476 487.058 372.134 486.664 372.19C484.856 372.453 483.195 373.406 481.979 374.878C480.763 376.35 480.074 378.244 480.036 380.218C480.027 380.647 479.414 380.573 479.423 380.146Z" fill="white"/>
<path d="M463.629 386.687C466.357 389.86 470.09 391.804 474.083 392.131C474.479 392.163 474.412 392.825 474.017 392.793C469.862 392.445 465.981 390.413 463.149 387.105C462.88 386.789 463.361 386.373 463.629 386.687Z" fill="white"/>
<path d="M497.212 382.687C497.034 383.502 497.045 384.353 497.246 385.162C497.446 385.972 497.829 386.714 498.36 387.324C498.634 387.636 498.152 388.052 497.88 387.742C497.296 387.066 496.874 386.245 496.651 385.351C496.428 384.457 496.41 383.518 496.6 382.615C496.611 382.528 496.652 382.449 496.716 382.395C496.779 382.34 496.859 382.313 496.939 382.319C497.02 382.329 497.094 382.374 497.146 382.442C497.197 382.511 497.221 382.599 497.212 382.687Z" fill="white"/>
<path d="M184.244 358.847C192.747 344.889 207.958 334.793 223.274 336.965C211.113 349.508 203.443 366.301 201.621 384.375C200.941 391.348 200.856 399.18 196.248 404.108C193.38 407.174 189.205 408.46 185.174 408.504C181.143 408.548 177.181 407.477 173.271 406.414L172.292 406.664C172.945 389.96 175.741 372.805 184.244 358.847Z" fill="url(#paint3_linear_0_1)"/>
<path d="M223.276 337.317C211.416 342.488 201.363 351.572 194.545 363.279C193.036 365.771 191.899 368.505 191.177 371.38C190.557 374.205 190.647 377.159 191.438 379.933C192.128 382.537 193.112 385.113 193.205 387.852C193.233 389.255 192.987 390.649 192.483 391.942C191.979 393.235 191.228 394.398 190.279 395.355C187.973 397.805 184.99 399.212 182.03 400.479C178.742 401.885 175.307 403.29 172.863 406.178C172.567 406.528 172.083 406.011 172.379 405.661C176.63 400.635 183.415 400.119 188.339 396.177C190.636 394.338 192.435 391.738 192.526 388.548C192.606 385.759 191.594 383.101 190.874 380.472C190.066 377.777 189.879 374.909 190.331 372.118C190.916 369.213 191.953 366.436 193.399 363.907C196.57 358.158 200.556 352.983 205.212 348.574C210.5 343.51 216.549 339.462 223.098 336.605C223.504 336.429 223.679 337.141 223.276 337.317Z" fill="white"/>
<path d="M196.536 359.369C194.876 357.865 193.765 355.771 193.4 353.461C193.036 351.152 193.442 348.777 194.545 346.761C194.77 346.354 195.365 346.713 195.14 347.12C194.109 348.995 193.731 351.207 194.075 353.357C194.418 355.507 195.461 357.453 197.014 358.845C197.351 359.147 196.871 359.67 196.536 359.369Z" fill="white"/>
<path d="M190.927 378.663C195.339 378.285 199.457 376.121 202.46 372.602C202.757 372.253 203.242 372.771 202.945 373.119C199.814 376.775 195.524 379.017 190.932 379.4C190.495 379.437 190.492 378.699 190.927 378.663Z" fill="white"/>
<path d="M210.779 344.438C211.309 345.165 211.998 345.738 212.783 346.106C213.569 346.474 214.426 346.625 215.278 346.545C215.715 346.503 215.718 347.24 215.283 347.282C214.341 347.365 213.395 347.197 212.526 346.793C211.658 346.388 210.894 345.76 210.302 344.963C210.24 344.893 210.205 344.8 210.205 344.703C210.204 344.606 210.237 344.513 210.298 344.442C210.362 344.373 210.448 344.333 210.538 344.333C210.628 344.332 210.715 344.37 210.779 344.438Z" fill="white"/>
<path d="M251.087 384.904C250.815 384.939 250.542 384.973 250.267 385.014C246.61 385.501 242.995 386.309 239.459 387.43C239.184 387.512 238.907 387.6 238.635 387.69C230.142 390.489 222.202 394.97 215.22 400.906C212.444 403.271 209.838 405.86 207.425 408.653C204.092 412.51 200.762 416.979 196.571 419.349C196.136 419.602 195.687 419.825 195.227 420.018L172.65 407.938C172.611 407.882 172.57 407.832 172.531 407.777L171.609 407.339C171.725 407.186 171.847 407.029 171.962 406.876C172.029 406.786 172.1 406.7 172.167 406.611C172.212 406.552 172.259 406.493 172.297 406.437C172.312 406.418 172.328 406.398 172.34 406.384C172.379 406.329 172.42 406.281 172.456 406.231C173.138 405.354 173.827 404.481 174.524 403.612C174.526 403.607 174.526 403.607 174.534 403.604C179.854 396.995 185.731 390.809 192.289 385.785C192.486 385.634 192.686 385.477 192.893 385.331C195.861 383.084 198.993 381.104 202.259 379.409C204.05 378.488 205.883 377.665 207.751 376.943C212.58 375.09 217.649 374.071 222.771 373.922C232.982 373.628 243.167 376.872 250.529 384.328C250.718 384.519 250.901 384.707 251.087 384.904Z" fill="url(#paint4_linear_0_1)"/>
<path d="M250.895 385.187C238.548 381.588 225.468 382.291 213.512 387.195C210.921 388.202 208.492 389.644 206.316 391.469C204.249 393.321 202.678 395.738 201.766 398.469C200.869 400.997 200.221 403.695 198.771 405.943C198.014 407.081 197.042 408.034 195.92 408.738C194.798 409.441 193.552 409.881 192.262 410.026C189.057 410.48 185.893 409.66 182.824 408.743C179.417 407.723 175.893 406.607 172.335 407.321C171.904 407.407 171.805 406.678 172.236 406.592C178.426 405.349 184.131 409.358 190.255 409.419C193.112 409.447 195.995 408.544 197.843 406.056C199.458 403.881 200.128 401.099 201.016 398.531C201.87 395.852 203.316 393.441 205.23 391.507C207.313 389.568 209.686 388.027 212.247 386.95C217.977 384.425 224.039 382.892 230.209 382.405C237.248 381.807 244.331 382.517 251.149 384.503C251.571 384.626 251.314 385.309 250.895 385.187Z" fill="white"/>
<path d="M217.275 385.371C216.787 383.089 217.065 380.692 218.058 378.611C219.052 376.529 220.697 374.898 222.7 374.007C223.106 373.829 223.381 374.503 222.975 374.682C221.109 375.507 219.576 377.027 218.655 378.967C217.733 380.908 217.483 383.141 217.949 385.264C218.05 385.725 217.375 385.83 217.275 385.371Z" fill="white"/>
<path d="M202.064 397.122C205.797 399.694 210.289 400.65 214.644 399.797C215.075 399.712 215.174 400.441 214.743 400.526C210.21 401.404 205.538 400.4 201.658 397.714C201.289 397.457 201.697 396.867 202.064 397.122Z" fill="white"/>
<path d="M236.955 382.731C236.974 383.657 237.205 384.563 237.627 385.369C238.049 386.174 238.65 386.853 239.375 387.345C239.747 387.596 239.339 388.186 238.969 387.937C238.17 387.389 237.508 386.638 237.039 385.749C236.571 384.861 236.311 383.861 236.281 382.839C236.271 382.743 236.295 382.646 236.348 382.568C236.402 382.49 236.48 382.438 236.568 382.42C236.658 382.407 236.748 382.432 236.821 382.49C236.893 382.548 236.941 382.635 236.955 382.731Z" fill="white"/>
<path d="M244.759 254.201C245.324 253.594 245.758 252.86 246.032 252.051C246.305 251.242 246.412 250.378 246.344 249.52C246.276 248.662 246.034 247.83 245.637 247.084C245.24 246.337 244.696 245.694 244.045 245.2L252.931 198.654L243.344 201.928L236.194 246.957C235.499 248.197 235.249 249.67 235.49 251.096C235.731 252.523 236.448 253.804 237.504 254.697C238.559 255.589 239.881 256.032 241.218 255.941C242.556 255.85 243.816 255.231 244.759 254.201Z" fill="#FFB6B6"/>
<path d="M265.3 129.783L259.361 124.932C259.361 124.932 254.122 124.53 253.194 134.755C252.266 144.98 246.457 184.225 246.457 184.225L237.369 229.778L249.949 232.766L259.682 183.606L269.426 149.691L265.3 129.783Z" fill="#CFFD99"/>
<path d="M260.776 214.073L232.287 190.1C231.844 189.726 231.555 189.176 231.485 188.572C231.416 187.968 231.57 187.359 231.915 186.877L251.298 159.899C251.644 159.418 252.151 159.106 252.71 159.031C253.268 158.955 253.831 159.122 254.275 159.495L282.764 183.468C283.207 183.843 283.496 184.392 283.566 184.996C283.635 185.6 283.481 186.21 283.136 186.691L263.753 213.67C263.407 214.15 262.9 214.462 262.341 214.538C261.783 214.613 261.22 214.446 260.776 214.073Z" fill="#3F3D56"/>
<path d="M260.619 211.593L234.548 189.654C234.154 189.321 233.897 188.833 233.835 188.297C233.773 187.761 233.91 187.219 234.217 186.792L251.788 162.335C252.095 161.908 252.546 161.631 253.042 161.564C253.537 161.497 254.037 161.645 254.432 161.977L280.503 183.916C280.897 184.248 281.154 184.736 281.216 185.273C281.278 185.809 281.14 186.35 280.834 186.777L263.263 211.235C262.956 211.661 262.505 211.938 262.009 212.006C261.514 212.073 261.014 211.924 260.619 211.593Z" fill="white"/>
<path d="M237.965 189.031C237.867 188.948 237.803 188.826 237.787 188.692C237.772 188.558 237.806 188.423 237.882 188.316L246.747 175.978C246.823 175.871 246.936 175.802 247.06 175.785C247.121 175.777 247.184 175.781 247.243 175.799C247.303 175.817 247.359 175.847 247.408 175.888C247.456 175.929 247.497 175.981 247.528 176.039C247.559 176.097 247.578 176.161 247.586 176.227C247.594 176.294 247.589 176.361 247.573 176.426C247.556 176.49 247.528 176.551 247.49 176.604L238.626 188.942C238.549 189.048 238.437 189.118 238.313 189.134C238.189 189.151 238.064 189.114 237.965 189.031Z" fill="#E4E4E4"/>
<path d="M239.435 190.266C239.336 190.183 239.272 190.061 239.257 189.927C239.241 189.793 239.275 189.658 239.352 189.551L248.216 177.213C248.293 177.106 248.406 177.037 248.53 177.02C248.654 177.003 248.779 177.04 248.877 177.123C248.976 177.206 249.04 177.328 249.055 177.462C249.071 177.597 249.037 177.732 248.96 177.839L240.096 190.177C240.019 190.283 239.906 190.353 239.782 190.369C239.658 190.386 239.533 190.349 239.435 190.266Z" fill="#E4E4E4"/>
<path d="M245.925 184.514C245.827 184.431 245.763 184.309 245.747 184.175C245.732 184.041 245.766 183.905 245.843 183.799L249.685 178.45C249.723 178.397 249.77 178.353 249.824 178.32C249.878 178.287 249.937 178.265 249.999 178.257C250.06 178.249 250.122 178.253 250.182 178.271C250.242 178.289 250.298 178.319 250.347 178.36C250.395 178.401 250.436 178.453 250.467 178.511C250.497 178.569 250.517 178.633 250.525 178.7C250.532 178.766 250.528 178.834 250.511 178.898C250.495 178.963 250.467 179.023 250.429 179.076L246.586 184.424C246.51 184.531 246.397 184.6 246.273 184.617C246.149 184.634 246.024 184.597 245.925 184.514Z" fill="#E4E4E4"/>
<path d="M247.907 195.01C247.808 194.927 247.744 194.805 247.729 194.671C247.713 194.536 247.747 194.401 247.824 194.294L261.818 174.816C261.856 174.763 261.903 174.719 261.957 174.686C262.011 174.653 262.07 174.632 262.131 174.623C262.193 174.615 262.255 174.62 262.315 174.638C262.374 174.655 262.43 174.686 262.479 174.727C262.528 174.768 262.569 174.819 262.599 174.877C262.63 174.935 262.649 174.999 262.657 175.066C262.665 175.132 262.66 175.2 262.644 175.264C262.627 175.329 262.599 175.389 262.562 175.442L248.567 194.92C248.491 195.027 248.378 195.096 248.254 195.113C248.13 195.13 248.005 195.093 247.907 195.01Z" fill="#E4E4E4"/>
<path d="M249.376 196.246C249.278 196.163 249.213 196.041 249.198 195.907C249.182 195.772 249.217 195.637 249.293 195.53L263.287 176.052C263.325 175.999 263.373 175.955 263.426 175.922C263.48 175.889 263.539 175.868 263.601 175.859C263.662 175.851 263.724 175.856 263.784 175.874C263.844 175.891 263.899 175.922 263.948 175.963C263.997 176.004 264.038 176.055 264.069 176.113C264.099 176.171 264.119 176.235 264.127 176.302C264.134 176.368 264.13 176.436 264.113 176.5C264.097 176.565 264.069 176.625 264.031 176.678L250.037 196.156C249.96 196.263 249.847 196.332 249.724 196.349C249.6 196.366 249.475 196.329 249.376 196.246Z" fill="#E4E4E4"/>
<path d="M252.711 199.052C252.613 198.969 252.549 198.847 252.533 198.713C252.518 198.579 252.552 198.444 252.629 198.337L266.623 178.859C266.661 178.806 266.708 178.762 266.762 178.729C266.815 178.695 266.875 178.674 266.936 178.666C266.997 178.658 267.06 178.662 267.119 178.68C267.179 178.698 267.235 178.728 267.283 178.769C267.332 178.81 267.373 178.861 267.404 178.92C267.434 178.978 267.454 179.042 267.462 179.108C267.469 179.175 267.465 179.242 267.449 179.307C267.432 179.371 267.404 179.432 267.366 179.484L253.372 198.963C253.295 199.069 253.183 199.138 253.059 199.155C252.935 199.172 252.81 199.135 252.711 199.052Z" fill="#E4E4E4"/>
<path d="M254.179 200.288C254.081 200.205 254.016 200.083 254.001 199.949C253.985 199.815 254.02 199.68 254.096 199.573L268.09 180.095C268.128 180.042 268.176 179.998 268.229 179.965C268.283 179.931 268.342 179.91 268.404 179.902C268.465 179.893 268.527 179.898 268.587 179.916C268.647 179.934 268.702 179.964 268.751 180.005C268.8 180.046 268.841 180.097 268.872 180.156C268.902 180.214 268.922 180.278 268.93 180.344C268.937 180.411 268.933 180.478 268.916 180.543C268.9 180.607 268.872 180.668 268.834 180.72L254.84 200.199C254.763 200.305 254.65 200.374 254.527 200.391C254.403 200.408 254.278 200.371 254.179 200.288Z" fill="#E4E4E4"/>
<path d="M257.516 203.094C257.417 203.011 257.353 202.889 257.338 202.755C257.322 202.621 257.357 202.486 257.433 202.379L271.427 182.901C271.465 182.848 271.512 182.804 271.566 182.771C271.62 182.738 271.679 182.717 271.741 182.708C271.802 182.7 271.864 182.705 271.924 182.723C271.983 182.74 272.039 182.771 272.088 182.812C272.137 182.853 272.178 182.904 272.208 182.962C272.239 183.02 272.259 183.084 272.266 183.151C272.274 183.217 272.27 183.285 272.253 183.349C272.237 183.414 272.209 183.474 272.171 183.527L258.177 203.005C258.1 203.112 257.987 203.181 257.863 203.198C257.74 203.214 257.615 203.177 257.516 203.094Z" fill="#E4E4E4"/>
<path d="M258.984 204.331C258.885 204.248 258.821 204.126 258.806 203.992C258.79 203.858 258.824 203.723 258.901 203.616L272.895 184.138C272.972 184.032 273.084 183.963 273.208 183.946C273.332 183.93 273.457 183.967 273.555 184.05C273.653 184.132 273.718 184.254 273.733 184.388C273.749 184.522 273.715 184.657 273.639 184.764L259.645 204.242C259.568 204.348 259.455 204.418 259.331 204.434C259.207 204.451 259.082 204.414 258.984 204.331Z" fill="#E4E4E4"/>
<path d="M235.596 226.952C235.703 226.952 235.789 226.858 235.789 226.743C235.789 226.627 235.703 226.533 235.596 226.533C235.489 226.533 235.402 226.627 235.402 226.743C235.402 226.858 235.489 226.952 235.596 226.952Z" fill="white"/>
<path d="M263.773 82.745C263.093 86.7 261.978 90.5526 260.451 94.2206C251.709 114.236 276.605 107.712 285.502 107.712C295.229 107.712 304.536 113.248 303.115 88.6497C302.508 78.1426 295.229 69.5877 285.502 69.5877C277.193 69.5877 265.51 73.5846 263.773 82.745Z" fill="#2F2E41"/>
<path d="M294.569 376.294H286.281L282.337 341.697H294.569V376.294Z" fill="#FFB6B6"/>
<path d="M298.944 391.835H293.001L291.94 385.762L289.223 391.835H273.459C272.704 391.836 271.968 391.574 271.359 391.09C270.751 390.605 270.301 389.922 270.076 389.142C269.851 388.361 269.863 387.523 270.109 386.75C270.356 385.977 270.824 385.309 271.446 384.845L284.034 375.435V369.296L297.275 370.151L298.944 391.835Z" fill="#2F2E41"/>
<path d="M343.808 364.974L337.157 370.327L314.917 345.112L324.733 337.212L343.808 364.974Z" fill="#FFB6B6"/>
<path d="M355.886 374.621L351.116 378.459L346.917 374.271L348.085 380.899L335.435 391.079C334.829 391.567 334.094 391.833 333.339 391.837C332.583 391.841 331.846 391.584 331.235 391.102C330.624 390.621 330.171 389.941 329.943 389.162C329.714 388.382 329.722 387.544 329.965 386.77L334.878 371.09L331.493 366.163L342.59 358.298L355.886 374.621Z" fill="#2F2E41"/>
<path d="M267.426 217.067L306.768 210.436L298.944 184.963H267.426V217.067Z" fill="#FFB6B6"/>
<path d="M304.218 197.793C304.218 197.793 319.943 212.496 312.687 254.411L303.83 295.481L327.962 340.825L315.692 348.068L285.952 303.335L272.344 268.788L265.146 208.241L304.218 197.793Z" fill="#2F2E41"/>
<path d="M279.845 278.633L278.899 294.485L281.668 341.428L295.414 346.55L298.017 298.452L279.845 278.633Z" fill="#2F2E41"/>
<path d="M275.619 112.988L290.826 113.63L296.887 124.518L310.715 127.44L302.46 172.637L303.978 198.363L290.209 198.272C280.286 198.206 270.69 202.108 263.261 209.228L263.673 175.835L257.751 150.906L259.082 124.767L270.206 123.263L275.619 112.988Z" fill="#CFFD99"/>
<path d="M284.045 107.707C291.95 107.707 298.358 100.771 298.358 92.2164C298.358 83.6615 291.95 76.7264 284.045 76.7264C276.14 76.7264 269.732 83.6615 269.732 92.2164C269.732 100.771 276.14 107.707 284.045 107.707Z" fill="#FFB6B6"/>
<path d="M274.325 76.4269C276.833 74.7721 279.706 73.877 282.643 73.8351C285.58 73.7932 288.474 74.6061 291.021 76.1887C293.569 77.7713 295.677 80.0656 297.124 82.8316C298.572 85.5976 299.307 88.7338 299.251 91.9122C291.958 93.8939 284.296 95.4104 276.519 92.3862L274.682 87.5212L273.599 92.3898C271.231 93.4375 268.856 94.324 266.481 92.3797C266.384 89.2102 267.058 86.0688 268.434 83.2693C269.811 80.4698 271.842 78.1104 274.325 76.4269Z" fill="#2F2E41"/>
<path d="M308.068 229.591L309.997 248.542C310.132 249.014 310.403 249.428 310.77 249.722C311.138 250.016 311.583 250.175 312.04 250.175H320.934C321.391 250.175 321.836 250.016 322.204 249.722C322.571 249.428 322.842 249.014 322.977 248.542L324.575 234.017C325.036 234.262 325.544 234.385 326.058 234.375C326.572 234.366 327.076 234.225 327.529 233.964C327.983 233.702 328.373 233.328 328.666 232.872C328.96 232.416 329.15 231.891 329.219 231.34C329.289 230.789 329.237 230.228 329.068 229.704C328.898 229.179 328.616 228.705 328.244 228.321C327.872 227.937 327.422 227.655 326.929 227.496C326.437 227.338 325.917 227.308 325.412 227.409C325.212 227.154 324.964 226.95 324.684 226.809C324.404 226.669 324.099 226.597 323.79 226.598H310.111C309.776 226.598 309.447 226.683 309.148 226.846C308.849 227.009 308.59 227.246 308.392 227.537C308.193 227.828 308.06 228.166 308.004 228.522C307.948 228.879 307.97 229.245 308.068 229.591ZM324.854 233.035L325.833 229.591C325.946 229.194 325.957 228.771 325.865 228.367C325.907 228.365 325.947 228.354 325.989 228.354C326.603 228.354 327.193 228.618 327.628 229.088C328.062 229.559 328.306 230.197 328.306 230.862C328.306 231.527 328.062 232.165 327.628 232.635C327.193 233.106 326.603 233.37 325.989 233.37C325.59 233.367 325.199 233.252 324.854 233.035Z" fill="#6C63FF"/>
<path d="M321.48 250.189C320.918 249.578 320.487 248.842 320.218 248.032C319.948 247.221 319.845 246.357 319.917 245.499C319.989 244.641 320.235 243.811 320.635 243.067C321.036 242.323 321.583 241.683 322.237 241.192L313.569 194.598L323.141 197.924L330.079 242.992C330.768 244.236 331.011 245.71 330.763 247.135C330.515 248.56 329.793 249.837 328.733 250.724C327.673 251.611 326.349 252.047 325.012 251.948C323.675 251.85 322.418 251.224 321.48 250.189Z" fill="#FFB6B6"/>
<path d="M304.778 132.292L310.716 127.44C310.716 127.44 315.956 127.039 316.883 137.264C317.811 147.489 323.621 186.733 323.621 186.733L332.709 232.286L320.129 235.275L310.395 186.115L300.652 152.199L304.778 132.292Z" fill="#CFFD99"/>
<path d="M253.519 174.706C255.376 174.706 256.881 173.077 256.881 171.068C256.881 169.058 255.376 167.429 253.519 167.429C251.663 167.429 250.157 169.058 250.157 171.068C250.157 173.077 251.663 174.706 253.519 174.706Z" fill="#6C63FF"/>
<path d="M146.318 418.503L153.324 418.502L156.657 389.256L146.316 389.256L146.318 418.503Z" fill="#FFB6B6"/>
<path d="M144.53 416.026L146.502 416.026L154.201 412.637L158.327 416.026C160.659 416.026 162.896 417.028 164.545 418.813C166.194 420.597 167.121 423.018 167.121 425.542V425.851L144.53 425.852L144.53 416.026Z" fill="#2F2E41"/>
<path d="M173.466 413.722L180.3 415.393L189.504 387.659L179.417 385.194L173.466 413.722Z" fill="#FFB6B6"/>
<path d="M172.227 410.883L174.151 411.353L182.351 409.884L185.686 414.172L185.687 414.172C187.961 414.728 189.939 416.24 191.184 418.373C192.429 420.507 192.84 423.089 192.327 425.551L192.264 425.852L170.228 420.468L172.227 410.883Z" fill="#2F2E41"/>
<path d="M133.489 268.062L139.825 344.882C139.825 344.882 137.451 391.002 145.111 407.231H156.22L161.72 340.67L162.411 295.995L186.227 333.686L171.058 406.143L184.73 407.465L209.346 328.833L182.302 255.016L133.489 268.062Z" fill="#2F2E41"/>
<path d="M140.125 145.727C149.149 145.727 156.464 137.81 156.464 128.044C156.464 118.278 149.149 110.361 140.125 110.361C131.101 110.361 123.786 118.278 123.786 128.044C123.786 137.81 131.101 145.727 140.125 145.727Z" fill="#FFB8B8"/>
<path d="M168.849 162.578L155.444 156.354L148.919 148.863L132.618 151.708L128.293 159.734L114.293 173.823L130.696 254.093L130.2 271.625C130.2 271.625 140.698 276.74 186.229 264.963C186.775 264.821 185.632 264.203 185.632 264.203L168.849 162.578Z" fill="#D06D6A"/>
<path d="M123.136 138.077C123.022 137.909 122.909 137.74 122.797 137.569C122.753 137.671 122.717 137.778 122.666 137.878L123.136 138.077Z" fill="#2F2E41"/>
<path d="M156.379 115.11C155.286 112.535 153.339 110.499 150.924 109.407C148.53 108.362 145.854 108.364 143.461 109.414C141.301 107.937 138.901 106.766 136.374 106.621C133.846 106.476 131.174 107.491 129.616 109.725C129.269 110.315 128.874 110.87 128.436 111.385C127.184 112.64 125.281 112.459 123.617 112.202C124.363 112.894 125.11 113.587 125.857 114.279C124.953 114.535 124.05 114.79 123.146 115.045C124.2 115.738 125.255 116.43 126.309 117.122C123.248 119.11 121.857 123.45 122.224 127.392C122.572 131.124 124.237 134.536 126.227 137.569C127.021 135.756 126.85 133.587 126.836 131.545C126.823 129.387 127.175 126.937 128.773 125.731C129.851 124.918 131.236 124.882 132.536 124.889C139.091 124.928 145.638 125.371 152.146 126.214C153.03 126.256 153.891 126.526 154.657 127.002C156.096 128.065 156.377 130.258 156.521 132.182C157.282 129.005 157.654 125.734 157.628 122.453C157.692 119.938 157.267 117.436 156.379 115.11Z" fill="#2F2E41"/>
<path d="M161.466 321.913C175.668 321.913 187.182 309.453 187.182 294.082C187.182 278.711 175.668 266.25 161.466 266.25C147.263 266.25 135.75 278.711 135.75 294.082C135.75 309.453 147.263 321.913 161.466 321.913Z" fill="white"/>
<path d="M161.465 265.633C160.143 265.633 158.823 265.741 157.516 265.955C156.847 266.06 156.196 266.196 155.55 266.363C150.806 267.546 146.459 270.133 142.994 273.835C139.529 277.536 137.083 282.207 135.927 287.325C134.772 292.444 134.954 297.809 136.452 302.823C137.95 307.836 140.706 312.3 144.412 315.717C144.852 316.119 145.298 316.509 145.761 316.88C149.097 319.572 152.976 321.368 157.079 322.121C161.182 322.873 165.392 322.56 169.361 321.208C173.331 319.856 176.947 317.503 179.912 314.343C182.877 311.182 185.106 307.305 186.416 303.03C187.726 298.756 188.079 294.205 187.447 289.754C186.814 285.302 185.214 281.077 182.778 277.425C180.342 273.774 177.139 270.801 173.434 268.751C169.728 266.701 165.626 265.632 161.465 265.633ZM161.465 321.296C156.118 321.302 150.911 319.453 146.607 316.02C146.138 315.649 145.687 315.266 145.247 314.858C141.636 311.561 138.957 307.23 137.517 302.361C136.076 297.493 135.933 292.283 137.104 287.33C138.274 282.377 140.711 277.882 144.134 274.359C147.558 270.837 151.829 268.43 156.459 267.414C157.099 267.272 157.739 267.161 158.39 267.074C159.41 266.937 160.437 266.869 161.465 266.87C168.134 266.87 174.529 269.737 179.245 274.84C183.96 279.944 186.609 286.866 186.609 294.083C186.609 301.3 183.96 308.222 179.245 313.325C174.529 318.429 168.134 321.296 161.465 321.296Z" fill="#3F3D56"/>
<path d="M148.852 288.516H174.079C175.003 288.516 175.752 287.706 175.752 286.705V286.617C175.752 285.616 175.003 284.806 174.079 284.806H148.852C147.928 284.806 147.179 285.616 147.179 286.617V286.705C147.179 287.706 147.928 288.516 148.852 288.516Z" fill="#6C63FF"/>
<path d="M148.852 295.938H174.079C175.003 295.938 175.752 295.127 175.752 294.127V294.038C175.752 293.038 175.003 292.227 174.079 292.227H148.852C147.928 292.227 147.179 293.038 147.179 294.038V294.127C147.179 295.127 147.928 295.938 148.852 295.938Z" fill="#6C63FF"/>
<path d="M148.852 303.36H174.079C175.003 303.36 175.752 302.549 175.752 301.549V301.46C175.752 300.46 175.003 299.649 174.079 299.649H148.852C147.928 299.649 147.179 300.46 147.179 301.46V301.549C147.179 302.549 147.928 303.36 148.852 303.36Z" fill="#6C63FF"/>
<path d="M449.17 417.557L441.824 417.557L438.329 386.89L449.172 386.891L449.17 417.557Z" fill="#9E616A"/>
<path d="M414.416 417.557L407.07 417.557L403.575 386.89L414.418 386.891L414.416 417.557Z" fill="#9E616A"/>
<path d="M414.676 425.852L392.086 425.851V425.542C392.086 423.018 393.012 420.597 394.661 418.813C396.31 417.028 398.547 416.026 400.879 416.026H400.879L405.006 412.637L412.705 416.026L414.677 416.026L414.676 425.852Z" fill="#2F2E41"/>
<path d="M450.373 425.852L427.782 425.851V425.542C427.782 423.018 428.709 420.597 430.358 418.813C432.007 417.028 434.243 416.026 436.575 416.026H436.576L440.702 412.637L448.401 416.026L450.373 416.026L450.373 425.852Z" fill="#2F2E41"/>
<path d="M407.209 236.062L396.045 309.638L399.083 320.602L395.096 328.367L400.951 396.561L398.574 402.224L405.215 406.657H418.727L419.445 344.92L422.782 335.855V330.86L429.577 293.214L430.828 345.935L432.805 355.013L431.145 361.477L433.314 366.006L439.076 408.002H454.228L453.056 398.232C454.376 397.508 455.437 396.331 456.071 394.885C456.705 393.438 456.877 391.805 456.56 390.241L455.691 385.958L457.668 373.296L461.269 302.655L460.253 245.656L442.528 230.987L407.209 236.062Z" fill="#2F2E41"/>
<path d="M432.806 141.582C440.581 141.582 446.884 134.761 446.884 126.347C446.884 117.933 440.581 111.112 432.806 111.112C425.031 111.112 418.729 117.933 418.729 126.347C418.729 134.761 425.031 141.582 432.806 141.582Z" fill="#9E616A"/>
<path d="M402.049 265.259C402.662 264.574 403.128 263.752 403.416 262.851C403.703 261.949 403.804 260.991 403.712 260.043C403.62 259.095 403.337 258.18 402.883 257.363C402.429 256.546 401.815 255.846 401.084 255.314L406.559 232.91L396.012 236.749L392.43 257.436C391.685 258.824 391.437 260.459 391.731 262.032C392.026 263.606 392.844 265.007 394.029 265.971C395.215 266.936 396.686 267.396 398.164 267.264C399.642 267.133 401.025 266.42 402.049 265.259Z" fill="#9E616A"/>
<path d="M407.81 157.692L405.546 157.183L403.615 158.34C403.615 158.34 398.222 166.122 398.222 173.256C398.222 180.39 391.631 249.132 391.631 249.132L403.615 254.968L413.203 201.142L407.81 157.692Z" fill="#6946B3"/>
<path d="M445.134 115.176C445.134 115.176 448.816 107.558 440.716 106.866C440.716 106.866 433.81 100.086 426.772 105.626C426.772 105.626 422.932 105.626 420.833 110.328C420.833 110.328 417.813 109.089 417.15 112.406C417.15 112.406 414.94 119.331 417.15 125.564C419.359 131.796 420.093 132.489 420.093 132.489C420.093 132.489 416.462 119.422 425.3 118.729C434.137 118.037 444.027 112.059 444.763 119.677C445.5 127.295 446.608 129.172 446.608 129.172C446.608 129.172 453.603 118.292 445.134 115.176Z" fill="#2F2E41"/>
<path d="M496.557 328.366C495.495 328.368 494.469 327.944 493.678 327.177L451.075 286.134C450.216 285.305 449.697 284.141 449.63 282.898C449.563 281.655 449.955 280.434 450.719 279.503L478.01 246.322C478.776 245.393 479.852 244.83 481 244.758C482.149 244.686 483.277 245.109 484.137 245.936L526.741 286.98C527.6 287.808 528.121 288.972 528.187 290.215C528.254 291.459 527.862 292.68 527.097 293.61L499.805 326.791C499.427 327.254 498.968 327.63 498.455 327.899C497.942 328.168 497.384 328.324 496.815 328.358C496.729 328.364 496.643 328.366 496.557 328.366Z" fill="white"/>
<path d="M496.557 328.667C495.426 328.669 494.335 328.219 493.492 327.402L450.889 286.359C449.976 285.477 449.423 284.238 449.352 282.915C449.281 281.592 449.697 280.293 450.51 279.302L477.802 246.121C478.617 245.132 479.762 244.533 480.984 244.457C482.207 244.38 483.407 244.83 484.323 245.71L526.926 286.754C527.841 287.635 528.395 288.874 528.466 290.197C528.537 291.521 528.119 292.82 527.305 293.811L500.013 326.992C499.611 327.484 499.122 327.884 498.576 328.171C498.03 328.457 497.437 328.623 496.831 328.659C496.739 328.665 496.648 328.667 496.557 328.667ZM481.254 245.655C480.759 245.653 480.27 245.766 479.819 245.985C479.367 246.203 478.964 246.523 478.635 246.923L451.344 280.105C450.727 280.856 450.411 281.842 450.465 282.845C450.519 283.849 450.938 284.788 451.631 285.457L494.234 326.5C494.578 326.832 494.978 327.086 495.413 327.25C495.847 327.413 496.307 327.483 496.766 327.454C497.226 327.425 497.675 327.298 498.089 327.081C498.503 326.864 498.874 326.561 499.18 326.189L526.472 293.008C527.089 292.257 527.406 291.271 527.352 290.267C527.298 289.264 526.878 288.324 526.184 287.656L483.581 246.612C482.941 245.994 482.112 245.653 481.254 245.655Z" fill="#3F3D56"/>
<path d="M512.007 296.942C511.547 296.943 511.103 296.76 510.76 296.429L477.318 264.211C477.133 264.034 476.982 263.819 476.874 263.579C476.765 263.338 476.702 263.077 476.687 262.81C476.673 262.543 476.707 262.275 476.788 262.023C476.869 261.77 476.995 261.537 477.159 261.337C477.324 261.138 477.523 260.975 477.745 260.859C477.968 260.742 478.209 260.675 478.456 260.66C478.703 260.645 478.95 260.682 479.183 260.771C479.416 260.859 479.631 260.997 479.815 261.175L513.257 293.393C513.541 293.667 513.742 294.028 513.833 294.428C513.923 294.828 513.899 295.249 513.763 295.634C513.628 296.019 513.387 296.35 513.073 296.584C512.76 296.818 512.388 296.943 512.007 296.942Z" fill="#6C63FF"/>
<path d="M505.627 304.697C505.167 304.698 504.723 304.515 504.38 304.184L470.938 271.966C470.754 271.789 470.604 271.574 470.496 271.334C470.389 271.094 470.326 270.833 470.312 270.566C470.298 270.3 470.332 270.033 470.413 269.781C470.494 269.529 470.62 269.297 470.784 269.097C470.948 268.898 471.147 268.736 471.369 268.619C471.591 268.503 471.832 268.435 472.078 268.42C472.324 268.405 472.571 268.442 472.803 268.529C473.036 268.617 473.251 268.754 473.435 268.931L506.877 301.149C507.162 301.422 507.362 301.783 507.453 302.184C507.543 302.584 507.519 303.005 507.383 303.39C507.248 303.775 507.007 304.106 506.694 304.34C506.38 304.573 506.008 304.698 505.627 304.697Z" fill="#6C63FF"/>
<path d="M499.249 312.453C498.789 312.454 498.344 312.27 498.001 311.939L464.559 279.722C464.375 279.544 464.224 279.329 464.117 279.089C464.009 278.849 463.946 278.588 463.932 278.321C463.917 278.054 463.952 277.787 464.033 277.535C464.114 277.283 464.24 277.05 464.404 276.851C464.568 276.651 464.767 276.489 464.989 276.373C465.211 276.256 465.452 276.189 465.699 276.173C465.945 276.158 466.192 276.195 466.425 276.283C466.658 276.371 466.872 276.508 467.057 276.686L500.498 308.903C500.783 309.177 500.984 309.538 501.074 309.938C501.165 310.339 501.14 310.759 501.005 311.144C500.869 311.529 500.629 311.861 500.315 312.094C500.002 312.328 499.63 312.453 499.249 312.453Z" fill="#6C63FF"/>
<path d="M461.006 266.581C460.577 265.749 460.322 264.824 460.258 263.873C460.195 262.922 460.325 261.968 460.639 261.077C460.954 260.187 461.445 259.382 462.077 258.719C462.71 258.055 463.47 257.551 464.303 257.24L464.339 234.065L473.618 240.712L472.161 261.7C472.551 263.248 472.403 264.898 471.744 266.336C471.085 267.774 469.962 268.901 468.587 269.503C467.212 270.104 465.681 270.139 464.284 269.601C462.886 269.062 461.72 267.988 461.006 266.581Z" fill="#9E616A"/>
<path d="M461.863 164.042L466.009 159.718L469.054 162.096C469.054 162.096 472.05 165.987 474.447 177.661C476.844 189.334 474.447 253.537 474.447 253.537L461.264 251.591L463.062 217.868L457.669 189.334L461.863 164.042Z" fill="#6946B3"/>
<path d="M467.984 160.772L454.018 153.552L444.536 144.034L427.245 143.894L421.667 151.741L406.942 157.154L409.396 212.106L407.723 216.332C407.723 216.332 408.889 217.471 409.421 218.109C409.954 218.746 408.685 224.083 408.685 224.083L407.97 229.889L409.954 231.423L407.375 234.72L406.734 239.917C406.734 239.917 451.755 227.807 460.262 247.869C460.711 248.929 459.604 238.57 459.604 238.57L458.497 230.986L459.595 224.179L461.269 222.368L458.462 219.331L460.262 204.919L467.984 160.772Z" fill="#6946B3"/>
<path d="M151.262 282.596C151.609 281.644 151.758 280.62 151.7 279.599C151.642 278.577 151.377 277.582 150.925 276.682C150.473 275.783 149.844 275.003 149.083 274.395C148.321 273.787 147.446 273.368 146.519 273.166L143.417 248.51L134.421 257.02L138.747 279.129C138.536 280.837 138.912 282.57 139.803 283.998C140.695 285.426 142.039 286.451 143.581 286.879C145.124 287.306 146.758 287.106 148.174 286.317C149.589 285.528 150.688 284.204 151.262 282.596Z" fill="#FFB8B8"/>
<path d="M116.019 173.372L113.581 173.877L112.107 175.885C112.107 175.885 109.723 186.006 112.439 193.079C115.155 200.152 134.792 271.25 134.792 271.25L148.897 271.693L137.909 214.048L116.019 173.372Z" fill="#D06D6A"/>
<path d="M171.624 278.98C170.974 278.236 170.483 277.347 170.185 276.375C169.887 275.404 169.79 274.373 169.9 273.356C170.009 272.34 170.324 271.361 170.821 270.49C171.318 269.619 171.985 268.877 172.776 268.315L167.161 244.186L178.439 248.453L182.043 270.712C182.826 272.212 183.074 273.972 182.74 275.657C182.405 277.342 181.511 278.835 180.226 279.854C178.942 280.873 177.357 281.347 175.772 281.186C174.186 281.025 172.71 280.24 171.624 278.98Z" fill="#FFB8B8"/>
<path d="M166.697 163.41L169.133 162.895L171.192 164.164C171.192 164.164 176.892 172.593 176.808 180.252C176.725 187.911 182.998 261.806 182.998 261.806L170.063 267.909L160.398 209.987L166.697 163.41Z" fill="#D06D6A"/>
</g>
<defs>
<linearGradient id="paint0_linear_0_1" x1="650.627" y1="423.69" x2="-269.824" y2="284.688" gradientUnits="userSpaceOnUse">
<stop stop-color="#A2FF84"/>
<stop offset="1" stop-color="#7C43BD"/>
</linearGradient>
<linearGradient id="paint1_linear_0_1" x1="434.591" y1="393.079" x2="499.835" y2="387.271" gradientUnits="userSpaceOnUse">
<stop offset="0.00399617" stop-color="#4FA98E"/>
<stop offset="1" stop-color="#90C552"/>
</linearGradient>
<linearGradient id="paint2_linear_0_1" x1="433.608" y1="405.052" x2="513.417" y2="390.678" gradientUnits="userSpaceOnUse">
<stop offset="0.00399617" stop-color="#4FA98E"/>
<stop offset="1" stop-color="#90C552"/>
</linearGradient>
<linearGradient id="paint3_linear_0_1" x1="171.469" y1="408.506" x2="227.789" y2="405.134" gradientUnits="userSpaceOnUse">
<stop offset="0.00399617" stop-color="#4FA98E"/>
<stop offset="1" stop-color="#90C552"/>
</linearGradient>
<linearGradient id="paint4_linear_0_1" x1="170.327" y1="420.018" x2="256.616" y2="407.472" gradientUnits="userSpaceOnUse">
<stop offset="0.00399617" stop-color="#4FA98E"/>
<stop offset="1" stop-color="#90C552"/>
</linearGradient>
<clipPath id="clip0_0_1">
<rect width="1280" height="5406" fill="white" transform="translate(-648 -2360)"/>
</clipPath>
</defs>
</svg>
