<svg width="232" height="111" viewBox="0 0 232 111" fill="none" xmlns="http://www.w3.org/2000/svg">
<g id="undraw_engineering_team_a7n2 1" clip-path="url(#clip0_77_3158)">
<path id="Vector" d="M221.026 61.3668L220.304 66.7836L218.513 80.2378H182.521C182.802 77.2223 183.186 72.8818 183.596 68.1962C183.637 67.7283 183.679 67.2574 183.72 66.7836C184.749 55.0052 185.875 41.6768 185.875 41.6768L190.607 42.5074L199.788 44.1161L203.529 44.7713L213.546 46.5291C218.541 47.4036 221.977 54.2185 221.026 61.3668Z" fill="#F2F2F2"/>
<path id="Vector_2" d="M193.801 19.8813L198.227 27.1801L189.72 32.8614L186.091 23.8898L193.801 19.8813Z" fill="#FFB6B6"/>
<path id="Vector_3" d="M188.166 26.7865C194.222 26.7865 199.131 22.1604 199.131 16.4538C199.131 10.7472 194.222 6.12109 188.166 6.12109C182.11 6.12109 177.201 10.7472 177.201 16.4538C177.201 22.1604 182.11 26.7865 188.166 26.7865Z" fill="#FFB6B6"/>
<path id="Vector_4" d="M187.379 18.763C186.509 17.5143 186.85 16.8612 186.121 16.4023C186.121 16.4023 185.828 16.2177 183.729 16.1124C183.259 12.9247 182.672 12.5382 182.672 12.5382C181.996 12.0926 180.992 12.2374 180.368 12.5099C179.048 13.0862 179.201 14.3311 178.312 14.5693C177.084 14.8984 174.849 13.0432 174.629 10.9194C174.45 9.18699 175.634 7.50438 176.104 7.59339C176.57 7.68164 177.685 6.34001 178.287 6.3607C178.698 6.37483 180.378 5.68666 180.83 5.74046C181.324 5.79923 182.952 6.59958 183.019 6.41672C183.491 5.14605 183.352 4.79349 183.752 4.42998C184.461 3.78584 185.62 4.2344 187.438 4.47522C191.18 4.9707 191.833 3.80807 193.751 4.59611C194.72 4.99418 195.53 6.06775 197.112 8.19862C199.323 11.1786 200.429 12.6686 200.436 14.4065C200.443 16.1788 199.533 16.0663 199.133 18.6901C198.687 21.6108 199.634 22.9463 198.6 23.8952C197.801 24.6285 196.177 24.8026 195.324 24.159C193.863 23.057 195.775 20.398 194.158 18.4553C193.166 17.2628 191.171 16.7322 190.257 17.3217C189.223 17.9882 189.792 19.9445 189.066 20.13C188.443 20.2889 187.531 18.9806 187.379 18.763Z" fill="#2F2E41"/>
<path id="Vector_5" d="M212.921 59.4599C212.615 64.3877 211.401 65.9434 210.975 71.7632C210.882 73.0409 210.826 74.524 210.826 76.2927C210.826 76.7436 210.829 77.1796 210.829 77.6055C210.829 78.5123 210.81 79.3692 210.699 80.2385C210.614 80.9324 210.468 81.6314 210.226 82.3679H186.61C186.607 82.3629 186.607 82.3579 186.604 82.3529C186.466 81.7868 186.378 81.2456 186.312 80.727C186.29 80.5617 186.272 80.3988 186.256 80.2385C186.235 80.0506 186.216 79.8652 186.197 79.6824C186.126 78.9533 186.054 78.2644 185.884 77.6055C185.655 76.696 185.24 75.8392 184.389 75.0125C184.041 74.6743 183.693 74.4113 183.353 74.1808C183.286 74.1381 183.222 74.0956 183.156 74.053C182.215 73.4442 181.324 73.0058 180.553 71.7632C180.54 71.7457 180.529 71.7256 180.519 71.7081C180.386 71.4901 180.04 70.9188 179.79 70.1574C179.527 69.3657 179.368 68.371 179.655 67.354C180.338 64.9439 182.869 64.7034 184.937 62.2682C185.161 62.0052 185.381 61.7146 185.591 61.3914C186.527 59.9583 186.78 58.6958 187.077 57.1951C187.125 56.952 187.168 56.7115 187.202 56.4786C187.229 56.3032 187.253 56.1304 187.272 55.9599C187.436 54.5295 187.356 53.2969 187.163 52.1946C186.53 48.5845 184.663 46.3498 185.982 43.1105C186.397 42.0934 186.984 41.3293 187.577 40.6754C188.832 39.2899 190.121 38.3906 189.898 36.6019C189.672 34.7981 188.22 34.55 188.058 32.9742C187.976 32.1776 188.252 31.3383 188.771 30.5141V30.5116C190.43 27.8585 194.572 25.4158 197.204 25.4935C197.69 25.5061 198.121 25.6087 198.48 25.8067C199.78 26.5281 199.238 28.104 201.229 30.3137C202.71 31.9546 204.384 32.611 205.02 32.9216C207.538 34.1593 209.585 37.8094 210.975 42.4767C210.986 42.5118 210.996 42.5468 211.007 42.5844C211.866 45.5081 212.472 48.8275 212.772 52.1946C212.9 53.6201 212.974 55.0531 212.99 56.471C213.004 57.6034 212.977 58.5856 212.921 59.4599Z" fill="#A282E7"/>
<g id="Group">
<path id="Vector_6" d="M195.235 76.3427L194.754 77.6054L194.451 78.397L193.749 80.2384L192.935 82.3678H187.706L188.583 80.2384L188.99 79.2463L189.665 77.6054L190.798 74.8496L195.235 76.3427Z" fill="#FFB6B6"/>
<path id="Vector_7" d="M211.057 42.0458C211.044 42.2087 211.025 42.389 211.006 42.5845C210.799 44.5737 210.31 48.1336 209.595 52.1946C209.217 54.3366 208.776 56.619 208.279 58.8862C207.21 63.7789 205.881 68.5966 204.378 71.7632C204.11 72.3345 203.833 72.8506 203.552 73.3065C203.336 73.6547 203.11 73.9979 202.874 74.3361C202.108 75.446 201.249 76.4982 200.359 77.4803C200.324 77.5229 200.284 77.563 200.244 77.6055C200.101 77.7658 199.952 77.9237 199.803 78.0815C199.075 78.8556 198.33 79.5771 197.61 80.2385C196.732 81.0453 195.887 81.7593 195.129 82.368H186.638L186.603 82.3529L185.38 81.8419C185.38 81.8419 185.729 81.456 186.311 80.7271C186.431 80.5792 186.558 80.4164 186.696 80.2385C186.866 80.0205 187.05 79.78 187.247 79.5195C187.656 78.9734 188.121 78.332 188.621 77.6055C189.589 76.2 190.692 74.4714 191.806 72.4698C191.934 72.2367 192.064 72.0012 192.194 71.7632C192.197 71.7557 192.202 71.7481 192.205 71.7407C192.426 71.3348 192.644 70.9164 192.861 70.4905C194.709 66.8679 195.238 63.8616 195.39 62.8871C195.603 61.5092 195.898 59.5826 195.818 57.4631C195.765 56.0653 195.549 54.5871 195.036 53.1191V53.1166C194.93 52.8085 194.81 52.5003 194.675 52.1946C194.433 51.646 194.146 51.1048 193.805 50.5712C192.303 48.2213 191.083 48.1236 190.113 45.5632C189.825 44.8041 189.174 43.0906 189.373 41.2817V41.2793C189.398 41.0563 189.437 40.8308 189.49 40.6052V40.6028C189.504 40.5402 189.522 40.4751 189.541 40.4124C189.692 39.8588 189.943 39.31 190.323 38.7889C191.064 37.7769 192.077 37.1755 192.984 36.8174L192.987 36.8148C194.034 36.404 194.938 36.3163 195.113 36.3013C198.997 35.9756 202.01 39.052 203.655 40.7331C204.291 41.3819 204.873 41.9256 205.405 42.3689C209.544 45.8514 210.679 43.6266 210.974 42.4767C211.019 42.2989 211.044 42.1461 211.057 42.0458Z" fill="#A282E7"/>
<path id="Vector_8" d="M211.071 41.916C211.071 41.9285 211.068 41.9711 211.057 42.0413C211.062 42.0036 211.065 41.966 211.068 41.9309C211.068 41.9235 211.068 41.9185 211.071 41.916Z" fill="#A282E7"/>
</g>
<path id="Vector_9" d="M189.957 94.7783H47.4444C46.1203 94.7783 45.041 95.7929 45.041 97.0406C45.041 98.2907 46.1203 99.3053 47.4444 99.3053H189.957C191.28 99.3053 192.357 98.2907 192.357 97.0406C192.357 95.7929 191.28 94.7783 189.957 94.7783Z" fill="#F9F9F9"/>
<path id="Vector_10" d="M158.331 106.473H79.0686C77.7446 106.473 76.668 107.488 76.668 108.735C76.668 109.983 77.7446 111 79.0686 111H158.331C159.655 111 160.734 109.983 160.734 108.735C160.734 107.488 159.655 106.473 158.331 106.473Z" fill="#F9F9F9"/>
<path id="Vector_11" d="M63.3027 20.3612L72.2843 16.7993L76.1367 24.2413L66.6984 27.8715L63.3027 20.3612Z" fill="#FFB6B6"/>
<path id="Vector_12" opacity="0.1" d="M63.3027 20.3612L72.2843 16.7993L76.1367 24.2413L66.6984 27.8715L63.3027 20.3612Z" fill="black"/>
<path id="Vector_13" d="M64.5794 17.5254L73.4398 27.1455C73.4398 27.1455 67.276 45.4782 61.1122 47.1118C54.9484 48.7454 43.5839 56.732 43.5839 56.732L29.3301 48.0194L36.2644 38.3992C36.2644 38.3992 53.0222 16.7993 57.4525 16.7993C61.8827 16.7993 64.5794 17.5254 64.5794 17.5254Z" fill="#A282E7"/>
<path id="Vector_14" d="M52.6084 80.2381H31.9827L30.6787 78.5954L25.3547 71.8885L24.1297 70.3457C24.1297 70.3457 19.5068 62.3592 20.4699 55.0987C21.433 47.8382 31.4492 46.2046 31.4492 46.2046H31.8614L44.1235 56.3584L43.3916 65.8079L47.2748 71.8885L52.6084 80.2381Z" fill="#2F2E41"/>
<path id="Vector_15" d="M36.2064 80.2387H30.6782V72.5244L36.2064 80.2387Z" fill="#2F2E41"/>
<path id="Vector_16" d="M155.441 68.527L154.754 71.8886L153.047 80.2382H118.763C119.03 78.3668 119.396 75.6731 119.787 72.7653C119.826 72.4749 119.866 72.1827 119.905 71.8886C120.885 64.5791 121.958 56.3076 121.958 56.3076L126.466 56.8231L135.21 57.8214L138.774 58.228L148.316 59.3189C153.074 59.8616 156.347 64.0909 155.441 68.527Z" fill="#F2F2F2"/>
<path id="Vector_17" d="M203.961 80.2381H185.366C185.649 79.9241 185.809 79.7426 185.809 79.7426L191.383 78.875L202.869 77.0889C202.869 77.0889 203.393 78.3649 203.961 80.2381Z" fill="#2F2E41"/>
<path id="Vector_18" d="M125.084 23.9917L133.171 34.7688L119.064 35.1658L117.55 25.0378L125.084 23.9917Z" fill="#A0616A"/>
<path id="Vector_19" opacity="0.1" d="M125.084 23.9917L133.171 34.7688L119.064 35.1658L117.55 25.0378L125.084 23.9917Z" fill="black"/>
<path id="uuid-ae755ff6-bb09-410e-86b1-7d1b81a37005-155" d="M85.2021 46.3209C84.1645 43.5002 81.779 41.7183 79.8741 42.3408C77.9692 42.9634 77.2667 45.7544 78.3051 48.5759C78.7035 49.7084 79.3839 50.7345 80.2894 51.5684L84.846 63.4675L90.7261 61.3335L85.6097 49.8296C85.7732 48.6461 85.6334 47.443 85.2021 46.3209Z" fill="#A0616A"/>
<path id="Vector_20" d="M139.943 40.8293L139.932 51.8125L138.847 55.8693L136.617 64.2134L134.993 71.8878L133.783 77.6054L133.352 79.6474C133.026 79.8525 132.703 80.0485 132.379 80.2373H104.205C102.604 79.3316 101.708 78.6273 101.708 78.6273C101.708 78.6273 102.152 78.2352 102.658 77.6054C103.513 76.5417 104.548 74.7992 103.914 73.1348C103.781 72.7862 103.746 72.3615 103.787 71.8878C104.045 68.7621 107.524 63.4765 107.524 63.4765L106.803 55.6315L106.487 52.1937L108.715 35.431L115.974 31.4541L117.228 31.3398L129.6 30.71L134.713 30.9877L134.946 31.0476L139.943 40.8293Z" fill="#CFFD99"/>
<g id="Group_2">
<path id="Vector_21" d="M140.492 80.2378H134.328L134.057 77.6058L134.051 77.5532L135.796 77.4407L140.336 77.1484L140.415 78.724L140.477 79.9328L140.492 80.2378Z" fill="#FFB6B6"/>
<path id="Vector_22" d="M142.009 43.4858L144.599 57.8016L142.486 71.8888L142.156 74.0814L141.575 77.9531L141.395 79.1438L141.401 79.2727L141.446 80.2383H134.126L133.856 77.6064L133.833 77.3704L133.282 71.9795L133.273 71.8888L132.104 60.4571L134.396 52.1947L134.565 51.5866V51.5848L135.562 37.4378L134.79 31.0086L134.782 30.9487C134.798 30.9578 134.811 30.9669 134.827 30.976C134.867 30.9996 134.908 31.0232 134.946 31.0486C139.446 33.7386 142.127 38.4579 142.009 43.4858Z" fill="#CFFD99"/>
</g>
<path id="Vector_23" d="M111.337 38.1746L108.523 35.4312C108.523 35.4312 102.497 37.9909 102.197 39.4111C101.897 40.8312 91.2578 61.6892 91.2578 61.6892L86.6293 50.0401L80.6045 53.8306C80.6045 53.8306 85.4388 71.9166 89.9599 72.7656C94.481 73.6147 109.634 51.3592 109.634 51.3592L111.337 38.1746Z" fill="#CFFD99"/>
<path id="Vector_24" d="M225.627 71.7622H6.43367C3.33115 71.7622 0.808105 74.1422 0.808105 77.0658C0.808105 79.9894 3.33114 82.367 6.43367 82.367H225.627C228.729 82.367 231.255 79.9896 231.255 77.0658C231.255 74.1421 228.729 71.7622 225.627 71.7622Z" fill="#F9F9F9"/>
<path id="Vector_25" d="M138.66 55.6021L138.234 74.3421C138.193 76.1562 136.621 77.6065 134.695 77.6065H98.1126C96.2326 77.6065 94.6805 76.2217 94.5779 74.4527L93.4907 55.7128C93.3799 53.8017 94.9944 52.1948 97.0254 52.1948H135.121C137.106 52.1948 138.703 53.7323 138.66 55.6021Z" fill="#3F3D56"/>
<path id="Vector_26" d="M79.604 24.8857C84.4379 24.8857 88.3565 21.193 88.3565 16.6379C88.3565 12.0828 84.4379 8.39014 79.604 8.39014C74.7702 8.39014 70.8516 12.0828 70.8516 16.6379C70.8516 21.193 74.7702 24.8857 79.604 24.8857Z" fill="#FFB6B6"/>
<path id="Vector_27" d="M64.965 38.2172L65.9281 48.0189L72.4771 72.886L66.8192 74.7547L57.2602 47.6559L55.9399 36.7651L64.965 38.2172Z" fill="#FFB6B6"/>
<path id="Vector_28" d="M62.3597 55.6021L61.9335 74.3421C61.8923 76.1562 60.3199 77.6065 58.3943 77.6065H21.8118C19.9318 77.6065 18.3797 76.2217 18.2771 74.4527L17.19 55.7128C17.0791 53.8017 18.6937 52.1948 20.7247 52.1948H58.8205C60.8052 52.1948 62.4022 53.7323 62.3597 55.6021Z" fill="#3F3D56"/>
<path id="Vector_29" d="M73.5197 77.7323C77.3372 77.7323 80.4319 76.4424 80.4319 74.8513C80.4319 73.2601 77.3372 71.9702 73.5197 71.9702C69.7021 71.9702 66.6074 73.2601 66.6074 74.8513C66.6074 76.4424 69.7021 77.7323 73.5197 77.7323Z" fill="#FFB6B6"/>
<path id="Vector_30" d="M51.3857 39.7163L55.3344 19.885C55.3344 19.885 66.3137 18.4329 66.699 21.8816C67.0842 25.3304 66.4237 42.1848 66.4237 42.1848L51.3857 39.7163Z" fill="#A282E7"/>
<path id="Vector_31" d="M76.0715 17.9342C76.0715 17.9342 81.4858 16.1133 83.7696 15.1336C86.0535 14.1538 90.5907 20.9875 90.6917 17.3784C90.7926 13.7693 89.2248 12.2559 89.2248 12.2559C89.2248 12.2559 88.8333 4.36051 80.3922 5.34761C80.3922 5.34761 82.2488 1.39748 76.1542 0.786669C70.0596 0.175854 60.5779 14.0448 61.427 16.1174C62.2762 18.19 63.2941 19.9035 60.885 22.1197C58.4758 24.3358 53.9646 36.8429 57.3969 40.2084C60.8292 43.574 61.0545 45.0345 58.7028 47.1283C56.3511 49.2221 50.7924 53.7748 56.8027 54.5652C62.8129 55.3555 56.2528 54.7652 60.7335 51.0512C65.2142 47.3372 71.7526 47.4889 69.3113 41.5301C66.8699 35.5713 71.1114 27.0323 70.5807 25.7369C70.05 24.4415 71.7697 16.2157 71.7697 16.2157C71.7697 16.2157 75.7722 15.6616 76.0715 17.9342Z" fill="#2F2E41"/>
<g id="Group_3">
<path id="Vector_32" d="M120.76 27.8926C126.022 27.8926 130.287 23.8729 130.287 18.9143C130.287 13.9558 126.022 9.93604 120.76 9.93604C115.498 9.93604 111.232 13.9558 111.232 18.9143C111.232 23.8729 115.498 27.8926 120.76 27.8926Z" fill="#A0616A"/>
<path id="Vector_33" d="M121.521 6.84373C121.245 6.99538 120.876 6.76593 120.787 6.47688C120.699 6.18782 120.802 5.88092 120.904 5.59591L121.418 4.1611C121.783 3.14351 122.17 2.09036 122.959 1.31584C124.151 0.146822 126.045 -0.15057 127.75 0.0648796C129.94 0.341561 132.1 1.45882 133.118 3.30635C134.136 5.15389 133.703 7.73186 131.863 8.88453C134.485 11.7163 135.399 14.8723 135.255 18.6279C135.11 22.3835 130.767 25.8399 127.935 28.4856C127.302 28.1243 126.727 26.431 127.075 25.8159C127.423 25.2008 126.925 24.4882 127.355 23.9216C127.786 23.355 128.146 24.2572 127.711 23.6938C127.436 23.3383 128.509 22.5205 128.1 22.3077C126.124 21.2785 125.467 18.9579 124.226 17.1808C122.73 15.0372 120.168 13.5856 117.457 13.3448C115.964 13.2121 114.386 13.4524 113.162 14.2694C111.938 15.0864 111.146 16.5463 111.43 17.9342C110.695 17.2309 110.329 16.2001 110.467 15.2215C110.605 14.2429 111.244 13.3379 112.148 12.8399C111.598 11.126 112.069 9.15441 113.346 7.82809C114.623 6.50177 119.801 6.72767 121.665 7.07674L121.521 6.84373Z" fill="#2F2E41"/>
<path id="Vector_34" d="M121.81 13.397C124.278 13.6481 126.06 15.663 127.565 17.5238C128.433 18.5963 129.341 19.7807 129.32 21.129C129.298 22.4922 128.33 23.6615 127.868 24.9534C127.113 27.0651 127.849 29.5775 129.647 31.0244C127.87 31.3422 125.949 30.0865 125.642 28.4066C125.285 26.451 126.858 24.5635 126.672 22.5869C126.508 20.8455 125.052 19.5053 123.814 18.2033C122.576 16.9012 121.413 15.1735 121.982 13.5096L121.81 13.397Z" fill="#2F2E41"/>
</g>
<g id="Group_4">
<path id="uuid-aec20554-f6ec-4c5b-9d97-717cd04239bf-156" d="M158.711 72.8973C156.266 74.2077 155.002 76.4588 155.887 77.925C156.772 79.3911 159.472 79.517 161.917 78.2058C162.902 77.6946 163.742 76.9687 164.368 76.0887L174.653 70.4129L171.724 65.9214L161.896 71.9936C160.773 72.0509 159.681 72.3607 158.711 72.8973Z" fill="#FFB6B6"/>
<path id="Vector_35" d="M193.534 31.2754C193.227 31.1606 190.53 30.1982 188.068 31.4688C185.24 32.9285 184.803 36.2605 184.65 37.4292C184.296 40.1288 185.339 40.7339 185.559 43.467C185.971 48.5803 187.056 42.747 185.322 45.081C184.722 45.8889 178.591 58.4085 175.211 60.8608C168.635 65.6301 164.459 68.9889 164.459 68.9889L169.226 73.8685C169.226 73.8685 176.759 71.9772 183.417 67.9034C190.246 63.7247 193.661 61.6353 196.303 57.5479C196.53 57.1959 201.974 48.4849 199.05 38.8526C198.383 36.6555 197.162 32.6299 193.534 31.2754Z" fill="#A282E7"/>
</g>
<path id="Vector_36" d="M218.152 55.6021L217.726 74.3421C217.684 76.1562 216.112 77.6065 214.186 77.6065H177.604C175.724 77.6065 174.172 76.2217 174.069 74.4527L172.982 55.7128C172.871 53.8017 174.486 52.1948 176.517 52.1948H214.612C216.597 52.1948 218.194 53.7323 218.152 55.6021Z" fill="#3F3D56"/>
</g>
<defs>
<clipPath id="clip0_77_3158">
<rect width="230.447" height="111" fill="white" transform="translate(0.808105)"/>
</clipPath>
</defs>
</svg>
